<svg width="400" height="246" viewBox="0 0 400 246" fill="none" xmlns="http://www.w3.org/2000/svg">
<g clip-path="url(#clip0_412_1058)">
<path d="M212.252 183.404C211.394 188.591 206.88 192.563 201.455 192.563C196.031 192.563 191.512 188.591 190.659 183.404H163.032V243.274H239.879V183.404L212.252 183.404Z" fill="#D9D9D9"/>
<path d="M171.963 243.051H164.369V244.393H171.963V243.051Z" fill="#B6B3C5"/>
<path d="M239.206 243.274H231.611V244.616H239.206V243.274Z" fill="#B6B3C5"/>
<path d="M356.002 184.968H46.9092C44.5456 184.968 42.6228 183.045 42.6228 180.682V4.28649C42.6228 1.92287 44.5456 0 46.9092 0H356.002C358.365 0 360.288 1.92287 360.288 4.28649V180.687C360.288 183.05 358.365 184.973 356.002 184.973L356.002 184.968Z" fill="#2F2E41"/>
<path d="M352.912 7.5946H50.4402V178.265H352.912V7.5946Z" fill="white"/>
<path d="M0 244.853C0 245.095 0.193735 245.294 0.440758 245.294H399.559C399.801 245.294 400 245.1 400 244.853C400 244.606 399.806 244.412 399.559 244.412H0.440758C0.198583 244.412 0 244.606 0 244.853Z" fill="#2F2E43"/>
<path d="M64.8579 129.299L61.5545 142.353L84.3651 142.072L81.7547 130.144L64.8579 129.299Z" fill="#EC9C9F"/>
<path d="M60.6384 173.899L55.6859 195.566L46.5708 238.946L50.795 239.791L79.8294 175.137L60.6384 173.899Z" fill="#EC9C9F"/>
<path d="M70.1735 178.834L79.3212 199.091L92.7553 239.791L98.3876 238.383L86.2121 168.224L70.1735 178.834Z" fill="#EC9C9F"/>
<path d="M62.8355 136.979C62.8355 136.979 52.6513 154.912 54.5085 174.722C54.5085 174.722 69.5227 186.091 93.6424 175.567L83.7137 135.947L62.8355 136.979Z" fill="#090814"/>
<path d="M45.8655 244.119C45.3806 243.721 45.1189 243.277 45.0876 242.8C45.0518 242.253 45.3219 241.666 45.8903 241.056C45.904 240.881 46.0804 238.706 46.4735 238.316C46.4406 238.2 46.2403 237.428 46.5686 236.927C46.7232 236.691 46.9725 236.553 47.3094 236.518L47.3241 236.516L47.3314 236.529C47.3409 236.546 48.2975 238.229 49.7365 238.377C50.5615 238.461 51.3875 238.032 52.1915 237.099C52.2204 237.03 52.4476 235.894 52.5942 235.142L52.6001 235.112L60.4407 239.285L65.0238 240.569C65.5998 240.73 66.0021 241.266 66.0021 241.871C66.0021 242.387 65.7053 242.865 65.246 243.088L63.0245 244.17C62.0962 244.621 61.0611 244.86 60.0312 244.86H47.9809C47.2002 244.86 46.4489 244.597 45.8655 244.119Z" fill="#090814"/>
<path d="M90.6419 244.119C90.157 243.721 89.8953 243.277 89.864 242.8C89.8282 242.253 90.0983 241.666 90.6668 241.056C90.6804 240.881 90.8568 238.706 91.25 238.316C91.217 238.2 91.0168 237.428 91.345 236.927C91.4996 236.691 91.7489 236.553 92.0859 236.518L92.1005 236.516L92.1078 236.529C92.1173 236.546 93.0739 238.229 94.5129 238.377C95.3379 238.461 96.1639 238.032 96.9679 237.099C96.9968 237.03 97.224 235.894 97.3706 235.142L97.3765 235.112L105.217 239.285L109.8 240.569C110.376 240.73 110.779 241.266 110.779 241.871C110.779 242.387 110.482 242.865 110.022 243.088L107.801 244.17C106.873 244.621 105.838 244.86 104.808 244.86H92.7573C91.9766 244.86 91.2253 244.597 90.6419 244.119Z" fill="#090814"/>
<path d="M68.1356 88.789C68.1356 83.7076 72.2549 79.5883 77.3362 79.5883C82.4176 79.5883 86.5369 83.7076 86.5369 88.789C86.5369 92.91 83.8274 96.3977 80.0928 97.569L78.3141 109.324L69.2468 101.768C69.2468 101.768 71.2056 99.2726 72.2561 96.4593C69.7733 94.8117 68.1356 91.9921 68.1356 88.789Z" fill="#EC9C9F"/>
<path d="M68.3835 97.8715L79.2202 104.799L84.2221 113.632C85.6704 116.19 86.1596 119.18 85.6017 122.066L83.3036 133.955H59.3422L63.1283 109.15C63.6115 105.984 64.8174 102.972 66.6524 100.348L68.3835 97.8715Z" fill="#AA9084"/>
<path d="M65.1815 100.878C65.1815 100.878 65.6111 104.137 69.5917 104.244C74.9748 104.388 77.6664 104.46 77.6664 104.46C77.6664 104.46 70.8405 87.8481 73.6472 89.7195C76.4539 91.5909 83.9384 83.7454 83.9384 83.7454L86.1469 87.8872C86.1469 87.8872 91.423 85.9767 85.5757 81.2981C85.5757 81.2981 78.599 75.9043 71.1924 79.1433C63.7859 82.3823 65.1815 100.878 65.1815 100.878Z" fill="#090814"/>
<path d="M114.963 166.279H34.0766V184.2H114.963V166.279Z" fill="#CACACB"/>
<path d="M43.7856 180.266C46.7281 180.266 49.1135 177.881 49.1135 174.939C49.1135 171.996 46.7281 169.611 43.7856 169.611C40.8431 169.611 38.4578 171.996 38.4578 174.939C38.4578 177.881 40.8431 180.266 43.7856 180.266Z" stroke="black" stroke-width="2" stroke-miterlimit="10"/>
<path d="M51.0508 170.579H82.664" stroke="black" stroke-width="2" stroke-miterlimit="10"/>
<path d="M51.0508 174.939H106.205" stroke="black" stroke-width="2" stroke-miterlimit="10"/>
<path d="M51.0508 178.482H110.914" stroke="black" stroke-width="2" stroke-miterlimit="10"/>
<path d="M70.2375 159.904L70.0441 150.988L75.2501 150.875L75.4435 159.791C76.4148 160.693 77.056 162.094 77.0905 163.682C77.1508 166.462 75.335 168.755 73.0349 168.805C70.7347 168.855 68.8212 166.642 68.7609 163.863C68.7264 162.275 69.3063 160.847 70.2375 159.904Z" fill="#EC9C9F"/>
<path d="M77.4247 115.277V158.496H68.3835L65.7114 115.642" fill="#AA9084"/>
<g clip-path="url(#clip1_412_1058)">
<path d="M340.498 21.4349H122.633V160.965H340.498V21.4349Z" fill="#E6E6E6"/>
<path d="M334.268 38.9354H128.863V152.71H334.268V38.9354Z" fill="white"/>
<path d="M340.405 21.3114H122.54V30.567H340.405V21.3114Z" fill="#AA9084"/>
<path d="M129.418 27.7588C130.366 27.7588 131.134 26.9908 131.134 26.0434C131.134 25.0959 130.366 24.3279 129.418 24.3279C128.471 24.3279 127.703 25.0959 127.703 26.0434C127.703 26.9908 128.471 27.7588 129.418 27.7588Z" fill="white"/>
<path d="M135.93 27.7588C136.877 27.7588 137.645 26.9908 137.645 26.0434C137.645 25.0959 136.877 24.3279 135.93 24.3279C134.983 24.3279 134.214 25.0959 134.214 26.0434C134.214 26.9908 134.983 27.7588 135.93 27.7588Z" fill="white"/>
<path d="M142.441 27.7588C143.389 27.7588 144.157 26.9908 144.157 26.0434C144.157 25.0959 143.389 24.3279 142.441 24.3279C141.494 24.3279 140.726 25.0959 140.726 26.0434C140.726 26.9908 141.494 27.7588 142.441 27.7588Z" fill="white"/>
<path d="M194.31 48.2934H154.136V91.8786H194.31V48.2934Z" fill="#E6E6E6"/>
<path d="M251.652 48.2934H211.478V91.8786H251.652V48.2934Z" fill="#E6E6E6"/>
<path d="M308.994 48.2934H268.82V91.8786H308.994V48.2934Z" fill="#E6E6E6"/>
<path d="M194.31 99.7679H154.136V143.353H194.31V99.7679Z" fill="#E6E6E6"/>
<path d="M251.652 99.7679H211.478V143.353H251.652V99.7679Z" fill="#E6E6E6"/>
<path d="M308.994 99.7679H268.82V143.353H308.994V99.7679Z" fill="#E6E6E6"/>
<path d="M169.741 74.6481C173.491 74.6481 176.532 71.6076 176.532 67.8571C176.532 64.1065 173.491 61.0661 169.741 61.0661C165.99 61.0661 162.95 64.1065 162.95 67.8571C162.95 71.6076 165.99 74.6481 169.741 74.6481Z" fill="#FFB9B9"/>
<path d="M167.088 73.0564C167.088 73.0564 167.937 77.0886 167.937 77.513C167.937 77.9374 171.969 79.8474 171.969 79.8474L175.577 79.2108L176.85 75.3908C176.85 75.3908 174.728 72.2075 174.728 70.9342L167.088 73.0564Z" fill="#FFB9B9"/>
<path d="M163.852 62.3858C163.852 62.3858 166.008 57.7142 170.14 58.7923C174.273 59.8703 176.609 61.4874 176.788 63.1045C176.968 64.7216 176.699 67.1472 176.699 67.1472C176.699 67.1472 176.249 63.8232 173.375 64.5419C170.5 65.2606 166.008 64.7216 166.008 64.7216L165.289 71.1899C165.289 71.1899 164.481 70.022 163.582 70.7407C162.684 71.4594 160.977 63.8232 163.852 62.3858Z" fill="#2F2E41"/>
<path d="M191.28 90.2464L189.584 82.6052C188.733 80.0582 186.613 77.9379 186.613 77.9379L176.147 74.2573H176.145C176.124 75.1824 175.812 76.0775 175.254 76.815C174.695 77.5525 173.917 78.0948 173.032 78.3646C169.848 79.4234 167.655 75.8549 167.655 75.8549L158.809 82.6052C158.809 82.6052 156.051 84.9416 156.264 89.3983L155.971 91.8787H192.096L191.28 90.2464Z" fill="#AA9084"/>
<path d="M226.93 78.0323C232.02 78.0323 236.147 73.6515 236.147 68.2476C236.147 62.8437 232.02 58.4629 226.93 58.4629C221.839 58.4629 217.712 62.8437 217.712 68.2476C217.712 73.6515 221.839 78.0323 226.93 78.0323Z" fill="#2F2E41"/>
<path d="M235.108 83.0545C237.786 83.0545 239.957 80.8835 239.957 78.2055C239.957 75.5274 237.786 73.3564 235.108 73.3564C232.43 73.3564 230.259 75.5274 230.259 78.2055C230.259 80.8835 232.43 83.0545 235.108 83.0545Z" fill="#2F2E41"/>
<path d="M231.731 71.7113L234.329 78.4651L227.748 81.2362L227.17 79.9264L225.15 75.3481L231.731 71.7113Z" fill="#9F616A"/>
<path d="M226.535 76.1273C229.74 76.1273 232.337 73.5299 232.337 70.3258C232.337 67.1217 229.74 64.5242 226.535 64.5242C223.331 64.5242 220.734 67.1217 220.734 70.3258C220.734 73.5299 223.331 76.1273 226.535 76.1273Z" fill="#9F616A"/>
<path d="M221.793 69.6894C225.44 67.2562 226.53 66.6745 230.71 67.6144L230.96 61.5168L220.159 63.7825L221.793 69.6894Z" fill="#2F2E41"/>
<path d="M245.238 83.4854L245.078 83.504C245.074 83.4983 245.069 83.4929 245.064 83.488C244.43 82.8533 241.4 81.6984 239.141 80.8983H239.138C237.703 80.3889 236.581 80.0235 236.581 80.0235L233.849 77.2151C233.161 77.9885 231.708 78.586 230.326 79.0073C229.269 79.3275 228.193 79.584 227.104 79.7755H227.102L226.536 81.5811C226.536 81.5811 220.127 86.4325 219.61 86.9499H219.607V86.9552C219.566 87.0142 219.549 87.0867 219.559 87.1579V87.1713C219.236 88.7197 219.07 90.2968 219.063 91.8786H246.971V90.2411C246.971 87.9901 245.238 83.4854 245.238 83.4854Z" fill="#575A89"/>
<path d="M296.558 91.8787H282.758L281.998 84.3815L281.953 83.9254L281.859 83.0213L281.478 79.2421L281.001 83.3013L279.992 91.8787H277.485L277.579 89.2089L277.672 86.5018L277.712 85.411L278.227 70.5714C278.187 68.2198 278.931 65.9219 280.342 64.0397C281.125 63.0203 282.135 62.1979 283.292 61.6381C284.45 61.0783 285.722 60.7965 287.007 60.8153C288.318 60.811 289.613 61.1105 290.789 61.6903C291.965 62.2701 292.991 63.1144 293.787 64.1571C295.244 66.0581 296.024 68.392 296.003 70.7874L296.24 79.7702L296.558 91.8787Z" fill="#2F2E41"/>
<path d="M287.007 75.8817C290.359 75.8817 293.077 73.1642 293.077 69.812C293.077 66.4598 290.359 63.7423 287.007 63.7423C283.655 63.7423 280.937 66.4598 280.937 69.812C280.937 73.1642 283.655 75.8817 287.007 75.8817Z" fill="#FBBEBE"/>
<path d="M283.972 74.1475C283.972 74.1475 285.706 80.0005 283.972 81.7347C282.238 83.4689 281.804 84.1192 281.804 84.1192L286.79 90.8393L295.461 80.2173C295.461 80.2173 289.392 78.483 290.909 73.714L283.972 74.1475Z" fill="#FBBEBE"/>
<path d="M302.697 91.8787H297.576L297.491 91.0012L297.414 90.1904L299.771 89.8944L302.614 89.5396L302.646 90.4491L302.697 91.8787Z" fill="#FBBEBE"/>
<path d="M303.048 90.4057C303.048 90.4057 302.181 84.9863 301.531 82.8186C300.881 80.6508 300.23 80.6508 300.23 80.6508L300.23 80.6503C299.465 79.8848 297.624 79.7488 296.24 79.7701C295.269 79.7808 294.523 79.8662 294.523 79.8662L286.791 88.0221L282.897 82.8453V82.8426C282.546 82.8699 282.199 82.9297 281.859 83.0213C281.567 83.0957 281.28 83.1893 281.001 83.3014C279.795 83.8167 278.683 84.5297 277.712 85.411H277.709C277.149 85.9151 276.819 86.2858 276.819 86.2858C275.961 88.0687 275.315 89.9457 274.893 91.8787H299.67L299.726 90.7638V90.7617L303.048 90.4057Z" fill="#AA9084"/>
<path d="M281.913 68.8365C285.833 66.723 287.443 66.8125 292.318 68.8365L293.619 65.6676C293.618 65.071 293.381 64.4989 292.959 64.077C292.537 63.6551 291.965 63.4178 291.368 63.4171H282.646C282.049 63.4178 281.477 63.6551 281.055 64.077C280.633 64.4989 280.396 65.071 280.395 65.6676L281.913 68.8365Z" fill="#2F2E41"/>
<path d="M173.692 110.317C173.369 110.291 173.045 110.363 172.764 110.524C172.498 110.752 172.284 111.034 172.137 111.352C171.459 112.544 170.54 113.582 169.439 114.4C168.637 114.987 167.618 115.72 167.755 116.802C167.828 117.16 167.96 117.503 168.146 117.817C168.886 119.309 170.904 120.463 170.705 122.167C171.44 120.937 170.457 120.328 171.192 119.098C171.542 118.512 172.15 117.851 172.678 118.219C172.855 118.342 172.971 118.563 173.155 118.671C173.595 118.929 174.062 118.436 174.451 118.087C175.793 116.883 177.701 117.198 179.37 117.573C180.158 117.751 181.024 117.983 181.49 118.736C182.102 119.726 180.908 120.796 180.606 121.916C180.581 122.011 180.58 122.111 180.602 122.207C180.625 122.303 180.67 122.392 180.735 122.467C180.799 122.541 180.88 122.599 180.972 122.636C181.064 122.672 181.163 122.685 181.261 122.675C181.762 122.626 182.355 122.585 182.385 122.365C183.015 122.388 183.787 122.316 184.057 121.66C184.139 121.401 184.183 121.13 184.186 120.858C184.285 119.755 184.753 118.75 185.063 117.701C185.373 116.652 185.508 115.422 184.985 114.492C184.798 114.182 184.567 113.902 184.3 113.659C181.332 110.787 177.429 110.313 173.692 110.317Z" fill="#2F2E41"/>
<path d="M171.351 124.318C171.351 124.318 171.996 129.698 169.629 130.128C167.263 130.558 171.781 137.874 171.781 137.874L182.54 139.165L179.958 130.558C179.958 130.558 178.236 129.913 179.312 125.609C180.388 121.306 171.351 124.318 171.351 124.318Z" fill="#9F616A"/>
<path d="M176.192 127.869C179.757 127.869 182.647 124.979 182.647 121.414C182.647 117.849 179.757 114.959 176.192 114.959C172.627 114.959 169.737 117.849 169.737 121.414C169.737 124.979 172.627 127.869 176.192 127.869Z" fill="#9F616A"/>
<path d="M165.082 143.353C166.223 138.864 167.799 132.818 167.799 132.818C167.799 132.818 168.413 132.944 169.378 133.085C170.789 133.295 172.21 133.424 173.635 133.472C175.459 133.522 177.379 133.402 178.865 132.888C179.425 132.708 179.948 132.429 180.409 132.063C180.604 131.907 180.777 131.727 180.927 131.527C183.508 128.084 184.583 141.209 184.583 141.209L184.783 143.353L165.082 143.353Z" fill="#AA9084"/>
<path d="M185.706 157.222C185.621 157.222 185.535 157.225 185.45 157.23L185.573 157.001C185.615 157.073 185.658 157.147 185.706 157.222Z" fill="#FFB8B8"/>
<path d="M174.006 112.006C173.746 111.987 173.485 112.037 173.251 112.153C173.04 112.307 172.865 112.507 172.741 112.738C172.167 113.601 171.419 114.335 170.544 114.892C169.892 115.307 169.062 115.825 169.174 116.59C169.234 116.846 169.342 117.09 169.492 117.307C170.096 118.372 170.336 119.606 170.177 120.821L171.971 118.213C172.256 117.799 172.751 117.331 173.181 117.591C173.325 117.678 173.42 117.834 173.57 117.911C173.927 118.093 174.308 117.745 174.625 117.498C175.717 116.647 177.27 116.87 178.629 117.135C179.27 117.26 179.975 117.424 180.354 117.957C180.984 118.841 180.326 120.12 180.694 121.142C180.797 121.07 180.884 120.978 180.951 120.871C181.018 120.765 181.063 120.646 181.082 120.522C181.596 120.538 182.224 120.487 182.444 120.023C182.511 119.842 182.546 119.65 182.549 119.456C182.63 118.677 183.011 117.966 183.263 117.225C183.515 116.483 183.625 115.614 183.199 114.957C183.044 114.734 182.856 114.536 182.642 114.368C180.225 112.338 177.049 112.003 174.006 112.006Z" fill="#2F2E41"/>
<path d="M173.395 133.032C171.923 131.349 171.048 128.895 171.008 128.786V128.783C171.008 128.783 168.661 127.439 168.015 128.73C167.37 130.02 161.345 133.248 160.7 133.248C160.694 133.25 160.689 133.252 160.684 133.253C160.428 133.338 157.222 134.504 156.398 138.843C156.174 140.336 156.054 141.843 156.04 143.353H173.587C173.768 141.452 173.904 139.673 173.958 138.136C174.035 135.995 173.96 134.33 173.635 133.472C173.583 133.311 173.502 133.162 173.395 133.032Z" fill="#2F2E41"/>
<path d="M188.483 134.242C188.472 134.192 188.464 134.149 188.456 134.109C188.427 133.995 188.378 133.886 188.312 133.789C188.31 133.787 188.309 133.784 188.309 133.781C187.066 131.855 179.073 129.204 179.073 129.204L178.774 130.237C178.774 130.237 178.812 131.255 178.865 132.888C178.918 134.416 178.982 136.48 179.044 138.747C179.086 140.227 179.124 141.796 179.158 143.353H191.115C190.445 140.26 189.565 137.216 188.483 134.242Z" fill="#2F2E41"/>
<path d="M300.35 143.353L301.265 138.883L302.116 138.523L302.121 138.526C302.198 138.555 303.124 138.947 303.124 140.433C303.124 140.731 303.079 141.806 303.004 143.353H300.35Z" fill="#575A89"/>
<path d="M290.741 127.74C294.845 127.74 298.171 124.414 298.171 120.311C298.171 116.208 294.845 112.881 290.741 112.881C286.638 112.881 283.312 116.208 283.312 120.311C283.312 124.414 286.638 127.74 290.741 127.74Z" fill="#FFB8B8"/>
<path d="M295.385 124.644L294.766 137.336L285.169 131.764L286.407 124.644H295.385Z" fill="#FFB8B8"/>
<path d="M298.171 137.955L297.542 143.353H292.504L287.036 132.848L285.495 129.89L284.756 129.407L285.612 129.212L286.287 129.7L293.837 135.171L295.048 131.535L295.08 131.442L295.384 130.527L298.171 137.955Z" fill="#AA9084"/>
<path d="M286.253 113.036C286.253 113.036 287.182 108.393 292.444 109.321L291.825 109.631C291.825 109.631 296.778 109.012 296.159 111.798C296.159 111.798 300.183 114.274 299.254 117.06C298.708 118.675 298.294 120.331 298.016 122.013L297.087 121.085C297.087 121.085 296.159 114.893 290.587 115.513C286.408 115.977 284.705 117.95 284.27 119.372C284.069 120.041 283.814 120.692 283.505 121.318L283.157 121.394C283.157 121.394 281.3 114.584 286.253 113.036Z" fill="#2F2E41"/>
<path d="M302.121 138.526L302.116 138.523L298.171 134.859V132.384L295.125 129.983L295.08 131.442L294.765 141.361L289.701 134.394L286.287 129.7L285.673 128.86L285.823 128.074L283.932 130.215L277.088 135.349L276.501 135.789C275.828 136.463 275.208 137.187 274.645 137.955C274.461 138.23 273.623 140.417 272.533 143.353H303.004C303.079 141.806 303.124 140.731 303.124 140.433C303.124 138.947 302.198 138.555 302.121 138.526Z" fill="#2F2E41"/>
<path d="M230.954 112.15C225.919 112.15 221.838 116.679 221.838 122.266V129.365H224.021L225.285 126.735L224.969 129.365H239.002L240.151 126.974L239.863 129.365H241.443V123.791C241.443 117.362 236.747 112.15 230.954 112.15Z" fill="#2F2E41"/>
<path d="M223.597 143.353H217.668L217.612 138.518C217.61 138.467 217.61 138.419 217.61 138.368L218.796 137.032L218.818 137.008L223.349 139.878L223.597 143.353Z" fill="#D0CDE1"/>
<path d="M230.147 128.373C233.731 128.373 236.636 125.467 236.636 121.883C236.636 118.299 233.731 115.394 230.147 115.394C226.563 115.394 223.658 118.299 223.658 121.883C223.658 125.467 226.563 128.373 230.147 128.373Z" fill="#FBBEBE"/>
<path d="M226.427 125.777C226.427 125.777 228.33 135.641 227.465 136.679C226.6 137.717 236.636 134.775 236.636 134.775C236.636 134.775 233.349 128.027 235.079 124.22L226.427 125.777Z" fill="#FBBEBE"/>
<path d="M244.032 132.447H244.03C243.877 132.124 243.613 131.867 243.286 131.722C242.013 131.186 240.917 130.775 240.016 130.463C238.421 129.916 236.682 129.97 235.124 130.615C234.972 130.677 234.823 130.743 234.676 130.818C234.676 130.818 228.331 132.026 227.576 131.874C227.52 131.863 227.462 131.855 227.406 131.85C227.292 131.834 227.177 131.824 227.062 131.821C225.585 131.752 224.121 132.115 222.848 132.866C220.765 134.074 217.676 136.216 217.612 138.302L217.554 138.368L217.612 143.353H245.462C245.518 138.576 245.55 134.987 245.55 134.744C245.55 133.989 244.032 132.447 244.032 132.447Z" fill="#AA9084"/>
<path d="M233.545 114.937C233.106 114.348 232.538 113.868 231.884 113.534C231.23 113.2 230.507 113.021 229.773 113.012H229.594C226.144 113.012 223.346 116.134 223.346 119.986L224.502 119.986L224.689 118.564L224.963 119.986H231.82L232.395 118.783L232.251 119.986H233.6C234.23 123.112 233.325 126.238 230.887 129.365H233.185L234.334 126.96L234.046 129.365H238.427L239.289 123.833C239.289 119.691 236.882 116.179 233.545 114.937Z" fill="#2F2E41"/>
<path d="M234.805 115.519C236.69 115.519 238.219 113.991 238.219 112.105C238.219 110.219 236.69 108.691 234.805 108.691C232.919 108.691 231.39 110.219 231.39 112.105C231.39 113.991 232.919 115.519 234.805 115.519Z" fill="#2F2E41"/>
</g>
</g>
<defs>
<clipPath id="clip0_412_1058">
<rect width="400" height="245.294" fill="white"/>
</clipPath>
<clipPath id="clip1_412_1058">
<rect width="217.957" height="139.653" fill="white" transform="translate(122.54 21.3114)"/>
</clipPath>
</defs>
</svg>
