<svg width="300" height="247" viewBox="0 0 300 247" fill="none" xmlns="http://www.w3.org/2000/svg">
<g clip-path="url(#clip0_412_899)">
<path d="M219.583 202.753C221.965 203.59 224.522 203.8 227.009 203.362C229.495 202.924 231.827 201.853 233.779 200.252C238.751 196.079 240.31 189.204 241.579 182.837L245.331 164.007L237.476 169.415C231.827 173.305 226.051 177.319 222.14 182.953C218.229 188.586 216.521 196.277 219.664 202.373" fill="#E6E6E6"/>
<path d="M220.255 225.551C219.459 219.76 218.642 213.895 219.2 208.042C219.695 202.844 221.281 197.767 224.509 193.604C226.223 191.399 228.308 189.509 230.672 188.02C231.288 187.631 231.855 188.608 231.241 188.995C227.153 191.579 223.99 195.395 222.21 199.892C220.243 204.894 219.928 210.346 220.266 215.659C220.471 218.872 220.906 222.063 221.343 225.251C221.378 225.395 221.356 225.547 221.283 225.676C221.21 225.805 221.09 225.901 220.949 225.946C220.805 225.984 220.651 225.965 220.521 225.891C220.391 225.817 220.295 225.695 220.255 225.551Z" fill="#F2F2F2"/>
<path d="M227.912 215.304C228.934 216.857 230.338 218.12 231.989 218.972C233.641 219.825 235.484 220.237 237.341 220.171C242.114 219.944 246.094 216.613 249.676 213.45L260.271 204.095L253.259 203.76C248.216 203.518 243.043 203.293 238.24 204.848C233.437 206.403 229.007 210.146 228.129 215.118" fill="#E6E6E6"/>
<path d="M218.008 228.88C221.834 222.109 226.273 214.584 234.203 212.179C236.409 211.513 238.721 211.274 241.016 211.476C241.739 211.538 241.558 212.653 240.836 212.591C236.99 212.271 233.151 213.287 229.965 215.467C226.9 217.553 224.513 220.454 222.493 223.53C221.256 225.414 220.148 227.379 219.039 229.34C218.685 229.967 217.649 229.514 218.008 228.88Z" fill="#F2F2F2"/>
<path d="M123.696 181.314C119.001 182.964 113.961 183.377 109.061 182.514C104.161 181.651 99.565 179.54 95.7172 176.385C85.9176 168.16 82.8452 154.61 80.3453 142.062C77.8805 129.692 75.4157 117.321 72.9509 104.95L88.4317 115.61C99.5646 123.275 110.948 131.187 118.657 142.29C126.365 153.393 129.73 168.551 123.536 180.565" fill="#E6E6E6"/>
<path d="M122.372 226.246C123.939 214.833 125.55 203.273 124.451 191.738C123.475 181.493 120.35 171.487 113.986 163.282C110.609 158.936 106.499 155.211 101.842 152.277C100.627 151.51 99.5094 153.435 100.719 154.198C108.777 159.291 115.01 166.812 118.519 175.676C122.394 185.533 123.017 196.278 122.349 206.749C121.945 213.081 121.089 219.372 120.227 225.654C120.159 225.938 120.201 226.238 120.345 226.492C120.489 226.746 120.725 226.936 121.004 227.023C121.288 227.1 121.591 227.061 121.848 226.915C122.104 226.77 122.292 226.529 122.372 226.246Z" fill="#F2F2F2"/>
<path d="M107.28 206.05C105.267 209.11 102.5 211.6 99.2449 213.28C95.9901 214.96 92.3574 215.773 88.697 215.641C79.2897 215.195 71.447 208.629 64.3871 202.396L43.5054 183.959L57.3256 183.297C67.2643 182.822 77.4594 182.378 86.9257 185.443C96.392 188.508 105.122 195.884 106.853 205.682" fill="#E6E6E6"/>
<path d="M126.8 232.807C119.259 219.462 110.511 204.632 94.8808 199.892C90.5347 198.578 85.9776 198.107 81.4549 198.505C80.0295 198.628 80.3854 200.825 81.8083 200.703C89.3894 200.073 96.9558 202.075 103.234 206.371C109.275 210.483 113.979 216.2 117.96 222.263C120.399 225.976 122.583 229.847 124.768 233.713C125.466 234.948 127.507 234.057 126.8 232.807Z" fill="#F2F2F2"/>
<path d="M68.5924 52.1457L3.65934 38.5416L2.81551 38.3652C2.38576 38.2745 1.93915 38.307 1.52703 38.4588C1.11491 38.6107 0.754026 38.8758 0.485871 39.2236C0.217715 39.5715 0.053187 39.9879 0.0111977 40.4251C-0.0307916 40.8623 0.0514709 41.3025 0.24852 41.695L26.3071 93.8304C26.4757 94.1654 26.7224 94.4549 27.0263 94.6746C27.3302 94.8944 27.6824 95.0379 28.0533 95.0931C28.4254 95.1487 28.8054 95.1129 29.1606 94.9888C29.5157 94.8646 29.8353 94.6559 30.0917 94.3806L47.8638 75.4172C47.9902 75.2789 48.1438 75.1683 48.3151 75.0923C48.4863 75.0163 48.6714 74.9766 48.8588 74.9756C49.1134 74.9705 49.3646 75.0347 49.5855 75.1614C49.8065 75.2881 49.9888 75.4725 50.113 75.6949L53.8164 82.4487C54.0529 82.8991 54.4333 83.2574 54.897 83.4666C55.3607 83.6758 55.8811 83.7238 56.3753 83.603L56.3935 83.5989C56.8937 83.4898 57.3428 83.2157 57.6685 82.8206C57.9941 82.4255 58.1775 81.9324 58.189 81.4205L58.83 65.7757C58.8376 65.5805 58.8852 65.3889 58.9698 65.2129C59.0608 65.0386 59.1848 64.8837 59.3348 64.7567L69.602 56.2261C69.9395 55.9457 70.1911 55.5759 70.3281 55.1591C70.4651 54.7423 70.4818 54.2953 70.3765 53.8693C70.2711 53.4434 70.0478 53.0558 69.7323 52.751C69.4167 52.4461 69.0217 52.2363 68.5924 52.1457ZM69.0085 55.5096L58.7414 64.0402C58.6076 64.1493 58.4865 64.2731 58.3804 64.4093L3.55039 39.9344C3.50202 39.9123 3.4516 39.8949 3.39984 39.8826C3.18861 39.8295 2.96545 39.8519 2.76897 39.9459C2.57249 40.0399 2.41505 40.1996 2.32387 40.3974C2.23268 40.5952 2.21347 40.8187 2.26959 41.0292C2.3257 41.2396 2.4536 41.4238 2.63117 41.55L47.7887 74.3102C47.5613 74.4302 47.3562 74.5885 47.1826 74.7781L29.4107 93.7414C29.2565 93.9056 29.0649 94.0302 28.8523 94.1045C28.6396 94.1788 28.4121 94.2007 28.1892 94.1683C27.9663 94.1359 27.7545 94.0502 27.5718 93.9184C27.3891 93.7866 27.2409 93.6127 27.1398 93.4113L1.08123 41.276C0.964718 41.0404 0.916717 40.7769 0.942693 40.5153C0.968669 40.2538 1.06759 40.0049 1.22816 39.7968C1.38873 39.5888 1.6045 39.43 1.8509 39.3386C2.0973 39.2472 2.36442 39.2269 2.62183 39.2799L3.48569 39.4612L68.3985 53.0604C68.6562 53.1146 68.8935 53.2403 69.0831 53.423C69.2728 53.6058 69.4071 53.8383 69.4708 54.0939C69.5344 54.3495 69.5248 54.6178 69.4431 54.8681C69.3613 55.1185 69.2107 55.3408 69.0085 55.5096Z" fill="#CCCCCC"/>
<path d="M68.5924 52.1457L3.65934 38.5416L2.81551 38.3652C2.38576 38.2745 1.93915 38.307 1.52703 38.4588C1.11491 38.6107 0.754026 38.8758 0.485871 39.2236C0.217715 39.5715 0.053187 39.9879 0.0111977 40.4251C-0.0307916 40.8623 0.0514709 41.3025 0.24852 41.695L26.3071 93.8304C26.4757 94.1654 26.7224 94.4549 27.0263 94.6746C27.3302 94.8944 27.6824 95.0379 28.0533 95.0931C28.4254 95.1487 28.8054 95.1129 29.1606 94.9888C29.5157 94.8646 29.8353 94.6559 30.0917 94.3806L47.8638 75.4172C47.9902 75.2789 48.1438 75.1683 48.3151 75.0923C48.4863 75.0163 48.6714 74.9766 48.8588 74.9756C49.1134 74.9705 49.3646 75.0347 49.5855 75.1614C49.8065 75.2881 49.9888 75.4725 50.113 75.6949L53.8164 82.4487C54.0529 82.8991 54.4333 83.2574 54.897 83.4666C55.3607 83.6758 55.8811 83.7238 56.3753 83.603L56.3935 83.5989C56.8937 83.4898 57.3428 83.2157 57.6685 82.8206C57.9941 82.4255 58.1775 81.9324 58.189 81.4205L58.83 65.7757C58.8376 65.5805 58.8852 65.3889 58.9698 65.2129C59.0608 65.0386 59.1848 64.8837 59.3348 64.7567L69.602 56.2261C69.9395 55.9457 70.1911 55.5759 70.3281 55.1591C70.4651 54.7423 70.4818 54.2953 70.3765 53.8693C70.2711 53.4434 70.0478 53.0558 69.7323 52.751C69.4167 52.4461 69.0217 52.2363 68.5924 52.1457ZM69.0085 55.5096L58.7414 64.0402C58.6076 64.1493 58.4865 64.2731 58.3804 64.4093C58.2847 64.5305 58.2022 64.6615 58.1343 64.8002C58.0632 64.942 58.0074 65.091 57.9678 65.2447L57.9688 65.2492C57.927 65.4093 57.9034 65.5735 57.8983 65.7388L57.2576 81.3836C57.2533 81.6912 57.1444 81.9881 56.9489 82.2256C56.7534 82.4631 56.4829 82.6269 56.1819 82.6903L56.1728 82.6923C55.8763 82.7679 55.5629 82.741 55.2835 82.6162C55.0042 82.4913 54.7752 82.2757 54.6337 82.0044L50.9293 75.246C50.7384 74.8984 50.4619 74.6053 50.126 74.3946C49.7901 74.1839 49.4058 74.0625 49.0098 74.0419L49.0054 74.0429C48.9521 74.0407 48.899 74.0384 48.847 74.0407C48.4776 74.0431 48.1143 74.1356 47.7888 74.3102C47.5613 74.4302 47.3562 74.5885 47.1826 74.7781L29.4107 93.7414C29.2565 93.9056 29.0649 94.0302 28.8523 94.1045C28.6396 94.1788 28.4121 94.2007 28.1892 94.1683C27.9663 94.1359 27.7545 94.0502 27.5718 93.9184C27.3891 93.7866 27.2409 93.6126 27.1398 93.4113L1.08123 41.276C0.964718 41.0404 0.916717 40.7769 0.942693 40.5153C0.968669 40.2538 1.06759 40.0049 1.22816 39.7968C1.38873 39.5888 1.6045 39.43 1.8509 39.3386C2.0973 39.2472 2.36442 39.2269 2.62183 39.2799L3.48569 39.4612L68.3985 53.0604C68.6562 53.1146 68.8935 53.2403 69.0831 53.423C69.2728 53.6058 69.4071 53.8383 69.4708 54.0939C69.5344 54.3495 69.5248 54.6178 69.4431 54.8681C69.3613 55.1185 69.2107 55.3408 69.0085 55.5096Z" fill="#3F3D56"/>
<path d="M58.5879 64.5009L58.2076 65.3528L57.9689 65.2492L57.9679 65.2447L3.18131 40.7935L49.0054 74.043L49.0099 74.0419L49.1312 74.1339L48.5856 74.8895L47.7888 74.3102L2.63122 41.55C2.45365 41.4239 2.32574 41.2396 2.26963 41.0292C2.21351 40.8187 2.2327 40.5952 2.32389 40.3974C2.41508 40.1996 2.57254 40.0399 2.76903 39.9459C2.96551 39.8519 3.18868 39.8295 3.39992 39.8826C3.45168 39.8949 3.5021 39.9123 3.55047 39.9345L58.3804 64.4093L58.5879 64.5009Z" fill="#3F3D56"/>
<path d="M199.564 129.681L201.933 152.849L201.98 153.325L202.684 160.196L208.468 216.766V216.776L209.592 227.751C209.153 228.341 208.765 228.967 208.431 229.622C207.412 231.633 206.914 233.867 206.982 236.12C207.051 238.373 207.684 240.574 208.823 242.519C211.645 241.81 214.428 241.001 217.172 240.093C222.849 238.226 228.386 235.956 233.74 233.302C233.183 230.238 231.583 227.461 229.211 225.442L223.404 155.667L222.895 149.547L221.24 129.681H199.564Z" fill="#FFB8B8"/>
<path d="M216.172 66.5791C228.149 54.6026 228.149 35.185 216.172 23.2085C204.196 11.2321 184.778 11.2321 172.802 23.2085C160.825 35.185 160.825 54.6026 172.802 66.5791C184.778 78.5555 204.196 78.5555 216.172 66.5791Z" fill="#FFB8B8"/>
<path d="M137.326 171.47C137.331 171.531 137.336 171.591 137.34 171.647C137.442 172.844 137.924 173.976 138.715 174.879C139.507 175.782 140.566 176.408 141.739 176.666L187.506 186.662C187.903 186.749 188.308 186.793 188.714 186.793C189.942 186.792 191.136 186.389 192.112 185.645C193.089 184.901 193.794 183.857 194.12 182.674C194.218 182.31 194.326 181.937 194.442 181.55V181.545C195.986 176.302 198.743 169.166 202.684 160.196C203.575 158.167 204.528 156.041 205.544 153.82C205.73 153.409 205.921 152.994 206.108 152.579C208.202 148.031 210.539 143.108 213.119 137.811C214.381 135.222 215.334 132.493 215.959 129.681C217.621 122.258 216.965 114.503 214.08 107.464C213.492 106.031 212.814 104.637 212.051 103.29C209.038 97.9791 204.77 93.4882 199.619 90.2102C194.468 86.9322 188.592 84.9672 182.506 84.4872C181.54 84.4079 180.58 84.3706 179.614 84.3706C169.956 84.4131 160.687 88.1751 153.731 94.8749C149.626 98.8547 146.51 103.739 144.631 109.139C144.509 109.479 144.397 109.825 144.286 110.17C142.562 115.633 141.179 121.197 140.143 126.831C139.523 130.176 139.019 133.473 138.613 136.687C137.191 148.223 136.76 159.86 137.326 171.47Z" fill="#AA9084"/>
<path d="M117.171 230.074C144.976 245.878 177.81 250.337 208.823 242.519C211.645 241.81 214.428 241.001 217.172 240.093C214.737 232.155 211.831 224.368 208.468 216.776V216.766C202.862 204.196 197.712 196.504 195.203 193.108C194.79 192.546 194.518 191.893 194.411 191.204C194.303 190.515 194.361 189.81 194.582 189.148L195.361 186.811C195.658 185.927 195.729 184.983 195.568 184.064C195.408 183.145 195.021 182.281 194.442 181.55V181.545C194.391 181.48 194.335 181.414 194.279 181.349C173.891 158.12 138.348 170.794 137.988 170.924L137.811 170.989L137.699 171.143C137.578 171.311 137.457 171.475 137.34 171.647C127.703 185.151 121.299 205.908 117.171 230.074Z" fill="#2F2E41"/>
<path d="M75.2629 80.5174C75.4162 81.1911 75.5161 81.8759 75.5617 82.5653L129.2 113.509L142.237 106.003L156.136 124.199L134.347 139.729C132.586 140.983 130.467 141.633 128.306 141.58C126.145 141.528 124.059 140.775 122.362 139.437L67.0523 95.8023C64.5561 96.7263 61.8379 96.8684 59.259 96.2098C56.6801 95.5512 54.3629 94.1231 52.6155 92.1153C50.8681 90.1076 49.7733 87.6155 49.4768 84.9704C49.1803 82.3253 49.6962 79.6527 50.9557 77.3079C52.2153 74.9632 54.1588 73.0575 56.5279 71.8442C58.8969 70.631 61.5792 70.1678 64.218 70.5162C66.8567 70.8647 69.3268 72.0082 71.2998 73.7947C73.2728 75.5812 74.6551 77.9261 75.2629 80.5174Z" fill="#FFB8B8"/>
<path d="M130.022 113.034V113.038C130.216 113.741 130.546 114.398 130.992 114.974L140.143 126.831L144.505 132.489L148.33 137.443C148.823 138.082 149.448 138.607 150.162 138.983C150.877 139.359 151.664 139.577 152.47 139.621C153.276 139.665 154.082 139.535 154.833 139.24C155.585 138.944 156.263 138.491 156.824 137.909L170.714 123.487L176.447 117.53C179.704 114.989 181.82 111.259 182.332 107.16C182.843 103.06 181.708 98.9247 179.175 95.6607C176.642 92.3968 172.919 90.2705 168.82 89.7481C164.722 89.2256 160.584 90.3498 157.313 92.8739L153.731 94.875L132.699 106.639C131.603 107.253 130.744 108.216 130.259 109.375C129.774 110.534 129.69 111.822 130.022 113.034Z" fill="#AA9084"/>
<path d="M190.687 120.469L191.564 148.479L191.569 148.656C191.594 149.463 191.792 150.256 192.151 150.98C192.51 151.703 193.021 152.341 193.649 152.849C194.277 153.357 195.007 153.724 195.789 153.925C196.572 154.125 197.388 154.155 198.183 154.011L201.98 153.325L202.95 153.148H202.955L206.108 152.579L222.895 149.547L226.109 148.969C226.903 148.824 227.657 148.511 228.319 148.049C228.982 147.587 229.537 146.989 229.947 146.293C230.357 145.598 230.613 144.823 230.697 144.02C230.781 143.217 230.691 142.406 230.433 141.641L221.379 114.834C220.622 110.773 218.286 107.179 214.883 104.838C211.479 102.497 207.287 101.602 203.224 102.348C199.161 103.093 195.56 105.42 193.21 108.817C190.86 112.214 189.953 116.404 190.687 120.469Z" fill="#AA9084"/>
<path d="M189.633 37.8399C181.751 43.2346 171.401 48.7801 163.351 43.0351C158.065 39.2629 156.399 32.2776 158.543 26.1476C162.398 15.124 172.989 10.2709 183.116 6.55091C196.282 1.71491 210.618 -2.13234 224.21 1.33096C237.802 4.79427 249.814 17.9538 247.36 31.7637C245.387 42.8693 234.912 52.11 236.399 63.291C237.895 74.5438 250.55 80.467 261.723 82.4781C272.895 84.4893 285.397 85.1355 293.426 93.1604C303.669 103.398 301.111 121.696 291.473 132.504C281.835 143.313 267.291 148.212 253.198 151.543C234.525 155.956 214.33 158.275 196.595 150.951C178.861 143.627 165.06 123.913 170.198 105.426C172.368 97.6177 177.48 91.0184 182.42 84.5937C187.36 78.1689 192.363 71.4506 194.247 63.5682C195.818 56.9995 194.655 49.3729 190.299 44.4456C189.507 43.5832 189.009 42.4919 188.875 41.3284C188.742 40.1649 188.981 38.989 189.557 37.9697L189.633 37.8399Z" fill="#2F2E41"/>
</g>
<defs>
<clipPath id="clip0_412_899">
<rect width="300" height="246.283" fill="white"/>
</clipPath>
</defs>
</svg>
