<svg width="450" height="188" viewBox="0 0 450 188" fill="none" xmlns="http://www.w3.org/2000/svg">
<g clip-path="url(#clip0_412_1000)">
<path d="M174.367 60.6058C179.159 59.5264 184.357 63.3434 185.037 68.1588C185.856 73.9694 180.479 78.4327 176.125 81.184C171.334 84.2112 166.136 86.916 163.498 92.2085C161.219 96.7824 160.888 102.351 162.763 107.123C166.391 116.36 176.765 119.538 183.648 125.709C185.332 127.218 186.825 128.936 187.907 130.93C189.326 133.547 189.907 136.533 189.773 139.495C189.501 145.526 186.237 150.909 181.805 154.847C177.241 158.902 171.011 160.943 167.151 165.803C165.496 167.887 164.242 170.523 164.429 173.246C164.59 175.602 165.76 177.924 167.688 179.321C168.627 180.001 169.71 180.381 170.864 180.466C171.569 180.517 171.565 179.419 170.864 179.368C168.349 179.184 166.479 177.049 165.803 174.743C165.017 172.057 165.979 169.294 167.548 167.087C169.336 164.573 171.907 162.793 174.494 161.188C177.115 159.56 179.781 158.022 182.136 156.011C186.548 152.243 189.916 147.119 190.705 141.294C191.106 138.339 190.861 135.267 189.807 132.466C188.96 130.216 187.622 128.203 185.983 126.452C182.772 123.021 178.627 120.642 174.732 118.088C170.835 115.531 166.847 112.653 164.584 108.46C162.103 103.864 162.027 98.0545 164.181 93.3199C165.334 90.785 167.098 88.6942 169.268 86.9645C171.631 85.0805 174.309 83.6406 176.852 82.0225C181.281 79.2047 186.039 75.0854 186.199 69.4057C186.334 64.5937 182.253 60.243 177.614 59.4569C176.431 59.2565 175.246 59.2831 174.075 59.5468C173.385 59.702 173.677 60.761 174.367 60.6058Z" fill="#3F3D56"/>
<path d="M290.276 61.0939C285.483 60.0145 280.285 63.8315 279.606 68.6469C278.786 74.4575 284.163 78.9208 288.517 81.6721C293.308 84.6993 298.506 87.4041 301.144 92.6966C303.424 97.2705 303.754 102.84 301.879 107.611C298.251 116.848 287.878 120.027 280.994 126.197C279.31 127.706 277.817 129.424 276.736 131.418C275.316 134.035 274.735 137.021 274.869 139.983C275.141 146.014 278.406 151.397 282.837 155.335C287.401 159.39 293.631 161.431 297.491 166.291C299.146 168.375 300.4 171.011 300.213 173.734C300.052 176.09 298.883 178.412 296.954 179.809C296.015 180.489 294.932 180.87 293.779 180.954C293.073 181.005 293.077 179.907 293.779 179.856C296.293 179.672 298.163 177.537 298.839 175.231C299.625 172.545 298.664 169.782 297.094 167.575C295.307 165.061 292.735 163.281 290.148 161.676C287.527 160.049 284.861 158.51 282.506 156.499C278.094 152.731 274.726 147.607 273.937 141.782C273.536 138.827 273.781 135.755 274.835 132.954C275.682 130.704 277.02 128.691 278.659 126.94C281.87 123.509 286.015 121.13 289.91 118.576C293.807 116.019 297.795 113.141 300.059 108.948C302.539 104.353 302.615 98.5426 300.461 93.808C299.308 91.2731 297.544 89.1823 295.374 87.4526C293.011 85.5686 290.333 84.1287 287.79 82.5106C283.361 79.6928 278.603 75.5735 278.443 69.8938C278.308 65.0818 282.389 60.7311 287.028 59.945C288.211 59.7446 289.396 59.7712 290.567 60.0349C291.257 60.1901 290.965 61.2491 290.276 61.0939Z" fill="#3F3D56"/>
<path d="M367.516 29.5685L365.252 45.0788L352.874 45.3367V31.8044L367.516 29.5685Z" fill="#FFB6B6"/>
<path opacity="0.1" d="M367.516 29.5685L365.45 45.5668L353.072 45.8247V32.2925L367.516 29.5685Z" fill="black"/>
<path d="M52.9605 186.752H57.3443L57.3443 115.837H52.9605L52.9605 186.752Z" fill="#F2F2F2"/>
<path d="M70.4958 186.752H74.8796L74.8796 115.837H70.4958L70.4958 186.752Z" fill="#F2F2F2"/>
<path d="M97.8304 186.752H102.214L102.214 115.837H97.8304L97.8304 186.752Z" fill="#F2F2F2"/>
<path d="M106.082 186.752H110.466L110.466 115.837H106.082L106.082 186.752Z" fill="#F2F2F2"/>
<path d="M50.6396 114.806L44.674 83.8233C43.5772 78.1274 47.5377 72.6952 53.2961 71.9972L85.1946 68.1307C85.1946 68.1307 89.5784 103.975 89.5784 102.17C89.5784 100.365 133.03 106.683 116.784 115.708C100.538 124.734 56.6996 122.155 50.6396 114.806Z" fill="#F2F2F2"/>
<path d="M121.698 167.681L127.1 173.083L134.56 176.942L133.788 183.63L119.64 182.087L117.839 178.485L118.354 175.398L117.325 170.511L121.698 167.681Z" fill="#A0616A"/>
<path d="M132.759 181.058L133.201 175.382L148.451 182.601C148.451 182.601 149.632 185.945 145.954 186.46C142.277 186.974 117.839 186.974 117.839 185.688C117.839 184.402 117.171 177.817 117.171 177.817L131.987 182.087L132.759 181.058Z" fill="#2F2E41"/>
<path d="M102.268 152.677L98.361 159.241L96.4558 167.421L89.7833 168.318L87.7993 154.225L90.8471 151.594L93.9656 151.333L98.4499 149.134L102.268 152.677Z" fill="#A0616A"/>
<path d="M92.0235 166.688L97.6331 165.721L94.3872 182.278C94.3872 182.278 91.4362 184.245 90.0331 180.807C88.6299 177.369 82.6189 153.682 83.8656 153.366C85.1123 153.049 91.3305 150.782 91.3305 150.782L90.8363 166.193L92.0235 166.688Z" fill="#2F2E41"/>
<path d="M85.3235 29.8366L84.5499 45.5669L96.9278 45.8248V32.2925L85.3235 29.8366Z" fill="#A0616A"/>
<path opacity="0.1" d="M85.3235 29.8366L84.5499 45.5669L96.9278 45.8248V32.2925L85.3235 29.8366Z" fill="black"/>
<path d="M64.4358 94.8207C64.4358 94.8207 58.7625 109.519 62.8885 115.451C67.0145 121.382 86.355 124.734 86.355 124.734L94.3491 132.212L115.495 172.956L127.873 170.12L110.337 128.344C110.337 128.344 100.022 111.582 96.1542 109.262C92.2861 106.941 85.0834 98.2268 85.0834 98.2268L64.4358 94.8207Z" fill="#2F2E41"/>
<path d="M99.5066 96.11L107.45 101.735C107.45 101.735 135.609 109.262 126.583 126.797C117.558 144.332 104.148 156.968 104.148 156.968L92.2861 150.263L111.369 123.445L77.8452 103.073L99.5066 96.11Z" fill="#2F2E41"/>
<path d="M171.709 74.7267C175.441 75.4778 178.08 78.0126 177.601 80.3881C177.123 82.7637 173.709 84.0799 169.975 83.3281C168.48 83.0482 167.073 82.4143 165.872 81.4792L150.096 78.0972L151.45 71.8621L167.208 74.8443C168.677 74.4462 170.221 74.4059 171.709 74.7267Z" fill="#A0616A"/>
<path d="M112.137 115.019C114.865 117.675 115.706 121.235 114.016 122.971C112.325 124.707 108.744 123.961 106.015 121.304C104.91 120.257 104.072 118.962 103.571 117.525L92.1532 106.125L96.6727 101.622L108.293 112.676C109.743 113.139 111.061 113.942 112.137 115.019Z" fill="#A0616A"/>
<path d="M96.2831 40.0226H80.2361L68.4328 48.0167L69.4643 79.4772C69.4643 79.4772 71.6211 87.3775 64.3069 94.6917C59.923 99.0756 61.4702 101.654 61.4702 101.654L87.5154 103.717L103.117 99.2045L97.4436 85.0215L98.4751 80.6376C98.4751 80.6376 109.048 73.1593 107.243 65.4231C105.438 57.6869 103.117 41.6988 103.117 41.6988L96.2831 40.0226Z" fill="#CCCCCC"/>
<path d="M85.0657 86.3108L73.4614 48.1456C73.4614 48.1456 67.5303 46.0826 64.9515 51.2401C62.3728 56.3975 65.6165 76.1248 65.6165 76.1248L79.1346 98.4309L100.796 114.935L106.211 109.004L85.0657 86.3108Z" fill="#CCCCCC"/>
<path d="M134.037 66.6272L102.909 41.6812C102.909 41.6812 96.8491 43.3277 97.6331 49.0404C98.4171 54.753 112.234 69.2027 112.234 69.2027L135.986 79.9792L163.182 81.3687L164.303 73.4158L134.037 66.6272Z" fill="#CCCCCC"/>
<path d="M92.6729 37.186C98.6545 37.186 103.504 32.3369 103.504 26.3553C103.504 20.3737 98.6545 15.5246 92.6729 15.5246C86.6913 15.5246 81.8422 20.3737 81.8422 26.3553C81.8422 32.3369 86.6913 37.186 92.6729 37.186Z" fill="#A0616A"/>
<path d="M397.04 115.837H392.656V186.752H397.04V115.837Z" fill="#F2F2F2"/>
<path d="M379.504 115.837H375.12V186.752H379.504V115.837Z" fill="#F2F2F2"/>
<path d="M352.17 115.837H347.786V186.752H352.17V115.837Z" fill="#F2F2F2"/>
<path d="M343.918 115.837H339.534V186.752H343.918V115.837Z" fill="#F2F2F2"/>
<path d="M399.361 114.806L405.326 83.8233C406.423 78.1274 402.462 72.6952 396.704 71.9972L364.806 68.1307C364.806 68.1307 360.422 103.975 360.422 102.17C360.422 100.365 316.97 106.683 333.216 115.708C349.462 124.734 393.3 122.155 399.361 114.806Z" fill="#F2F2F2"/>
<path d="M328.302 167.681L322.9 173.083L315.44 176.942L316.212 183.63L330.36 182.087L332.161 178.485L331.646 175.398L332.675 170.511L328.302 167.681Z" fill="#FFB6B6"/>
<path d="M317.241 181.058L316.799 175.382L301.549 182.601C301.549 182.601 300.368 185.945 304.046 186.46C307.723 186.974 332.161 186.974 332.161 185.688C332.161 184.402 332.829 177.817 332.829 177.817L318.013 182.087L317.241 181.058Z" fill="#2F2E41"/>
<path d="M315.522 131.564L312.343 138.51L306.698 144.728L309.753 150.728L322.475 144.347L322.907 140.344L321.348 137.63L320.608 132.69L315.522 131.564Z" fill="#FFB6B6"/>
<path d="M309.821 147.958L307.427 142.793L295.652 154.877C295.652 154.877 295.712 158.423 299.338 157.623C302.964 156.822 325.867 148.299 325.419 147.094C324.97 145.889 323.3 139.484 323.3 139.484L310.903 148.653L309.821 147.958Z" fill="#2F2E41"/>
<path d="M385.564 94.8207C385.564 94.8207 391.238 109.519 387.112 115.451C382.986 121.382 363.645 124.734 363.645 124.734L355.651 132.212L334.505 172.956L322.127 170.12L339.663 128.344C339.663 128.344 349.978 111.582 353.846 109.262C357.714 106.941 364.917 98.2268 364.917 98.2268L385.564 94.8207Z" fill="#2F2E41"/>
<path d="M363.626 101.673L354.482 98.3372C354.482 98.3372 332.281 79.452 322.987 96.8468C313.694 114.242 310.923 132.457 310.923 132.457L323.183 138.403L334.395 107.457L370.215 123.452L363.626 101.673Z" fill="#2F2E41"/>
<path d="M312.074 111.421C309.623 114.335 309.14 117.961 310.994 119.521C312.849 121.08 316.338 119.982 318.79 117.067C319.785 115.916 320.491 114.544 320.847 113.064L331.076 100.587L326.132 96.5546L315.667 108.708C314.27 109.312 313.038 110.243 312.074 111.421Z" fill="#FFB6B6"/>
<path d="M337.863 115.019C335.135 117.675 334.294 121.235 335.984 122.971C337.675 124.707 341.256 123.961 343.985 121.304C345.09 120.257 345.928 118.962 346.429 117.525L357.847 106.125L353.327 101.622L341.707 112.676C340.257 113.139 338.939 113.942 337.863 115.019Z" fill="#FFB6B6"/>
<path d="M353.717 40.0226H369.764L381.567 48.0167L380.536 79.4772C380.536 79.4772 378.379 87.3775 385.693 94.6917C390.077 99.0756 388.53 101.654 388.53 101.654L362.485 103.717L346.883 99.2045L352.557 85.0215L351.525 80.6376C351.525 80.6376 340.952 73.1593 342.757 65.4231C344.562 57.6869 346.883 41.6988 346.883 41.6988L353.717 40.0226Z" fill="#AA9084"/>
<path d="M364.934 86.3108L376.539 48.1456C376.539 48.1456 382.47 46.0826 385.049 51.2401C387.627 56.3975 384.384 76.1248 384.384 76.1248L370.866 98.4309L349.204 114.935L343.789 109.004L364.934 86.3108Z" fill="#AA9084"/>
<path d="M336.487 81.6086L345.283 42.7001C345.283 42.7001 351.048 40.2109 353.996 45.1671C356.943 50.1232 355.143 70.0343 355.143 70.0343L343.284 93.2649L322.881 111.301L317.049 105.78L336.487 81.6086Z" fill="#AA9084"/>
<path d="M173.753 61.2931H170.336V186.239H173.753V61.2931Z" fill="#3F3D56"/>
<path d="M171.165 78.6595L140.172 53.2876L140.956 52.7042L171.948 78.0761L171.165 78.6595Z" fill="#3F3D56"/>
<path d="M172.777 63.4894H170.824C167.46 63.4894 164.723 60.7526 164.723 57.3885V40.7942C164.723 37.4301 167.46 34.6933 170.824 34.6933H172.777C176.141 34.6933 178.877 37.4301 178.877 40.7942V57.3885C178.877 60.7526 176.141 63.4894 172.777 63.4894Z" fill="#AA9084"/>
<path d="M139.832 62.2692C144.819 62.2692 148.861 55.6044 148.861 47.3831C148.861 39.1617 144.819 32.4969 139.832 32.4969C134.845 32.4969 130.803 39.1617 130.803 47.3831C130.803 55.6044 134.845 62.2692 139.832 62.2692Z" fill="#AA9084"/>
<path d="M172.289 55.9243C167.055 55.9243 157.158 55.2103 157.158 52.5078C157.158 51.1809 159.507 50.1967 164.138 49.5823L164.266 50.5498C159.261 51.2143 158.135 52.2109 158.135 52.5078C158.135 53.3362 163.13 54.9482 172.289 54.9482C181.447 54.9482 186.443 53.3362 186.443 52.5078C186.443 52.0908 184.719 51.0355 179.392 50.4378L179.501 49.4674C183.113 49.873 187.419 50.7295 187.419 52.5078C187.419 55.2103 177.522 55.9243 172.289 55.9243Z" fill="#3F3D56"/>
<path d="M289.913 186.239H293.33V61.2931H289.913V186.239Z" fill="#3F3D56"/>
<path d="M292.501 78.6595L323.494 53.2876L322.71 52.7042L291.718 78.0761L292.501 78.6595Z" fill="#3F3D56"/>
<path d="M284.789 57.3885V40.7941C284.789 37.43 287.525 34.6932 290.889 34.6932H292.842C296.206 34.6932 298.943 37.43 298.943 40.7941V57.3885C298.943 60.7525 296.206 63.4893 292.842 63.4893H290.889C287.525 63.4893 284.789 60.7525 284.789 57.3885Z" fill="#AA9084"/>
<path d="M323.834 62.2692C328.821 62.2692 332.863 55.6044 332.863 47.3831C332.863 39.1617 328.821 32.4969 323.834 32.4969C318.847 32.4969 314.805 39.1617 314.805 47.3831C314.805 55.6044 318.847 62.2692 323.834 62.2692Z" fill="#AA9084"/>
<path d="M291.377 55.9243C286.144 55.9243 276.247 55.2103 276.247 52.5078C276.247 50.7295 280.553 49.873 284.165 49.4673L284.274 50.4378C278.947 51.0355 277.223 52.0907 277.223 52.5078C277.223 53.3362 282.219 54.9481 291.377 54.9481C300.536 54.9481 305.531 53.3362 305.531 52.5078C305.531 52.2108 304.405 51.2142 299.4 50.5498L299.528 49.5822C304.159 50.1966 306.508 51.1808 306.508 52.5078C306.508 55.2103 296.611 55.9243 291.377 55.9243Z" fill="#3F3D56"/>
<path d="M359.231 35.8217C365.599 35.8217 370.761 30.6593 370.761 24.2911C370.761 17.923 365.599 12.7606 359.231 12.7606C352.863 12.7606 347.7 17.923 347.7 24.2911C347.7 30.6593 352.863 35.8217 359.231 35.8217Z" fill="#FFB6B6"/>
<path d="M360.151 8.78917C359.817 8.98394 359.371 8.68927 359.264 8.31804C359.157 7.94681 359.281 7.55267 359.405 7.18664L360.027 5.34397C360.468 4.0371 360.936 2.68458 361.892 1.68989C363.334 0.18856 365.627 -0.193373 367.69 0.083323C370.34 0.438652 372.954 1.87351 374.186 4.24624C375.418 6.61896 374.894 9.92977 372.668 11.4101C375.841 15.0469 376.947 19.0999 376.772 23.9232C376.597 28.7464 371.341 33.1853 367.914 36.5831C367.148 36.1191 366.452 33.9445 366.873 33.1545C367.294 32.3645 366.691 31.4493 367.212 30.7217C367.734 29.994 368.17 31.1527 367.643 30.4292C367.31 29.9726 368.608 28.9223 368.114 28.649C365.723 27.3273 364.927 24.347 363.426 22.0647C361.614 19.3118 358.514 17.4475 355.233 17.1383C353.426 16.9679 351.517 17.2765 350.036 18.3257C348.554 19.3749 347.595 21.2498 347.939 23.0323C347.049 22.129 346.606 20.8052 346.774 19.5484C346.941 18.2916 347.714 17.1295 348.808 16.4899C348.143 14.2887 348.713 11.7567 350.258 10.0534C351.803 8.35002 358.07 8.64013 360.326 9.08842" fill="#2F2E41"/>
<path d="M360.501 17.2051C363.489 17.5276 365.646 20.1153 367.467 22.505C368.517 23.8824 369.616 25.4035 369.59 27.1351C369.563 28.8858 368.393 30.3875 367.833 32.0466C366.919 34.7586 367.81 37.9852 369.987 39.8434C367.836 40.2515 365.511 38.6389 365.14 36.4814C364.708 33.9699 366.611 31.5459 366.386 29.0074C366.187 26.771 364.425 25.0498 362.927 23.3776C361.428 21.7055 360.021 19.4866 360.71 17.3498" fill="#2F2E41"/>
<path d="M87.1212 8.22303C87.1212 8.22303 82.7795 5.08742 78.9203 11.841C76.2842 16.4543 74.886 25.2317 74.2646 30.3318C73.9786 32.6791 75.1955 34.9523 77.3045 36.0217L90.9804 42.9559C90.9804 42.9559 85.9151 23.6599 92.91 20.7655C99.9048 17.871 99.6636 18.5946 99.6636 18.5946C99.6636 18.5946 105.211 30.6547 97.9752 35.9611L104.005 39.8203C104.005 39.8203 108.106 17.1474 100.628 12.8058C93.1512 8.46423 94.8396 5.32862 87.1212 8.22303Z" fill="#2F2E41"/>
<path d="M449.512 187.215H0V186.239H449.512C449.781 186.239 450 186.457 450 186.727C450 186.996 449.781 187.215 449.512 187.215Z" fill="#3F3D56"/>
</g>
<defs>
<clipPath id="clip0_412_1000">
<rect width="450" height="187.215" fill="white"/>
</clipPath>
</defs>
</svg>
