<svg width="547" height="507" viewBox="0 0 547 507" fill="none" xmlns="http://www.w3.org/2000/svg">
<path d="M515.305 239.85C565.805 350.199 360.805 541 233.805 501.5C106.805 462 132.805 408.151 25.3049 324C-82.1952 239.849 180.305 -65 298.305 42.8495C416.305 150.699 464.805 129.5 515.305 239.85Z" fill="white"/>
<g clip-path="url(#clip0_398_863)">
<path d="M466.583 445.753C468.965 446.59 471.522 446.8 474.009 446.362C476.495 445.924 478.827 444.853 480.779 443.252C485.751 439.079 487.31 432.204 488.579 425.837L492.331 407.007L484.476 412.415C478.827 416.305 473.051 420.319 469.14 425.953C465.229 431.586 463.521 439.277 466.664 445.373" fill="#E6E6E6"/>
<path d="M467.255 468.551C466.459 462.76 465.642 456.895 466.2 451.042C466.695 445.844 468.281 440.767 471.509 436.604C473.223 434.399 475.308 432.509 477.672 431.02C478.288 430.631 478.855 431.608 478.241 431.995C474.153 434.579 470.99 438.395 469.21 442.892C467.243 447.894 466.928 453.346 467.266 458.659C467.471 461.872 467.906 465.063 468.343 468.251C468.378 468.395 468.356 468.547 468.283 468.676C468.21 468.805 468.09 468.901 467.949 468.946C467.805 468.984 467.651 468.965 467.521 468.891C467.391 468.817 467.295 468.695 467.255 468.551Z" fill="#F2F2F2"/>
<path d="M474.912 458.304C475.934 459.857 477.338 461.12 478.989 461.972C480.641 462.825 482.484 463.237 484.341 463.171C489.114 462.944 493.094 459.613 496.676 456.45L507.271 447.095L500.259 446.76C495.216 446.518 490.043 446.293 485.24 447.848C480.437 449.403 476.007 453.146 475.129 458.118" fill="#E6E6E6"/>
<path d="M465.008 471.88C468.834 465.109 473.273 457.584 481.203 455.179C483.409 454.513 485.721 454.274 488.016 454.476C488.739 454.538 488.558 455.653 487.836 455.591C483.99 455.271 480.151 456.287 476.965 458.467C473.9 460.553 471.513 463.454 469.493 466.53C468.256 468.414 467.148 470.379 466.039 472.34C465.685 472.967 464.649 472.514 465.008 471.88Z" fill="#F2F2F2"/>
<path d="M370.696 424.314C366.001 425.964 360.961 426.377 356.061 425.514C351.161 424.651 346.565 422.54 342.717 419.385C332.918 411.16 329.845 397.61 327.345 385.062C324.88 372.692 322.416 360.321 319.951 347.95L335.432 358.61C346.565 366.275 357.948 374.187 365.657 385.29C373.365 396.393 376.73 411.551 370.536 423.565" fill="#E6E6E6"/>
<path d="M369.372 469.246C370.939 457.833 372.55 446.273 371.451 434.738C370.475 424.493 367.35 414.487 360.986 406.282C357.609 401.936 353.499 398.211 348.842 395.277C347.627 394.51 346.509 396.435 347.719 397.198C355.777 402.291 362.01 409.812 365.519 418.676C369.394 428.533 370.017 439.278 369.349 449.749C368.945 456.081 368.089 462.372 367.227 468.654C367.159 468.938 367.201 469.238 367.345 469.492C367.489 469.746 367.725 469.936 368.004 470.023C368.288 470.1 368.591 470.061 368.848 469.915C369.104 469.77 369.292 469.529 369.372 469.246Z" fill="#F2F2F2"/>
<path d="M354.28 449.05C352.267 452.11 349.5 454.6 346.245 456.28C342.99 457.96 339.357 458.773 335.697 458.641C326.29 458.195 318.447 451.629 311.387 445.396L290.505 426.959L304.326 426.297C314.264 425.822 324.459 425.378 333.926 428.443C343.392 431.508 352.122 438.884 353.853 448.682" fill="#E6E6E6"/>
<path d="M373.8 475.807C366.259 462.462 357.511 447.632 341.881 442.892C337.535 441.578 332.978 441.107 328.455 441.505C327.029 441.628 327.385 443.825 328.808 443.703C336.389 443.073 343.956 445.075 350.234 449.371C356.275 453.483 360.979 459.2 364.96 465.263C367.399 468.976 369.583 472.847 371.768 476.713C372.466 477.948 374.507 477.057 373.8 475.807Z" fill="#F2F2F2"/>
<path d="M315.592 295.146L250.659 281.542L249.816 281.365C249.386 281.275 248.939 281.307 248.527 281.459C248.115 281.611 247.754 281.876 247.486 282.224C247.218 282.571 247.053 282.988 247.011 283.425C246.969 283.862 247.051 284.302 247.249 284.695L273.307 336.83C273.476 337.165 273.722 337.455 274.026 337.675C274.33 337.894 274.682 338.038 275.053 338.093C275.425 338.149 275.805 338.113 276.161 337.989C276.516 337.865 276.835 337.656 277.092 337.381L294.864 318.417C294.99 318.279 295.144 318.168 295.315 318.092C295.486 318.016 295.671 317.977 295.859 317.976C296.113 317.971 296.365 318.035 296.586 318.161C296.806 318.288 296.989 318.473 297.113 318.695L300.816 325.449C301.053 325.899 301.433 326.257 301.897 326.467C302.361 326.676 302.881 326.724 303.375 326.603L303.393 326.599C303.894 326.49 304.343 326.216 304.668 325.821C304.994 325.426 305.177 324.932 305.189 324.42L305.83 308.776C305.838 308.58 305.885 308.389 305.97 308.213C306.061 308.039 306.185 307.884 306.335 307.757L316.602 299.226C316.939 298.946 317.191 298.576 317.328 298.159C317.465 297.742 317.482 297.295 317.376 296.869C317.271 296.443 317.048 296.056 316.732 295.751C316.417 295.446 316.022 295.236 315.592 295.146ZM316.009 298.51L305.741 307.04C305.608 307.149 305.486 307.273 305.38 307.409L250.55 282.934C250.502 282.912 250.452 282.895 250.4 282.883C250.189 282.83 249.965 282.852 249.769 282.946C249.572 283.04 249.415 283.2 249.324 283.397C249.233 283.595 249.213 283.819 249.27 284.029C249.326 284.24 249.454 284.424 249.631 284.55L294.789 317.31C294.561 317.43 294.356 317.588 294.183 317.778L276.411 336.741C276.256 336.906 276.065 337.03 275.852 337.104C275.64 337.179 275.412 337.201 275.189 337.168C274.966 337.136 274.754 337.05 274.572 336.918C274.389 336.787 274.241 336.613 274.14 336.411L248.081 284.276C247.965 284.04 247.917 283.777 247.943 283.515C247.969 283.254 248.068 283.005 248.228 282.797C248.389 282.589 248.604 282.43 248.851 282.339C249.097 282.247 249.364 282.227 249.622 282.28L250.486 282.461L315.399 296.06C315.656 296.115 315.894 296.24 316.083 296.423C316.273 296.606 316.407 296.838 316.471 297.094C316.534 297.349 316.525 297.618 316.443 297.868C316.361 298.119 316.211 298.341 316.009 298.51Z" fill="#CCCCCC"/>
<path d="M315.592 295.146L250.659 281.542L249.816 281.365C249.386 281.275 248.939 281.307 248.527 281.459C248.115 281.611 247.754 281.876 247.486 282.224C247.218 282.571 247.053 282.988 247.011 283.425C246.969 283.862 247.051 284.302 247.249 284.695L273.307 336.83C273.476 337.165 273.722 337.455 274.026 337.675C274.33 337.894 274.682 338.038 275.053 338.093C275.425 338.149 275.805 338.113 276.161 337.989C276.516 337.865 276.835 337.656 277.092 337.381L294.864 318.417C294.99 318.279 295.144 318.168 295.315 318.092C295.486 318.016 295.671 317.977 295.859 317.976C296.113 317.971 296.365 318.035 296.586 318.161C296.806 318.288 296.989 318.473 297.113 318.695L300.816 325.449C301.053 325.899 301.433 326.257 301.897 326.467C302.361 326.676 302.881 326.724 303.375 326.603L303.393 326.599C303.894 326.49 304.343 326.216 304.668 325.821C304.994 325.426 305.177 324.932 305.189 324.42L305.83 308.776C305.838 308.58 305.885 308.389 305.97 308.213C306.061 308.039 306.185 307.884 306.335 307.757L316.602 299.226C316.939 298.946 317.191 298.576 317.328 298.159C317.465 297.742 317.482 297.295 317.376 296.869C317.271 296.443 317.048 296.056 316.732 295.751C316.417 295.446 316.022 295.236 315.592 295.146ZM316.009 298.51L305.741 307.04C305.608 307.149 305.486 307.273 305.38 307.409C305.285 307.53 305.202 307.661 305.134 307.8C305.063 307.942 305.007 308.091 304.968 308.245L304.969 308.249C304.927 308.409 304.903 308.573 304.898 308.739L304.258 324.384C304.253 324.691 304.144 324.988 303.949 325.226C303.753 325.463 303.483 325.627 303.182 325.69L303.173 325.692C302.876 325.768 302.563 325.741 302.284 325.616C302.004 325.491 301.775 325.276 301.634 325.004L297.929 318.246C297.738 317.898 297.462 317.605 297.126 317.395C296.79 317.184 296.406 317.062 296.01 317.042L296.005 317.043C295.952 317.041 295.899 317.038 295.847 317.041C295.478 317.043 295.114 317.136 294.789 317.31C294.561 317.43 294.356 317.588 294.183 317.778L276.411 336.741C276.256 336.906 276.065 337.03 275.852 337.104C275.64 337.179 275.412 337.201 275.189 337.168C274.966 337.136 274.754 337.05 274.572 336.918C274.389 336.787 274.241 336.613 274.14 336.411L248.081 284.276C247.965 284.04 247.917 283.777 247.943 283.515C247.969 283.254 248.068 283.005 248.228 282.797C248.389 282.589 248.604 282.43 248.851 282.339C249.097 282.247 249.364 282.227 249.622 282.28L250.486 282.461L315.399 296.06C315.656 296.115 315.894 296.24 316.083 296.423C316.273 296.606 316.407 296.838 316.471 297.094C316.534 297.349 316.525 297.618 316.443 297.868C316.361 298.119 316.211 298.341 316.009 298.51Z" fill="#3F3D56"/>
<path d="M305.588 307.501L305.208 308.353L304.969 308.249L304.968 308.245L250.181 283.793L296.005 317.043L296.01 317.042L296.131 317.134L295.586 317.889L294.789 317.31L249.631 284.55C249.454 284.424 249.326 284.24 249.27 284.029C249.214 283.819 249.233 283.595 249.324 283.397C249.415 283.2 249.573 283.04 249.769 282.946C249.966 282.852 250.189 282.83 250.4 282.883C250.452 282.895 250.502 282.912 250.55 282.934L305.38 307.409L305.588 307.501Z" fill="#3F3D56"/>
<path d="M446.564 372.681L448.933 395.849L448.98 396.325L449.684 403.196L455.468 459.766V459.776L456.592 470.751C456.153 471.341 455.765 471.967 455.431 472.622C454.412 474.633 453.914 476.867 453.982 479.12C454.051 481.373 454.684 483.574 455.823 485.519C458.645 484.81 461.428 484.001 464.172 483.093C469.849 481.226 475.386 478.956 480.74 476.302C480.183 473.238 478.583 470.461 476.211 468.442L470.404 398.667L469.895 392.547L468.24 372.681H446.564Z" fill="#FFB8B8"/>
<path d="M463.172 309.579C475.149 297.603 475.149 278.185 463.172 266.209C451.196 254.232 431.778 254.232 419.802 266.209C407.825 278.185 407.825 297.603 419.802 309.579C431.778 321.555 451.196 321.555 463.172 309.579Z" fill="#FFB8B8"/>
<path d="M384.326 414.47C384.331 414.531 384.336 414.591 384.34 414.647C384.442 415.844 384.924 416.976 385.715 417.879C386.507 418.782 387.566 419.408 388.739 419.666L434.506 429.662C434.903 429.749 435.308 429.793 435.714 429.793C436.942 429.792 438.136 429.389 439.112 428.645C440.089 427.901 440.794 426.857 441.12 425.674C441.218 425.31 441.326 424.937 441.442 424.55V424.545C442.986 419.302 445.743 412.166 449.684 403.196C450.575 401.167 451.528 399.041 452.544 396.82C452.73 396.409 452.921 395.994 453.108 395.579C455.202 391.031 457.539 386.108 460.119 380.811C461.381 378.222 462.334 375.493 462.959 372.681C464.621 365.258 463.965 357.503 461.08 350.464C460.492 349.031 459.814 347.637 459.051 346.29C456.038 340.979 451.77 336.488 446.619 333.21C441.468 329.932 435.592 327.967 429.506 327.487C428.54 327.408 427.58 327.371 426.614 327.371C416.956 327.413 407.687 331.175 400.731 337.875C396.626 341.855 393.51 346.739 391.631 352.139C391.509 352.479 391.397 352.825 391.286 353.17C389.562 358.633 388.179 364.197 387.143 369.831C386.523 373.176 386.019 376.473 385.613 379.687C384.191 391.223 383.76 402.86 384.326 414.47Z" fill="#AA9084"/>
<path d="M364.171 473.074C391.976 488.878 424.81 493.337 455.823 485.519C458.645 484.81 461.428 484.001 464.172 483.093C461.737 475.155 458.831 467.368 455.468 459.776V459.766C449.862 447.196 444.712 439.504 442.203 436.108C441.79 435.546 441.518 434.893 441.411 434.204C441.303 433.515 441.361 432.81 441.582 432.148L442.361 429.811C442.658 428.927 442.729 427.983 442.568 427.064C442.408 426.145 442.021 425.281 441.442 424.55V424.545C441.391 424.48 441.335 424.414 441.279 424.349C420.891 401.12 385.348 413.794 384.988 413.924L384.811 413.989L384.699 414.143C384.578 414.311 384.457 414.475 384.34 414.647C374.703 428.151 368.299 448.908 364.171 473.074Z" fill="#2F2E41"/>
<path d="M322.263 323.517C322.416 324.191 322.516 324.876 322.562 325.565L376.2 356.509L389.237 349.003L403.136 367.199L381.347 382.729C379.586 383.983 377.467 384.633 375.306 384.58C373.145 384.528 371.059 383.775 369.362 382.437L314.052 338.802C311.556 339.726 308.838 339.868 306.259 339.21C303.68 338.551 301.363 337.123 299.615 335.115C297.868 333.108 296.773 330.616 296.477 327.97C296.18 325.325 296.696 322.653 297.956 320.308C299.215 317.963 301.159 316.057 303.528 314.844C305.897 313.631 308.579 313.168 311.218 313.516C313.857 313.865 316.327 315.008 318.3 316.795C320.273 318.581 321.655 320.926 322.263 323.517Z" fill="#FFB8B8"/>
<path d="M377.022 356.034V356.038C377.216 356.741 377.546 357.398 377.992 357.974L387.143 369.831L391.505 375.489L395.33 380.443C395.823 381.082 396.448 381.607 397.162 381.983C397.877 382.359 398.664 382.577 399.47 382.621C400.276 382.665 401.082 382.535 401.833 382.24C402.585 381.944 403.263 381.491 403.824 380.909L417.714 366.487L423.447 360.53C426.704 357.989 428.82 354.259 429.332 350.16C429.843 346.06 428.708 341.925 426.175 338.661C423.642 335.397 419.919 333.27 415.82 332.748C411.722 332.226 407.584 333.35 404.313 335.874L400.731 337.875L379.699 349.639C378.603 350.253 377.744 351.216 377.259 352.375C376.774 353.534 376.69 354.822 377.022 356.034Z" fill="#AA9084"/>
<path d="M437.687 363.469L438.564 391.479L438.569 391.656C438.594 392.463 438.792 393.256 439.151 393.98C439.51 394.703 440.021 395.341 440.649 395.849C441.277 396.357 442.007 396.724 442.789 396.925C443.572 397.125 444.388 397.155 445.183 397.011L448.98 396.325L449.95 396.148H449.955L453.108 395.579L469.895 392.547L473.109 391.969C473.903 391.824 474.657 391.511 475.319 391.049C475.982 390.587 476.537 389.989 476.947 389.293C477.357 388.598 477.613 387.823 477.697 387.02C477.781 386.217 477.691 385.406 477.433 384.641L468.379 357.834C467.622 353.773 465.286 350.179 461.883 347.838C458.479 345.497 454.287 344.602 450.224 345.348C446.161 346.093 442.56 348.42 440.21 351.817C437.86 355.214 436.953 359.404 437.687 363.469Z" fill="#AA9084"/>
<path d="M436.633 280.84C428.751 286.235 418.401 291.78 410.351 286.035C405.065 282.263 403.399 275.278 405.543 269.148C409.398 258.124 419.989 253.271 430.116 249.551C443.282 244.715 457.618 240.868 471.21 244.331C484.802 247.794 496.814 260.954 494.36 274.764C492.387 285.869 481.912 295.11 483.399 306.291C484.895 317.544 497.55 323.467 508.723 325.478C519.895 327.489 532.397 328.135 540.426 336.16C550.669 346.398 548.111 364.696 538.473 375.504C528.835 386.313 514.291 391.212 500.198 394.543C481.525 398.956 461.33 401.275 443.595 393.951C425.861 386.627 412.06 366.913 417.198 348.426C419.368 340.618 424.48 334.018 429.42 327.594C434.36 321.169 439.363 314.451 441.247 306.568C442.818 299.999 441.655 292.373 437.299 287.446C436.507 286.583 436.009 285.492 435.875 284.328C435.742 283.165 435.981 281.989 436.557 280.97L436.633 280.84Z" fill="#2F2E41"/>
</g>
<g clip-path="url(#clip1_398_863)">
<path d="M55.4757 89.472L41.0104 81.3247C40.8153 72.6078 42.751 63.975 46.6494 56.176C49.9844 71.3129 67.5355 78.5146 75.6334 91.731C78.1275 95.8724 79.6576 100.522 80.1104 105.335C80.5633 110.148 79.9272 115.002 78.2493 119.536L79.2007 131.272C71.7245 129.033 64.8227 125.199 58.9707 120.036C53.1188 114.872 48.4557 108.502 45.303 101.362C43.5739 97.3399 42.3583 93.1156 41.6849 88.7893C48.4292 89.507 55.4757 89.472 55.4757 89.472Z" fill="#F2F2F2"/>
<path d="M315.513 237.695L315.956 227.722C320.58 225.25 325.737 223.945 330.98 223.919C323.765 229.818 324.666 241.19 319.774 249.124C318.229 251.587 316.15 253.67 313.691 255.22C311.231 256.77 308.454 257.746 305.566 258.077L299.528 261.775C298.699 257.155 298.882 252.411 300.063 247.869C301.244 243.328 303.396 239.096 306.371 235.466C308.059 233.446 309.996 231.647 312.134 230.111C313.58 233.924 315.513 237.695 315.513 237.695Z" fill="#F2F2F2"/>
<path d="M299.954 256.642L294.486 256.642L291.884 235.551L299.955 235.552L299.954 256.642Z" fill="#FFB6B6"/>
<path d="M301.348 261.942L283.718 261.941V261.718C283.718 259.899 284.441 258.153 285.728 256.866C287.014 255.579 288.76 254.856 290.58 254.856L293.801 252.413L299.809 254.857L301.348 254.857L301.348 261.942Z" fill="#2F2E41"/>
<path d="M274.551 256.642L269.083 256.642L266.482 235.551L274.552 235.552L274.551 256.642Z" fill="#FFB6B6"/>
<path d="M275.946 261.942L258.315 261.941V261.718C258.315 259.899 259.038 258.153 260.325 256.866C261.612 255.579 263.357 254.856 265.177 254.856L268.398 252.413L274.407 254.857L275.946 254.857L275.946 261.942Z" fill="#2F2E41"/>
<path d="M272.184 141.34L307.749 142.23C314.504 145.898 314.607 153.839 312.393 163.266C312.393 163.266 313.141 168.87 311.646 170.364C310.152 171.858 309.405 171.858 310.152 174.473C310.899 177.088 306.952 181.359 307.431 181.839C307.911 182.318 309.031 184.933 309.031 184.933L305.296 206.227C305.296 206.227 302.681 243.21 301.934 243.957C301.186 244.704 300.439 243.957 301.186 245.825C301.934 247.692 302.681 246.945 301.934 247.692C301.272 248.406 300.648 249.154 300.066 249.934H291.034C291.034 249.934 290.353 246.198 290.353 245.825C290.353 245.451 289.606 243.21 289.606 242.836C289.606 242.463 290.266 241.802 290.266 241.802C290.494 241.043 290.649 240.263 290.727 239.474C290.727 238.727 292.968 209.962 292.968 209.962L288.485 172.606L277.652 209.215C277.652 209.215 277.652 241.342 276.905 242.089C276.157 242.836 276.157 242.463 276.531 243.957C276.905 245.451 278.399 245.077 277.278 246.198C276.157 247.319 275.784 245.451 276.157 247.319L276.531 249.187L265.324 249.347C265.324 249.347 263.83 246.198 264.577 245.077C265.324 243.957 265.279 244.263 264.368 242.429C263.456 240.595 263.083 240.221 263.456 239.848C263.83 239.474 263.83 237.487 263.83 237.487L265.698 201.744C265.698 201.744 266.071 164.014 266.071 162.893C266.099 162.316 265.993 161.741 265.761 161.212V159.691L267.192 154.301L272.184 141.34Z" fill="#2F2E41"/>
<path d="M293.549 67.3883C299.652 67.3883 304.599 62.4409 304.599 56.338C304.599 50.2351 299.652 45.2877 293.549 45.2877C287.446 45.2877 282.498 50.2351 282.498 56.338C282.498 62.4409 287.446 67.3883 293.549 67.3883Z" fill="#FFB6B6"/>
<path d="M288.024 74.6918C285.643 76.1071 284.219 78.7075 283.401 81.3536C281.888 86.2527 280.977 91.3179 280.688 96.4372L279.825 111.764L269.131 144.398C278.399 152.24 313.236 146.18 313.236 146.18C313.236 146.18 314.306 145.824 313.236 144.755C312.167 143.685 311.126 144.633 312.195 143.563C313.264 142.494 312.527 143.685 312.171 142.616C311.814 141.546 312.171 142.259 312.527 141.903C312.884 141.546 309.768 138.338 309.768 138.338L312.619 119.606L316.184 81.8209C311.906 76.474 303.304 73.3221 303.304 73.3221L301.081 69.321L289.967 70.2101L288.024 74.6918Z" fill="#E6E6E6"/>
<path d="M286.508 49.8528C286.936 49.8562 287.361 49.912 287.775 50.0191C288.591 50.2153 289.42 50.3543 290.255 50.435C292.814 50.6757 295.217 51.7667 297.083 53.5337C298.948 55.3007 300.167 57.6419 300.546 60.1833C301.188 59.6235 302.649 58.5937 303.847 59.5507C303.865 59.5659 303.876 59.5738 303.918 59.5538C304.713 59.1765 306.125 54.5325 306.168 50.4435C306.19 48.2732 305.849 45.5018 304.094 44.6242L304.001 44.578L303.977 44.4775C303.859 43.9893 302.549 43.1559 300.272 42.5073C296.134 41.3286 289.965 39.0325 286.492 42.4116C286.229 43.5508 285.374 45.9887 284.51 46.265C283.553 46.5709 282.727 46.8349 282.597 48.0083C282.488 49.6783 282.496 51.3538 282.62 53.0227C282.944 52.0015 283.581 51.1077 284.44 50.4671C285.05 50.056 285.772 49.8417 286.508 49.8528Z" fill="#2F2E41"/>
<path d="M265.94 110.911L283.991 99.3504L274.899 87.2648L265.922 98.3077L237.951 100.023C237.215 99.296 236.283 98.7986 235.27 98.5915C234.256 98.3845 233.204 98.4768 232.242 98.8572C231.28 99.2377 230.45 99.8898 229.852 100.734C229.254 101.578 228.915 102.578 228.876 103.612C228.837 104.646 229.099 105.669 229.631 106.556C230.163 107.443 230.942 108.156 231.872 108.609C232.802 109.061 233.844 109.233 234.871 109.103C235.897 108.974 236.863 108.548 237.652 107.879L265.94 110.911Z" fill="#FFB6B6"/>
<path d="M300.744 83.2146C301.792 89.5549 282.008 101.662 282.008 101.662C282.008 100.174 270.2 111.408 269.667 110.174C268.152 106.666 267.087 98.3582 264.97 97.0284C263.759 96.2679 272.261 89.1237 272.261 89.1237C272.261 89.1237 276.71 84.6408 282.55 78.9862C284.171 77.357 286.178 76.1645 288.385 75.5196C290.591 74.8747 292.924 74.7985 295.168 75.2981C295.168 75.2981 299.697 76.8744 300.744 83.2146Z" fill="#E6E6E6"/>
<path d="M337.95 113.945L326.01 96.143L314.12 105.488L325.35 114.23L327.658 142.159C326.946 142.91 326.469 143.851 326.283 144.869C326.097 145.887 326.212 146.937 326.613 147.89C327.014 148.844 327.683 149.661 328.54 150.24C329.397 150.82 330.404 151.138 331.438 151.155C332.472 151.173 333.489 150.889 334.365 150.338C335.241 149.787 335.937 148.994 336.37 148.054C336.802 147.114 336.952 146.069 336.801 145.046C336.65 144.022 336.204 143.065 335.518 142.291L337.95 113.945Z" fill="#FFB6B6"/>
<path d="M309.523 79.735C315.84 78.5533 328.363 98.0766 328.363 98.0766C326.875 98.1084 338.357 109.676 337.135 110.235C333.66 111.824 325.376 113.064 324.091 115.209C323.357 116.435 316.034 108.087 316.034 108.087C316.034 108.087 311.458 103.733 305.681 98.0149C304.018 96.4285 302.783 94.4471 302.092 92.2551C301.4 90.0631 301.275 87.7318 301.727 85.4782C301.727 85.4782 303.207 80.9166 309.523 79.735Z" fill="#E6E6E6"/>
<path d="M341 262.03C341 262.099 340.987 262.168 340.96 262.233C340.934 262.297 340.895 262.355 340.846 262.405C340.796 262.454 340.738 262.493 340.674 262.519C340.609 262.546 340.54 262.559 340.471 262.559H215.864C215.724 262.559 215.589 262.503 215.49 262.404C215.391 262.305 215.335 262.17 215.335 262.03C215.335 261.89 215.391 261.755 215.49 261.656C215.589 261.557 215.724 261.501 215.864 261.501H340.471C340.54 261.501 340.609 261.514 340.674 261.541C340.738 261.567 340.796 261.606 340.846 261.655C340.895 261.705 340.934 261.763 340.96 261.827C340.987 261.892 341 261.96 341 262.03Z" fill="#CCCCCC"/>
<path d="M225.566 101.713H74.3387C71.976 101.715 69.7108 102.655 68.0401 104.326C66.3694 105.997 65.4297 108.262 65.427 110.624V204.778C65.4297 207.141 66.3695 209.406 68.0401 211.076C69.7108 212.747 71.976 213.687 74.3387 213.689H225.566C227.929 213.687 230.194 212.747 231.865 211.076C233.535 209.406 234.475 207.141 234.478 204.778V110.624C234.475 108.262 233.535 105.997 231.865 104.326C230.194 102.655 227.929 101.715 225.566 101.713Z" fill="#AA9084"/>
<path d="M225.566 101.713H74.3387C71.976 101.715 69.7108 102.655 68.0401 104.326C66.3694 105.997 65.4297 108.262 65.427 110.624V204.778C65.4297 207.141 66.3695 209.406 68.0401 211.076C69.7108 212.747 71.976 213.687 74.3387 213.689H225.566C227.929 213.687 230.194 212.747 231.865 211.076C233.535 209.406 234.475 207.141 234.478 204.778V110.624C234.475 108.262 233.535 105.997 231.865 104.326C230.194 102.655 227.929 101.715 225.566 101.713ZM228.491 169.344C228.454 178.93 224.663 188.119 217.929 194.941C211.196 201.763 202.057 205.674 192.473 205.836C177.128 206.036 200.963 206.113 182.456 206.113C140.137 206.113 96.0094 205.709 79.545 205.447C77.3788 205.402 75.3159 204.512 73.7967 202.968C72.2775 201.423 71.4225 199.345 71.4141 197.179V110.631C71.415 109.856 71.7231 109.112 72.271 108.562C72.819 108.013 73.5622 107.703 74.338 107.7H225.56C226.336 107.701 227.079 108.009 227.629 108.557C228.178 109.105 228.488 109.848 228.491 110.624V169.344Z" fill="#3F3D56"/>
<path d="M206.95 47.4963H91.7308C90.7114 47.4977 89.7172 47.8138 88.8841 48.4013C88.051 48.9888 87.4195 49.8191 87.0758 50.7789L69.2809 100.703C69.0153 101.449 68.9325 102.247 69.0395 103.03C69.1464 103.814 69.4399 104.561 69.8953 105.208C70.3508 105.855 70.9548 106.383 71.6568 106.747C72.3587 107.112 73.1379 107.303 73.929 107.305L228.457 107.579H228.464C229.282 107.579 230.087 107.376 230.807 106.988C231.527 106.6 232.139 106.04 232.59 105.357C233.04 104.675 233.313 103.891 233.386 103.076C233.459 102.262 233.328 101.442 233.006 100.69L211.492 50.4915C211.112 49.6021 210.479 48.844 209.671 48.3115C208.864 47.779 207.918 47.4955 206.95 47.4963Z" fill="#3F3D56"/>
<path d="M233.406 101.774C233.406 102.444 233.27 103.106 233.006 103.721L211.494 142.363C211.111 143.25 210.477 144.007 209.669 144.538C208.862 145.07 207.917 145.354 206.95 145.355H91.7326C90.7128 145.354 89.7181 145.038 88.8843 144.451C88.0505 143.864 87.4182 143.034 87.0736 142.074L69.2821 103.708C69.064 103.097 68.9686 102.449 69.0011 101.801C69.0337 101.152 69.1937 100.517 69.472 99.9307C69.7503 99.3445 70.1414 98.8188 70.6229 98.3837C71.1045 97.9487 71.667 97.6128 72.2785 97.3953C72.8074 97.2044 73.3655 97.1066 73.9278 97.1064L92.804 97.0708L100.508 97.0575L201.887 96.8797L209.595 96.8663L228.458 96.8307H228.463C229.774 96.831 231.031 97.3519 231.958 98.2789C232.885 99.206 233.406 100.463 233.406 101.774Z" fill="#3F3D56"/>
<path d="M85.6758 172.339C87.9606 172.339 119.336 174.256 119.336 176.541C119.336 178.826 87.9606 180.613 85.6758 180.613C84.5787 180.613 83.5264 180.177 82.7506 179.401C81.9748 178.625 81.5389 177.573 81.5389 176.476C81.5389 175.378 81.9748 174.326 82.7506 173.55C83.5264 172.775 84.5787 172.339 85.6758 172.339Z" fill="#3F3D56"/>
<path d="M199.775 17.1249H102.624C100.021 17.1279 97.5247 18.1635 95.6837 20.0045C93.8426 21.8456 92.807 24.3417 92.804 26.9453V145.355H206.95C207.888 145.358 208.806 145.091 209.595 144.586V26.9453C209.592 24.3417 208.557 21.8456 206.716 20.0045C204.875 18.1635 202.379 17.1279 199.775 17.1249Z" fill="#E6E6E6"/>
<path d="M162.694 25.087H109.453C107.082 25.0893 104.809 26.0318 103.132 27.7078C101.455 29.3838 100.512 31.6564 100.508 34.0272V145.355H201.887V64.2798C201.875 53.8889 197.742 43.927 190.394 36.5795C183.047 29.232 173.085 25.099 162.694 25.087Z" fill="white"/>
<path d="M184.615 135.468H117.78C117.202 135.468 116.648 135.697 116.239 136.106C115.831 136.514 115.601 137.068 115.601 137.646C115.601 138.224 115.831 138.778 116.239 139.187C116.648 139.595 117.202 139.825 117.78 139.825H184.615C185.193 139.825 185.747 139.595 186.156 139.187C186.564 138.778 186.794 138.224 186.794 137.646C186.794 137.068 186.564 136.514 186.156 136.106C185.747 135.697 185.193 135.468 184.615 135.468Z" fill="#E4E4E4"/>
<path d="M184.615 126.852H117.78C117.201 126.852 116.647 127.082 116.238 127.491C115.829 127.9 115.599 128.454 115.599 129.033C115.599 129.611 115.829 130.166 116.238 130.575C116.647 130.984 117.201 131.213 117.78 131.213H184.615C185.194 131.213 185.748 130.984 186.157 130.575C186.566 130.166 186.796 129.611 186.796 129.033C186.796 128.454 186.566 127.9 186.157 127.491C185.748 127.082 185.194 126.852 184.615 126.852Z" fill="#E4E4E4"/>
<path d="M146.752 118.241H117.78C117.202 118.241 116.648 118.47 116.239 118.879C115.831 119.288 115.601 119.842 115.601 120.419C115.601 120.997 115.831 121.551 116.239 121.96C116.648 122.368 117.202 122.598 117.78 122.598H146.752C147.33 122.598 147.884 122.368 148.292 121.96C148.701 121.551 148.93 120.997 148.93 120.419C148.93 119.842 148.701 119.288 148.292 118.879C147.884 118.47 147.33 118.241 146.752 118.241Z" fill="#E4E4E4"/>
<path d="M184.615 100.201H117.78C117.201 100.201 116.647 100.43 116.238 100.839C115.829 101.248 115.599 101.803 115.599 102.381C115.599 102.959 115.829 103.514 116.238 103.923C116.647 104.332 117.201 104.562 117.78 104.562H184.615C185.194 104.562 185.748 104.332 186.157 103.923C186.566 103.514 186.796 102.959 186.796 102.381C186.796 101.803 186.566 101.248 186.157 100.839C185.748 100.43 185.194 100.201 184.615 100.201Z" fill="#E4E4E4"/>
<path d="M184.615 91.5894H117.78C117.202 91.5894 116.648 91.8189 116.239 92.2274C115.831 92.6359 115.601 93.19 115.601 93.7677C115.601 94.3455 115.831 94.8995 116.239 95.308C116.648 95.7166 117.202 95.9461 117.78 95.9461H184.615C185.193 95.9461 185.747 95.7166 186.156 95.308C186.564 94.8995 186.794 94.3455 186.794 93.7677C186.794 93.19 186.564 92.6359 186.156 92.2274C185.747 91.8189 185.193 91.5894 184.615 91.5894Z" fill="#E4E4E4"/>
<path d="M146.752 82.9737H117.78C117.201 82.9737 116.647 83.2034 116.238 83.6124C115.829 84.0213 115.599 84.576 115.599 85.1543C115.599 85.7326 115.829 86.2872 116.238 86.6962C116.647 87.1051 117.201 87.3349 117.78 87.3349H146.752C147.33 87.3349 147.885 87.1051 148.294 86.6962C148.703 86.2872 148.932 85.7326 148.932 85.1543C148.932 84.576 148.703 84.0213 148.294 83.6124C147.885 83.2034 147.33 82.9737 146.752 82.9737Z" fill="#E4E4E4"/>
<path d="M184.615 64.9333H117.78C117.201 64.9333 116.647 65.163 116.238 65.572C115.829 65.9809 115.599 66.5355 115.599 67.1139C115.599 67.6922 115.829 68.2468 116.238 68.6558C116.647 69.0647 117.201 69.2945 117.78 69.2945H184.615C185.194 69.2945 185.748 69.0647 186.157 68.6558C186.566 68.2468 186.796 67.6922 186.796 67.1139C186.796 66.5355 186.566 65.9809 186.157 65.572C185.748 65.163 185.194 64.9333 184.615 64.9333Z" fill="#AA9084"/>
<path d="M184.615 56.3221H117.78C117.201 56.3221 116.647 56.5518 116.238 56.9608C115.829 57.3697 115.599 57.9243 115.599 58.5027C115.599 59.081 115.829 59.6356 116.238 60.0446C116.647 60.4535 117.201 60.6833 117.78 60.6833H184.615C185.194 60.6833 185.748 60.4535 186.157 60.0446C186.566 59.6356 186.796 59.081 186.796 58.5027C186.796 57.9243 186.566 57.3697 186.157 56.9608C185.748 56.5518 185.194 56.3221 184.615 56.3221Z" fill="#AA9084"/>
<path d="M146.752 47.7064H117.78C117.201 47.7064 116.647 47.9362 116.238 48.3451C115.829 48.754 115.599 49.3087 115.599 49.887C115.599 50.4653 115.829 51.02 116.238 51.4289C116.647 51.8379 117.201 52.0676 117.78 52.0676H146.752C147.33 52.0676 147.885 51.8379 148.294 51.4289C148.703 51.02 148.932 50.4653 148.932 49.887C148.932 49.3087 148.703 48.754 148.294 48.3451C147.885 47.9362 147.33 47.7064 146.752 47.7064Z" fill="#AA9084"/>
<path d="M205.953 33.9316C215.323 33.9316 222.919 26.3358 222.919 16.9658C222.919 7.59586 215.323 0 205.953 0C196.583 0 188.987 7.59586 188.987 16.9658C188.987 26.3358 196.583 33.9316 205.953 33.9316Z" fill="#AA9084"/>
<path d="M203.639 25.7957C203.346 25.7957 203.057 25.7275 202.795 25.5964C202.533 25.4654 202.305 25.2751 202.129 25.0407L197.501 18.8692C197.351 18.671 197.242 18.4452 197.18 18.2049C197.118 17.9645 197.104 17.7142 197.139 17.4684C197.173 17.2226 197.256 16.9861 197.383 16.7724C197.509 16.5586 197.676 16.372 197.875 16.223C198.074 16.0741 198.3 15.9658 198.54 15.9043C198.781 15.8429 199.031 15.8295 199.277 15.865C199.522 15.9004 199.759 15.984 199.972 16.1109C200.186 16.2379 200.372 16.4057 200.52 16.6047L203.548 20.6419L211.326 8.97595C211.603 8.55949 212.035 8.27038 212.526 8.17222C213.017 8.07405 213.526 8.17489 213.943 8.45253C214.359 8.73017 214.648 9.16189 214.747 9.6527C214.845 10.1435 214.744 10.6532 214.466 11.0697L205.209 24.9553C205.042 25.2064 204.816 25.4137 204.552 25.5599C204.288 25.706 203.993 25.7867 203.691 25.7951C203.674 25.7954 203.656 25.7957 203.639 25.7957Z" fill="white"/>
</g>
<defs>
<clipPath id="clip0_398_863">
<rect width="300" height="246.283" fill="white" transform="translate(247 243)"/>
</clipPath>
<clipPath id="clip1_398_863">
<rect width="300" height="262.559" fill="white" transform="translate(41)"/>
</clipPath>
</defs>
</svg>
