<svg width="300" height="263" viewBox="0 0 300 263" fill="none" xmlns="http://www.w3.org/2000/svg">
<g clip-path="url(#clip0_412_865)">
<path d="M14.4757 89.472L0.0104261 81.3247C-0.184694 72.6078 1.75098 63.975 5.64936 56.176C8.98439 71.3129 26.5355 78.5146 34.6334 91.731C37.1275 95.8724 38.6576 100.522 39.1104 105.335C39.5633 110.148 38.9272 115.002 37.2493 119.536L38.2007 131.272C30.7245 129.033 23.8227 125.199 17.9707 120.036C12.1188 114.872 7.45573 108.502 4.30295 101.362C2.57393 97.3399 1.35835 93.1156 0.684897 88.7893C7.42922 89.507 14.4757 89.472 14.4757 89.472Z" fill="#F2F2F2"/>
<path d="M274.513 237.695L274.956 227.722C279.58 225.25 284.737 223.945 289.98 223.919C282.765 229.818 283.666 241.19 278.774 249.124C277.229 251.587 275.15 253.67 272.691 255.22C270.231 256.77 267.454 257.746 264.566 258.077L258.528 261.775C257.699 257.155 257.882 252.411 259.063 247.869C260.244 243.328 262.396 239.096 265.371 235.466C267.059 233.446 268.996 231.647 271.134 230.111C272.58 233.924 274.513 237.695 274.513 237.695Z" fill="#F2F2F2"/>
<path d="M258.954 256.642L253.486 256.642L250.884 235.551L258.955 235.552L258.954 256.642Z" fill="#FFB6B6"/>
<path d="M260.348 261.942L242.718 261.941V261.718C242.718 259.899 243.441 258.153 244.728 256.866C246.014 255.579 247.76 254.856 249.58 254.856L252.801 252.413L258.809 254.857L260.348 254.857L260.348 261.942Z" fill="#2F2E41"/>
<path d="M233.551 256.642L228.083 256.642L225.482 235.551L233.552 235.552L233.551 256.642Z" fill="#FFB6B6"/>
<path d="M234.946 261.942L217.315 261.941V261.718C217.315 259.899 218.038 258.153 219.325 256.866C220.612 255.579 222.357 254.856 224.177 254.856L227.398 252.413L233.407 254.857L234.946 254.857L234.946 261.942Z" fill="#2F2E41"/>
<path d="M231.184 141.34L266.749 142.23C273.504 145.898 273.607 153.839 271.393 163.266C271.393 163.266 272.141 168.87 270.646 170.364C269.152 171.858 268.405 171.858 269.152 174.473C269.899 177.088 265.952 181.359 266.431 181.839C266.911 182.318 268.031 184.933 268.031 184.933L264.296 206.227C264.296 206.227 261.681 243.21 260.934 243.957C260.186 244.704 259.439 243.957 260.186 245.825C260.934 247.692 261.681 246.945 260.934 247.692C260.272 248.406 259.648 249.154 259.066 249.934H250.034C250.034 249.934 249.353 246.198 249.353 245.825C249.353 245.451 248.606 243.21 248.606 242.836C248.606 242.463 249.266 241.802 249.266 241.802C249.494 241.043 249.649 240.263 249.727 239.474C249.727 238.727 251.968 209.962 251.968 209.962L247.485 172.606L236.652 209.215C236.652 209.215 236.652 241.342 235.905 242.089C235.157 242.836 235.157 242.463 235.531 243.957C235.905 245.451 237.399 245.077 236.278 246.198C235.157 247.319 234.784 245.451 235.157 247.319L235.531 249.187L224.324 249.347C224.324 249.347 222.83 246.198 223.577 245.077C224.324 243.957 224.279 244.263 223.368 242.429C222.456 240.595 222.083 240.221 222.456 239.848C222.83 239.474 222.83 237.487 222.83 237.487L224.698 201.744C224.698 201.744 225.071 164.014 225.071 162.893C225.099 162.316 224.993 161.741 224.761 161.212V159.691L226.192 154.301L231.184 141.34Z" fill="#2F2E41"/>
<path d="M252.549 67.3883C258.652 67.3883 263.599 62.4409 263.599 56.338C263.599 50.2351 258.652 45.2877 252.549 45.2877C246.446 45.2877 241.498 50.2351 241.498 56.338C241.498 62.4409 246.446 67.3883 252.549 67.3883Z" fill="#FFB6B6"/>
<path d="M247.024 74.6918C244.643 76.1071 243.219 78.7075 242.401 81.3536C240.888 86.2527 239.977 91.3179 239.688 96.4372L238.825 111.764L228.131 144.398C237.399 152.24 272.236 146.18 272.236 146.18C272.236 146.18 273.306 145.824 272.236 144.755C271.167 143.685 270.126 144.633 271.195 143.563C272.264 142.494 271.527 143.685 271.171 142.616C270.814 141.546 271.171 142.259 271.527 141.903C271.884 141.546 268.768 138.338 268.768 138.338L271.619 119.606L275.184 81.8209C270.906 76.474 262.304 73.3221 262.304 73.3221L260.081 69.321L248.967 70.2101L247.024 74.6918Z" fill="#E6E6E6"/>
<path d="M245.508 49.8528C245.936 49.8562 246.361 49.912 246.775 50.0191C247.591 50.2153 248.42 50.3543 249.255 50.435C251.814 50.6757 254.217 51.7667 256.083 53.5337C257.948 55.3007 259.167 57.6419 259.546 60.1833C260.188 59.6235 261.649 58.5937 262.847 59.5507C262.865 59.5659 262.876 59.5738 262.918 59.5538C263.713 59.1765 265.125 54.5325 265.168 50.4435C265.19 48.2732 264.849 45.5018 263.094 44.6242L263.001 44.578L262.977 44.4775C262.859 43.9893 261.549 43.1559 259.272 42.5073C255.134 41.3286 248.965 39.0325 245.492 42.4116C245.229 43.5508 244.374 45.9887 243.51 46.265C242.553 46.5709 241.727 46.8349 241.597 48.0083C241.488 49.6783 241.496 51.3538 241.62 53.0227C241.944 52.0015 242.581 51.1077 243.44 50.4671C244.05 50.056 244.772 49.8417 245.508 49.8528Z" fill="#2F2E41"/>
<path d="M224.94 110.911L242.991 99.3504L233.899 87.2648L224.922 98.3077L196.951 100.023C196.215 99.296 195.283 98.7986 194.27 98.5915C193.256 98.3845 192.204 98.4768 191.242 98.8572C190.28 99.2377 189.45 99.8898 188.852 100.734C188.254 101.578 187.915 102.578 187.876 103.612C187.837 104.646 188.099 105.669 188.631 106.556C189.163 107.443 189.942 108.156 190.872 108.609C191.802 109.061 192.844 109.233 193.871 109.103C194.897 108.974 195.863 108.548 196.652 107.879L224.94 110.911Z" fill="#FFB6B6"/>
<path d="M259.744 83.2146C260.792 89.5549 241.008 101.662 241.008 101.662C241.008 100.174 229.2 111.408 228.667 110.174C227.152 106.666 226.087 98.3582 223.97 97.0284C222.759 96.2679 231.261 89.1237 231.261 89.1237C231.261 89.1237 235.71 84.6408 241.55 78.9862C243.171 77.357 245.178 76.1645 247.385 75.5196C249.591 74.8747 251.924 74.7985 254.168 75.2981C254.168 75.2981 258.697 76.8744 259.744 83.2146Z" fill="#E6E6E6"/>
<path d="M296.95 113.945L285.01 96.143L273.12 105.488L284.35 114.23L286.658 142.159C285.946 142.91 285.469 143.851 285.283 144.869C285.097 145.887 285.212 146.937 285.613 147.89C286.014 148.844 286.683 149.661 287.54 150.24C288.397 150.82 289.404 151.138 290.438 151.155C291.472 151.173 292.489 150.889 293.365 150.338C294.241 149.787 294.937 148.994 295.37 148.054C295.802 147.114 295.952 146.069 295.801 145.046C295.65 144.022 295.204 143.065 294.518 142.291L296.95 113.945Z" fill="#FFB6B6"/>
<path d="M268.523 79.735C274.84 78.5533 287.363 98.0766 287.363 98.0766C285.875 98.1084 297.357 109.676 296.135 110.235C292.66 111.824 284.376 113.064 283.091 115.209C282.357 116.435 275.034 108.087 275.034 108.087C275.034 108.087 270.458 103.733 264.681 98.0149C263.018 96.4285 261.783 94.4471 261.092 92.2551C260.4 90.0631 260.275 87.7318 260.727 85.4782C260.727 85.4782 262.207 80.9166 268.523 79.735Z" fill="#E6E6E6"/>
<path d="M300 262.03C300 262.099 299.987 262.168 299.96 262.233C299.934 262.297 299.895 262.355 299.846 262.405C299.796 262.454 299.738 262.493 299.674 262.519C299.609 262.546 299.54 262.559 299.471 262.559H174.864C174.724 262.559 174.589 262.503 174.49 262.404C174.391 262.305 174.335 262.17 174.335 262.03C174.335 261.89 174.391 261.755 174.49 261.656C174.589 261.557 174.724 261.501 174.864 261.501H299.471C299.54 261.501 299.609 261.514 299.674 261.541C299.738 261.567 299.796 261.606 299.846 261.655C299.895 261.705 299.934 261.763 299.96 261.827C299.987 261.892 300 261.96 300 262.03Z" fill="#CCCCCC"/>
<path d="M184.566 101.713H33.3387C30.976 101.715 28.7108 102.655 27.0401 104.326C25.3694 105.997 24.4297 108.262 24.427 110.624V204.778C24.4297 207.141 25.3695 209.406 27.0401 211.076C28.7108 212.747 30.976 213.687 33.3387 213.689H184.566C186.929 213.687 189.194 212.747 190.865 211.076C192.535 209.406 193.475 207.141 193.478 204.778V110.624C193.475 108.262 192.535 105.997 190.865 104.326C189.194 102.655 186.929 101.715 184.566 101.713Z" fill="#AA9084"/>
<path d="M184.566 101.713H33.3387C30.976 101.715 28.7108 102.655 27.0401 104.326C25.3694 105.997 24.4297 108.262 24.427 110.624V204.778C24.4297 207.141 25.3695 209.406 27.0401 211.076C28.7108 212.747 30.976 213.687 33.3387 213.689H184.566C186.929 213.687 189.194 212.747 190.865 211.076C192.535 209.406 193.475 207.141 193.478 204.778V110.624C193.475 108.262 192.535 105.997 190.865 104.326C189.194 102.655 186.929 101.715 184.566 101.713ZM187.491 169.344C187.454 178.93 183.663 188.119 176.929 194.941C170.196 201.763 161.057 205.674 151.473 205.836C136.128 206.036 159.963 206.113 141.456 206.113C99.1367 206.113 55.0094 205.709 38.545 205.447C36.3788 205.402 34.3159 204.512 32.7967 202.968C31.2775 201.423 30.4225 199.345 30.4141 197.179V110.631C30.415 109.856 30.7231 109.112 31.271 108.562C31.819 108.013 32.5622 107.703 33.338 107.7H184.56C185.336 107.701 186.079 108.009 186.629 108.557C187.178 109.105 187.488 109.848 187.491 110.624V169.344Z" fill="#3F3D56"/>
<path d="M165.95 47.4963H50.7308C49.7114 47.4977 48.7172 47.8138 47.8841 48.4013C47.051 48.9888 46.4195 49.8191 46.0758 50.7789L28.2809 100.703C28.0153 101.449 27.9325 102.247 28.0395 103.03C28.1464 103.814 28.4399 104.561 28.8953 105.208C29.3508 105.855 29.9548 106.383 30.6568 106.747C31.3587 107.112 32.1379 107.303 32.929 107.305L187.457 107.579H187.464C188.282 107.579 189.087 107.376 189.807 106.988C190.527 106.6 191.139 106.04 191.59 105.357C192.04 104.675 192.313 103.891 192.386 103.076C192.459 102.262 192.328 101.442 192.006 100.69L170.492 50.4915C170.112 49.6021 169.479 48.844 168.671 48.3115C167.864 47.779 166.918 47.4955 165.95 47.4963Z" fill="#3F3D56"/>
<path d="M192.406 101.774C192.406 102.444 192.27 103.106 192.006 103.721L170.494 142.363C170.111 143.25 169.477 144.007 168.669 144.538C167.862 145.07 166.917 145.354 165.95 145.355H50.7326C49.7128 145.354 48.7181 145.038 47.8843 144.451C47.0505 143.864 46.4182 143.034 46.0736 142.074L28.2821 103.708C28.064 103.097 27.9686 102.449 28.0011 101.801C28.0337 101.152 28.1937 100.517 28.472 99.9307C28.7503 99.3445 29.1414 98.8188 29.6229 98.3837C30.1045 97.9487 30.667 97.6128 31.2785 97.3953C31.8074 97.2044 32.3655 97.1066 32.9278 97.1064L51.804 97.0708L59.5083 97.0575L160.887 96.8797L168.595 96.8663L187.458 96.8307H187.463C188.774 96.831 190.031 97.3519 190.958 98.2789C191.885 99.206 192.406 100.463 192.406 101.774Z" fill="#3F3D56"/>
<path d="M44.6758 172.339C46.9606 172.339 78.3356 174.256 78.3356 176.541C78.3356 178.826 46.9606 180.613 44.6758 180.613C43.5787 180.613 42.5264 180.177 41.7506 179.401C40.9748 178.625 40.5389 177.573 40.5389 176.476C40.5389 175.378 40.9748 174.326 41.7506 173.55C42.5264 172.775 43.5787 172.339 44.6758 172.339Z" fill="#3F3D56"/>
<path d="M158.775 17.1249H61.6244C59.0208 17.1279 56.5247 18.1635 54.6837 20.0045C52.8426 21.8456 51.807 24.3417 51.804 26.9453V145.355H165.95C166.888 145.358 167.806 145.091 168.595 144.586V26.9453C168.592 24.3417 167.557 21.8456 165.716 20.0045C163.875 18.1635 161.379 17.1279 158.775 17.1249Z" fill="#E6E6E6"/>
<path d="M121.694 25.087H68.4529C66.0822 25.0893 63.8091 26.0318 62.1322 27.7078C60.4554 29.3838 59.5118 31.6564 59.5083 34.0272V145.355H160.887V64.2798C160.875 53.8889 156.742 43.927 149.394 36.5795C142.047 29.232 132.085 25.099 121.694 25.087Z" fill="white"/>
<path d="M143.615 135.468H76.7796C76.2019 135.468 75.6478 135.697 75.2393 136.106C74.8308 136.514 74.6013 137.068 74.6013 137.646C74.6013 138.224 74.8308 138.778 75.2393 139.187C75.6478 139.595 76.2019 139.825 76.7796 139.825H143.615C144.193 139.825 144.747 139.595 145.156 139.187C145.564 138.778 145.794 138.224 145.794 137.646C145.794 137.068 145.564 136.514 145.156 136.106C144.747 135.697 144.193 135.468 143.615 135.468Z" fill="#E4E4E4"/>
<path d="M143.615 126.852H76.7796C76.2013 126.852 75.6467 127.082 75.2377 127.491C74.8288 127.9 74.599 128.454 74.599 129.033C74.599 129.611 74.8288 130.166 75.2377 130.575C75.6467 130.984 76.2013 131.213 76.7796 131.213H143.615C144.194 131.213 144.748 130.984 145.157 130.575C145.566 130.166 145.796 129.611 145.796 129.033C145.796 128.454 145.566 127.9 145.157 127.491C144.748 127.082 144.194 126.852 143.615 126.852Z" fill="#E4E4E4"/>
<path d="M105.752 118.241H76.7796C76.2019 118.241 75.6478 118.47 75.2393 118.879C74.8308 119.288 74.6013 119.842 74.6013 120.419C74.6013 120.997 74.8308 121.551 75.2393 121.96C75.6478 122.368 76.2019 122.598 76.7796 122.598H105.752C106.33 122.598 106.884 122.368 107.292 121.96C107.701 121.551 107.93 120.997 107.93 120.419C107.93 119.842 107.701 119.288 107.292 118.879C106.884 118.47 106.33 118.241 105.752 118.241Z" fill="#E4E4E4"/>
<path d="M143.615 100.201H76.7796C76.2013 100.201 75.6467 100.43 75.2377 100.839C74.8288 101.248 74.599 101.803 74.599 102.381C74.599 102.959 74.8288 103.514 75.2377 103.923C75.6467 104.332 76.2013 104.562 76.7796 104.562H143.615C144.194 104.562 144.748 104.332 145.157 103.923C145.566 103.514 145.796 102.959 145.796 102.381C145.796 101.803 145.566 101.248 145.157 100.839C144.748 100.43 144.194 100.201 143.615 100.201Z" fill="#E4E4E4"/>
<path d="M143.615 91.5894H76.7796C76.2019 91.5894 75.6478 91.8189 75.2393 92.2274C74.8308 92.6359 74.6013 93.19 74.6013 93.7677C74.6013 94.3455 74.8308 94.8995 75.2393 95.308C75.6478 95.7166 76.2019 95.9461 76.7796 95.9461H143.615C144.193 95.9461 144.747 95.7166 145.156 95.308C145.564 94.8995 145.794 94.3455 145.794 93.7677C145.794 93.19 145.564 92.6359 145.156 92.2274C144.747 91.8189 144.193 91.5894 143.615 91.5894Z" fill="#E4E4E4"/>
<path d="M105.752 82.9737H76.7796C76.2013 82.9737 75.6467 83.2034 75.2377 83.6124C74.8288 84.0213 74.599 84.576 74.599 85.1543C74.599 85.7326 74.8288 86.2872 75.2377 86.6962C75.6467 87.1051 76.2013 87.3349 76.7796 87.3349H105.752C106.33 87.3349 106.885 87.1051 107.294 86.6962C107.703 86.2872 107.932 85.7326 107.932 85.1543C107.932 84.576 107.703 84.0213 107.294 83.6124C106.885 83.2034 106.33 82.9737 105.752 82.9737Z" fill="#E4E4E4"/>
<path d="M143.615 64.9333H76.7796C76.2013 64.9333 75.6467 65.163 75.2377 65.572C74.8288 65.9809 74.599 66.5355 74.599 67.1139C74.599 67.6922 74.8288 68.2468 75.2377 68.6558C75.6467 69.0647 76.2013 69.2945 76.7796 69.2945H143.615C144.194 69.2945 144.748 69.0647 145.157 68.6558C145.566 68.2468 145.796 67.6922 145.796 67.1139C145.796 66.5355 145.566 65.9809 145.157 65.572C144.748 65.163 144.194 64.9333 143.615 64.9333Z" fill="#AA9084"/>
<path d="M143.615 56.3221H76.7796C76.2013 56.3221 75.6467 56.5518 75.2377 56.9608C74.8288 57.3697 74.599 57.9243 74.599 58.5027C74.599 59.081 74.8288 59.6356 75.2377 60.0446C75.6467 60.4535 76.2013 60.6833 76.7796 60.6833H143.615C144.194 60.6833 144.748 60.4535 145.157 60.0446C145.566 59.6356 145.796 59.081 145.796 58.5027C145.796 57.9243 145.566 57.3697 145.157 56.9608C144.748 56.5518 144.194 56.3221 143.615 56.3221Z" fill="#AA9084"/>
<path d="M105.752 47.7064H76.7796C76.2013 47.7064 75.6467 47.9362 75.2377 48.3451C74.8288 48.754 74.599 49.3087 74.599 49.887C74.599 50.4653 74.8288 51.02 75.2377 51.4289C75.6467 51.8379 76.2013 52.0676 76.7796 52.0676H105.752C106.33 52.0676 106.885 51.8379 107.294 51.4289C107.703 51.02 107.932 50.4653 107.932 49.887C107.932 49.3087 107.703 48.754 107.294 48.3451C106.885 47.9362 106.33 47.7064 105.752 47.7064Z" fill="#AA9084"/>
<path d="M164.953 33.9316C174.323 33.9316 181.919 26.3358 181.919 16.9658C181.919 7.59586 174.323 0 164.953 0C155.583 0 147.987 7.59586 147.987 16.9658C147.987 26.3358 155.583 33.9316 164.953 33.9316Z" fill="#AA9084"/>
<path d="M162.639 25.7957C162.346 25.7957 162.057 25.7275 161.795 25.5964C161.533 25.4654 161.305 25.2751 161.129 25.0407L156.501 18.8692C156.351 18.671 156.242 18.4452 156.18 18.2049C156.118 17.9645 156.104 17.7142 156.139 17.4684C156.173 17.2226 156.256 16.9861 156.383 16.7724C156.509 16.5586 156.676 16.372 156.875 16.223C157.074 16.0741 157.3 15.9658 157.54 15.9043C157.781 15.8429 158.031 15.8295 158.277 15.865C158.522 15.9004 158.759 15.984 158.972 16.1109C159.186 16.2379 159.372 16.4057 159.52 16.6047L162.548 20.6419L170.326 8.97595C170.603 8.55949 171.035 8.27038 171.526 8.17222C172.017 8.07405 172.526 8.17489 172.943 8.45253C173.359 8.73017 173.648 9.16189 173.747 9.6527C173.845 10.1435 173.744 10.6532 173.466 11.0697L164.209 24.9553C164.042 25.2064 163.816 25.4137 163.552 25.5599C163.288 25.706 162.993 25.7867 162.691 25.7951C162.674 25.7954 162.656 25.7957 162.639 25.7957Z" fill="white"/>
</g>
<defs>
<clipPath id="clip0_412_865">
<rect width="300" height="262.559" fill="white"/>
</clipPath>
</defs>
</svg>
