<svg width="1361" height="321" viewBox="0 0 1361 321" fill="none" xmlns="http://www.w3.org/2000/svg">
<g opacity="0.8">
<g opacity="0.25" clip-path="url(#clip0_398_1618)">
<path d="M712.259 38.3238L711.684 38.9276L751.121 76.4747L751.696 75.871L712.259 38.3238Z" fill="#E6E6E6"/>
<path d="M751.759 71.7996L750.926 71.8499L751.178 75.952L747.068 75.9026L747.059 76.7364L752.064 76.7957L751.759 71.7996Z" fill="#E6E6E6"/>
<path d="M716.322 38.0615L716.313 38.8953L712.203 38.8459L712.454 42.948L711.621 42.9983L711.317 38.0016L716.322 38.0615Z" fill="#E6E6E6"/>
<path d="M731.69 61.9835C734.222 61.9835 736.274 59.9311 736.274 57.3993C736.274 54.8675 734.222 52.8151 731.69 52.8151C729.158 52.8151 727.106 54.8675 727.106 57.3993C727.106 59.9311 729.158 61.9835 731.69 61.9835Z" fill="#E6E6E6"/>
<path d="M594.575 38.3239L555.137 75.871L555.712 76.4748L595.15 38.9276L594.575 38.3239Z" fill="#E6E6E6"/>
<path d="M554.769 76.7957L559.775 76.7364L559.766 75.9026L555.656 75.952L555.907 71.8499L555.075 71.7996L554.769 76.7957Z" fill="#E6E6E6"/>
<path d="M595.517 38.0016L595.212 42.9983L594.379 42.948L594.63 38.8459L590.521 38.8953L590.512 38.0615L595.517 38.0016Z" fill="#E6E6E6"/>
<path d="M575.144 61.9835C577.675 61.9835 579.728 59.9311 579.728 57.3993C579.728 54.8675 577.675 52.8151 575.144 52.8151C572.612 52.8151 570.559 54.8675 570.559 57.3993C570.559 59.9311 572.612 61.9835 575.144 61.9835Z" fill="#E6E6E6"/>
<path d="M687.59 95.0181H618.41C617.416 95.0169 616.462 94.6214 615.759 93.9182C615.056 93.2151 614.661 92.2617 614.659 91.2673V3.75071C614.661 2.75631 615.056 1.80296 615.759 1.09981C616.462 0.396662 617.416 0.00113242 618.41 0H687.59C688.584 0.00113242 689.538 0.396662 690.241 1.09981C690.944 1.80296 691.339 2.75631 691.341 3.75071V91.2673C691.339 92.2617 690.944 93.2151 690.241 93.9182C689.538 94.6214 688.584 95.0169 687.59 95.0181ZM618.41 0.833494C617.637 0.834362 616.895 1.14199 616.348 1.68889C615.801 2.23578 615.494 2.97728 615.493 3.75071V91.2673C615.494 92.0408 615.801 92.7823 616.348 93.3292C616.895 93.8761 617.637 94.1837 618.41 94.1846H687.59C688.363 94.1837 689.105 93.8761 689.652 93.3292C690.199 92.7823 690.506 92.0408 690.507 91.2673V3.75071C690.506 2.97728 690.199 2.23578 689.652 1.68889C689.105 1.14199 688.363 0.834362 687.59 0.833494H618.41Z" fill="#3F3D56"/>
<path d="M647.245 42.067H632.017C631.52 42.0665 631.043 41.8687 630.692 41.5171C630.34 41.1656 630.143 40.6889 630.142 40.1917V22.2217C630.143 21.7245 630.34 21.2478 630.692 20.8963C631.043 20.5447 631.52 20.3469 632.017 20.3464H647.245C647.742 20.3469 648.219 20.5447 648.571 20.8963C648.922 21.2478 649.12 21.7245 649.121 22.2217V40.1917C649.12 40.6889 648.922 41.1656 648.571 41.5171C648.219 41.8687 647.742 42.0665 647.245 42.067Z" fill="#FFB6B6"/>
<path d="M676.834 50.402H661.606C661.109 50.4014 660.632 50.2037 660.281 49.8521C659.929 49.5005 659.732 49.0238 659.731 48.5266V30.5567C659.732 30.0595 659.929 29.5828 660.281 29.2312C660.632 28.8796 661.109 28.6819 661.606 28.6813H676.834C677.331 28.6819 677.808 28.8796 678.16 29.2312C678.511 29.5828 678.709 30.0595 678.71 30.5567V48.5266C678.709 49.0238 678.511 49.5005 678.16 49.8521C677.808 50.2037 677.331 50.4014 676.834 50.402Z" fill="#CCCCCC"/>
<path d="M653.08 75.8234H637.852C637.355 75.8229 636.878 75.6251 636.526 75.2735C636.175 74.922 635.977 74.4453 635.976 73.9481V55.9781C635.977 55.4809 636.175 55.0043 636.526 54.6527C636.878 54.3011 637.355 54.1033 637.852 54.1028H653.08C653.577 54.1033 654.054 54.3011 654.405 54.6527C654.757 55.0043 654.955 55.4809 654.955 55.9781V73.9481C654.955 74.4453 654.757 74.922 654.405 75.2735C654.054 75.6251 653.577 75.8229 653.08 75.8234Z" fill="#FF6584"/>
<path d="M799.249 185.007H730.069C729.075 185.006 728.122 184.61 727.419 183.907C726.715 183.204 726.32 182.25 726.319 181.256V93.7394C726.32 92.745 726.715 91.7916 727.419 91.0885C728.122 90.3853 729.075 89.9898 730.069 89.9886H799.249C800.244 89.9898 801.197 90.3853 801.9 91.0885C802.603 91.7916 802.999 92.745 803 93.7394V181.256C802.999 182.25 802.603 183.204 801.9 183.907C801.197 184.61 800.244 185.006 799.249 185.007ZM730.069 90.8221C729.296 90.823 728.555 91.1306 728.008 91.6775C727.461 92.2244 727.153 92.9659 727.152 93.7394V181.256C727.153 182.029 727.461 182.771 728.008 183.318C728.555 183.865 729.296 184.172 730.069 184.173H799.249C800.023 184.172 800.764 183.865 801.311 183.318C801.858 182.771 802.166 182.029 802.166 181.256V93.7394C802.166 92.9659 801.858 92.2244 801.311 91.6775C800.764 91.1306 800.023 90.823 799.249 90.8221H730.069Z" fill="#3F3D56"/>
<path d="M776.537 109.367H752.782C752.34 109.367 751.916 109.192 751.603 108.879C751.291 108.566 751.115 108.142 751.115 107.7C751.115 107.258 751.291 106.834 751.603 106.522C751.916 106.209 752.34 106.033 752.782 106.033H776.537C776.979 106.033 777.403 106.209 777.715 106.522C778.028 106.834 778.204 107.258 778.204 107.7C778.204 108.142 778.028 108.566 777.715 108.879C777.403 109.192 776.979 109.367 776.537 109.367Z" fill="#FFB6B6"/>
<path d="M788.206 125.204H741.113C740.894 125.204 740.677 125.161 740.474 125.078C740.272 124.994 740.088 124.871 739.933 124.716C739.778 124.562 739.654 124.378 739.571 124.175C739.487 123.973 739.443 123.756 739.443 123.537C739.443 123.317 739.487 123.1 739.571 122.898C739.654 122.696 739.778 122.512 739.933 122.357C740.088 122.202 740.272 122.079 740.474 121.996C740.677 121.912 740.894 121.869 741.113 121.87H788.206C788.425 121.869 788.642 121.912 788.844 121.996C789.047 122.079 789.231 122.202 789.386 122.357C789.541 122.512 789.664 122.696 789.748 122.898C789.832 123.1 789.875 123.317 789.875 123.537C789.875 123.756 789.832 123.973 789.748 124.175C789.664 124.378 789.541 124.562 789.386 124.716C789.231 124.871 789.047 124.994 788.844 125.078C788.642 125.161 788.425 125.204 788.206 125.204Z" fill="#CCCCCC"/>
<path d="M788.206 133.955H741.113C740.894 133.956 740.677 133.913 740.474 133.829C740.272 133.746 740.088 133.623 739.933 133.468C739.778 133.313 739.654 133.129 739.571 132.927C739.487 132.724 739.443 132.507 739.443 132.288C739.443 132.069 739.487 131.852 739.571 131.65C739.654 131.447 739.778 131.263 739.933 131.109C740.088 130.954 740.272 130.831 740.474 130.747C740.677 130.664 740.894 130.621 741.113 130.621H788.206C788.425 130.621 788.642 130.664 788.844 130.747C789.047 130.831 789.231 130.954 789.386 131.109C789.541 131.263 789.664 131.447 789.748 131.65C789.832 131.852 789.875 132.069 789.875 132.288C789.875 132.507 789.832 132.724 789.748 132.927C789.664 133.129 789.541 133.313 789.386 133.468C789.231 133.623 789.047 133.746 788.844 133.829C788.642 133.913 788.425 133.956 788.206 133.955Z" fill="#CCCCCC"/>
<path d="M788.206 142.707H741.113C740.894 142.707 740.677 142.665 740.474 142.581C740.272 142.497 740.088 142.375 739.933 142.22C739.778 142.065 739.654 141.881 739.571 141.679C739.487 141.476 739.443 141.259 739.443 141.04C739.443 140.821 739.487 140.604 739.571 140.401C739.654 140.199 739.778 140.015 739.933 139.86C740.088 139.705 740.272 139.583 740.474 139.499C740.677 139.416 740.894 139.373 741.113 139.373H788.206C788.425 139.373 788.642 139.416 788.844 139.499C789.047 139.583 789.231 139.705 789.386 139.86C789.541 140.015 789.664 140.199 789.748 140.401C789.832 140.604 789.875 140.821 789.875 141.04C789.875 141.259 789.832 141.476 789.748 141.679C789.664 141.881 789.541 142.065 789.386 142.22C789.231 142.375 789.047 142.497 788.844 142.581C788.642 142.665 788.425 142.707 788.206 142.707Z" fill="#CCCCCC"/>
<path d="M788.206 151.459H741.113C740.894 151.459 740.677 151.416 740.474 151.333C740.272 151.249 740.088 151.126 739.933 150.971C739.778 150.817 739.654 150.633 739.571 150.43C739.487 150.228 739.443 150.011 739.443 149.792C739.443 149.572 739.487 149.355 739.571 149.153C739.654 148.951 739.778 148.767 739.933 148.612C740.088 148.457 740.272 148.334 740.474 148.251C740.677 148.167 740.894 148.124 741.113 148.125H788.206C788.425 148.124 788.642 148.167 788.844 148.251C789.047 148.334 789.231 148.457 789.386 148.612C789.541 148.767 789.664 148.951 789.748 149.153C789.832 149.355 789.875 149.572 789.875 149.792C789.875 150.011 789.832 150.228 789.748 150.43C789.664 150.633 789.541 150.817 789.386 150.971C789.231 151.126 789.047 151.249 788.844 151.333C788.642 151.416 788.425 151.459 788.206 151.459Z" fill="#CCCCCC"/>
<path d="M788.206 160.21H741.113C740.894 160.211 740.677 160.168 740.474 160.084C740.272 160.001 740.088 159.878 739.933 159.723C739.778 159.568 739.654 159.384 739.571 159.182C739.487 158.979 739.443 158.762 739.443 158.543C739.443 158.324 739.487 158.107 739.571 157.905C739.654 157.702 739.778 157.518 739.933 157.364C740.088 157.209 740.272 157.086 740.474 157.002C740.677 156.919 740.894 156.876 741.113 156.876H788.206C788.425 156.876 788.642 156.919 788.844 157.002C789.047 157.086 789.231 157.209 789.386 157.364C789.541 157.518 789.664 157.702 789.748 157.905C789.832 158.107 789.875 158.324 789.875 158.543C789.875 158.762 789.832 158.979 789.748 159.182C789.664 159.384 789.541 159.568 789.386 159.723C789.231 159.878 789.047 160.001 788.844 160.084C788.642 160.168 788.425 160.211 788.206 160.21Z" fill="#CCCCCC"/>
<path d="M788.206 168.962H741.113C740.894 168.962 740.677 168.919 740.474 168.836C740.272 168.752 740.088 168.63 739.933 168.475C739.778 168.32 739.654 168.136 739.571 167.934C739.487 167.731 739.443 167.514 739.443 167.295C739.443 167.076 739.487 166.859 739.571 166.656C739.654 166.454 739.778 166.27 739.933 166.115C740.088 165.96 740.272 165.838 740.474 165.754C740.677 165.67 740.894 165.628 741.113 165.628H788.206C788.425 165.628 788.642 165.67 788.844 165.754C789.047 165.838 789.231 165.96 789.386 166.115C789.541 166.27 789.664 166.454 789.748 166.656C789.832 166.859 789.875 167.076 789.875 167.295C789.875 167.514 789.832 167.731 789.748 167.934C789.664 168.136 789.541 168.32 789.386 168.475C789.231 168.63 789.047 168.752 788.844 168.836C788.642 168.919 788.425 168.962 788.206 168.962Z" fill="#CCCCCC"/>
<path d="M575.931 185.007H506.751C505.756 185.006 504.803 184.61 504.1 183.907C503.397 183.204 503.001 182.25 503 181.256V93.7394C503.001 92.745 503.397 91.7916 504.1 91.0885C504.803 90.3853 505.756 89.9898 506.751 89.9886H575.931C576.925 89.9898 577.878 90.3853 578.581 91.0885C579.285 91.7916 579.68 92.745 579.681 93.7394V181.256C579.68 182.25 579.285 183.204 578.581 183.907C577.878 184.61 576.925 185.006 575.931 185.007ZM506.751 90.8221C505.977 90.823 505.236 91.1306 504.689 91.6775C504.142 92.2244 503.834 92.9659 503.833 93.7394V181.256C503.834 182.029 504.142 182.771 504.689 183.318C505.236 183.865 505.977 184.172 506.751 184.173H575.931C576.704 184.172 577.445 183.865 577.992 183.318C578.539 182.771 578.847 182.029 578.848 181.256V93.7394C578.847 92.9659 578.539 92.2244 577.992 91.6775C577.445 91.1306 576.704 90.823 575.931 90.8221H506.751Z" fill="#3F3D56"/>
<path d="M564.959 110.651H544.122C543.68 110.651 543.256 110.476 542.943 110.163C542.63 109.85 542.455 109.426 542.455 108.984C542.455 108.542 542.63 108.118 542.943 107.806C543.256 107.493 543.68 107.317 544.122 107.317H564.959C565.401 107.317 565.825 107.493 566.138 107.806C566.45 108.118 566.626 108.542 566.626 108.984C566.626 109.426 566.45 109.85 566.138 110.163C565.825 110.476 565.401 110.651 564.959 110.651Z" fill="#3F3D56"/>
<path d="M564.959 119.403H544.122C543.68 119.403 543.256 119.227 542.943 118.915C542.63 118.602 542.455 118.178 542.455 117.736C542.455 117.294 542.63 116.87 542.943 116.557C543.256 116.245 543.68 116.069 544.122 116.069H564.959C565.401 116.069 565.825 116.245 566.138 116.557C566.45 116.87 566.626 117.294 566.626 117.736C566.626 118.178 566.45 118.602 566.138 118.915C565.825 119.227 565.401 119.403 564.959 119.403Z" fill="#3F3D56"/>
<path d="M533.43 124.386H518.202C517.705 124.386 517.228 124.188 516.877 123.836C516.525 123.485 516.327 123.008 516.327 122.511V104.541C516.327 104.044 516.525 103.567 516.877 103.215C517.228 102.864 517.705 102.666 518.202 102.666H533.43C533.927 102.666 534.404 102.864 534.755 103.215C535.107 103.567 535.305 104.044 535.305 104.541V122.511C535.305 123.008 535.107 123.485 534.755 123.836C534.404 124.188 533.927 124.386 533.43 124.386Z" fill="#FFB6B6"/>
<path d="M564.815 137.323H517.722C517.503 137.323 517.286 137.281 517.083 137.197C516.881 137.113 516.697 136.991 516.542 136.836C516.387 136.681 516.264 136.497 516.18 136.295C516.096 136.092 516.052 135.875 516.052 135.656C516.052 135.437 516.096 135.22 516.18 135.018C516.264 134.815 516.387 134.631 516.542 134.476C516.697 134.322 516.881 134.199 517.083 134.115C517.286 134.032 517.503 133.989 517.722 133.989H564.815C565.034 133.989 565.251 134.032 565.453 134.115C565.656 134.199 565.84 134.322 565.995 134.476C566.15 134.631 566.273 134.815 566.357 135.018C566.441 135.22 566.484 135.437 566.484 135.656C566.484 135.875 566.441 136.092 566.357 136.295C566.273 136.497 566.15 136.681 565.995 136.836C565.84 136.991 565.656 137.113 565.453 137.197C565.251 137.281 565.034 137.323 564.815 137.323Z" fill="#CCCCCC"/>
<path d="M564.815 146.075H517.722C517.503 146.075 517.286 146.032 517.083 145.949C516.881 145.865 516.697 145.742 516.542 145.587C516.387 145.433 516.264 145.249 516.18 145.046C516.096 144.844 516.052 144.627 516.052 144.408C516.052 144.189 516.096 143.972 516.18 143.769C516.264 143.567 516.387 143.383 516.542 143.228C516.697 143.073 516.881 142.95 517.083 142.867C517.286 142.783 517.503 142.74 517.722 142.741H564.815C565.034 142.74 565.251 142.783 565.453 142.867C565.656 142.95 565.84 143.073 565.995 143.228C566.15 143.383 566.273 143.567 566.357 143.769C566.441 143.972 566.484 144.189 566.484 144.408C566.484 144.627 566.441 144.844 566.357 145.046C566.273 145.249 566.15 145.433 565.995 145.587C565.84 145.742 565.656 145.865 565.453 145.949C565.251 146.032 565.034 146.075 564.815 146.075Z" fill="#CCCCCC"/>
<path d="M564.815 154.826H517.722C517.503 154.827 517.286 154.784 517.083 154.7C516.881 154.617 516.697 154.494 516.542 154.339C516.387 154.184 516.264 154 516.18 153.798C516.096 153.596 516.052 153.379 516.052 153.159C516.052 152.94 516.096 152.723 516.18 152.521C516.264 152.318 516.387 152.135 516.542 151.98C516.697 151.825 516.881 151.702 517.083 151.619C517.286 151.535 517.503 151.492 517.722 151.492H564.815C565.034 151.492 565.251 151.535 565.453 151.619C565.656 151.702 565.84 151.825 565.995 151.98C566.15 152.135 566.273 152.318 566.357 152.521C566.441 152.723 566.484 152.94 566.484 153.159C566.484 153.379 566.441 153.596 566.357 153.798C566.273 154 566.15 154.184 565.995 154.339C565.84 154.494 565.656 154.617 565.453 154.7C565.251 154.784 565.034 154.827 564.815 154.826Z" fill="#CCCCCC"/>
<path d="M564.815 163.578H517.722C517.503 163.578 517.286 163.536 517.083 163.452C516.881 163.368 516.697 163.246 516.542 163.091C516.387 162.936 516.264 162.752 516.18 162.55C516.096 162.347 516.052 162.13 516.052 161.911C516.052 161.692 516.096 161.475 516.18 161.273C516.264 161.07 516.387 160.886 516.542 160.731C516.697 160.577 516.881 160.454 517.083 160.37C517.286 160.287 517.503 160.244 517.722 160.244H564.815C565.034 160.244 565.251 160.287 565.453 160.37C565.656 160.454 565.84 160.577 565.995 160.731C566.15 160.886 566.273 161.07 566.357 161.273C566.441 161.475 566.484 161.692 566.484 161.911C566.484 162.13 566.441 162.347 566.357 162.55C566.273 162.752 566.15 162.936 565.995 163.091C565.84 163.246 565.656 163.368 565.453 163.452C565.251 163.536 565.034 163.578 564.815 163.578Z" fill="#CCCCCC"/>
<path d="M564.815 172.33H517.722C517.503 172.33 517.286 172.287 517.083 172.204C516.881 172.12 516.697 171.997 516.542 171.842C516.387 171.688 516.264 171.504 516.18 171.301C516.096 171.099 516.052 170.882 516.052 170.663C516.052 170.444 516.096 170.227 516.18 170.024C516.264 169.822 516.387 169.638 516.542 169.483C516.697 169.328 516.881 169.205 517.083 169.122C517.286 169.038 517.503 168.995 517.722 168.996H564.815C565.034 168.995 565.251 169.038 565.453 169.122C565.656 169.205 565.84 169.328 565.995 169.483C566.15 169.638 566.273 169.822 566.357 170.024C566.441 170.227 566.484 170.444 566.484 170.663C566.484 170.882 566.441 171.099 566.357 171.301C566.273 171.504 566.15 171.688 565.995 171.842C565.84 171.997 565.656 172.12 565.453 172.204C565.251 172.287 565.034 172.33 564.815 172.33Z" fill="#CCCCCC"/>
<path d="M602.083 235.731V217.761C602.084 217.264 602.282 216.787 602.633 216.435C602.985 216.084 603.462 215.886 603.959 215.885H619.187C619.684 215.886 620.161 216.084 620.512 216.435C620.864 216.787 621.061 217.264 621.062 217.761V235.731C621.061 236.228 620.864 236.705 620.512 237.056C620.161 237.408 619.684 237.606 619.187 237.606H603.959C603.462 237.606 602.985 237.408 602.633 237.056C602.282 236.705 602.084 236.228 602.083 235.731Z" fill="#E6E6E6"/>
<path d="M607.569 229.747V211.777C607.569 211.28 607.767 210.803 608.119 210.451C608.47 210.1 608.947 209.902 609.444 209.901H624.672C625.169 209.902 625.646 210.1 625.997 210.451C626.349 210.803 626.547 211.28 626.547 211.777V229.747C626.547 230.244 626.349 230.721 625.997 231.072C625.646 231.424 625.169 231.621 624.672 231.622H609.444C608.947 231.621 608.47 231.424 608.119 231.072C607.767 230.721 607.569 230.244 607.569 229.747Z" fill="#FFB6B6"/>
<path d="M675.831 223.997C675.258 223.666 674.765 223.213 674.386 222.671C674.007 222.128 673.751 221.509 673.637 220.857C673.523 220.205 673.553 219.536 673.726 218.898C673.898 218.259 674.209 217.665 674.635 217.159L669.915 182.657L679.748 183.14L681.291 216.793C682.094 217.566 682.585 218.607 682.671 219.717C682.758 220.828 682.434 221.932 681.761 222.82C681.088 223.708 680.113 224.319 679.02 224.535C677.927 224.752 676.792 224.561 675.831 223.997Z" fill="#A0616A"/>
<path d="M681.097 183.6C680.896 183.837 680.637 184.02 680.347 184.131L671.51 187.503C671.067 187.672 670.575 187.665 670.136 187.483C669.697 187.301 669.345 186.957 669.152 186.523L661.325 168.933C660.573 167.301 660.445 165.45 660.965 163.731C661.35 162.504 662.058 161.403 663.016 160.544C663.973 159.686 665.145 159.101 666.406 158.853C667.377 158.653 668.379 158.667 669.344 158.894C670.499 159.152 671.573 159.694 672.466 160.47C673.36 161.247 674.046 162.235 674.462 163.343L681.421 181.739C681.538 182.05 681.57 182.386 681.513 182.714C681.456 183.041 681.312 183.347 681.097 183.6Z" fill="#CCCCCC"/>
<path d="M635.051 308.208H628.938L626.721 284.516L635.052 284.628L635.051 308.208Z" fill="#A0616A"/>
<path d="M624.571 306.461H636.361V313.885H617.147C617.147 312.91 617.339 311.945 617.712 311.044C618.085 310.143 618.632 309.325 619.322 308.636C620.011 307.946 620.829 307.399 621.73 307.026C622.631 306.653 623.596 306.461 624.571 306.461Z" fill="#2F2E41"/>
<path d="M663.476 308.208H657.362L654.454 284.627L663.477 284.627L663.476 308.208Z" fill="#A0616A"/>
<path d="M652.995 306.461H664.786V313.885H645.572C645.572 312.91 645.764 311.945 646.137 311.044C646.51 310.143 647.056 309.325 647.746 308.636C648.435 307.946 649.254 307.399 650.154 307.026C651.055 306.653 652.02 306.461 652.995 306.461Z" fill="#2F2E41"/>
<path d="M664.244 299.818L654.643 299.107C654.096 299.066 653.584 298.827 653.202 298.435C652.82 298.043 652.594 297.525 652.567 296.978L650.426 252.73C650.405 252.306 650.23 251.903 649.934 251.598C649.638 251.294 649.24 251.107 648.817 251.075C648.393 251.042 647.971 251.165 647.632 251.421C647.292 251.677 647.058 252.048 646.973 252.465L638.041 296.052C637.93 296.588 637.628 297.066 637.19 297.394C636.752 297.723 636.21 297.881 635.664 297.838L626.984 297.144C626.687 297.12 626.397 297.037 626.132 296.9C625.867 296.763 625.632 296.574 625.44 296.345C625.249 296.116 625.105 295.851 625.018 295.566C624.93 295.281 624.9 294.981 624.93 294.684L632.982 214.16C633.014 213.846 633.111 213.541 633.269 213.267C633.426 212.992 633.64 212.754 633.896 212.569C634.152 212.383 634.444 212.253 634.754 212.188C635.063 212.123 635.383 212.124 635.692 212.191L666.313 218.848C666.82 218.959 667.274 219.242 667.596 219.65C667.918 220.057 668.089 220.563 668.08 221.082L666.654 297.622C666.643 298.209 666.402 298.768 665.984 299.18C665.565 299.592 665.002 299.823 664.415 299.825C664.359 299.825 664.302 299.822 664.244 299.818Z" fill="#2F2E41"/>
<path d="M655.844 146.833C662.608 146.833 668.092 141.349 668.092 134.585C668.092 127.821 662.608 122.337 655.844 122.337C649.08 122.337 643.596 127.821 643.596 134.585C643.596 141.349 649.08 146.833 655.844 146.833Z" fill="#A0616A"/>
<path d="M636.841 220.37C635.663 219.314 634.728 218.015 634.1 216.563C633.472 215.111 633.167 213.541 633.204 211.959C633.204 194.356 648.441 155.027 648.919 153.8C648.965 153.504 649.367 153.377 651.477 151.952C653.587 150.526 656.63 150.307 660.522 151.301C660.918 151.402 661.278 151.61 661.564 151.902C661.849 152.193 662.05 152.558 662.143 152.955L662.867 154.001C662.93 154.267 663.054 154.513 663.23 154.722C663.405 154.93 663.628 155.095 663.878 155.201C667.017 156.524 676.993 162.621 673.593 185.566C670.436 206.881 669.154 219.416 668.75 223.817C668.702 224.339 668.473 224.828 668.102 225.198C667.731 225.569 667.242 225.797 666.72 225.844C665.181 225.982 662.54 226.165 659.394 226.165C652.103 226.165 642.102 225.181 636.841 220.37Z" fill="#CCCCCC"/>
<path d="M622.206 213.848C621.914 213.254 621.757 212.603 621.744 211.942C621.732 211.28 621.865 210.624 622.133 210.019C622.402 209.414 622.8 208.875 623.299 208.441C623.798 208.006 624.387 207.687 625.023 207.504L640.328 176.225L648.224 182.105L630.754 210.909C630.989 211.998 630.817 213.136 630.27 214.106C629.723 215.077 628.839 215.813 627.785 216.176C626.732 216.538 625.582 216.501 624.553 216.072C623.525 215.643 622.69 214.852 622.206 213.848Z" fill="#A0616A"/>
<path d="M649.089 183.238C648.789 183.323 648.473 183.331 648.17 183.261L638.953 181.138C638.49 181.031 638.086 180.751 637.823 180.355C637.56 179.959 637.459 179.478 637.541 179.01L640.843 160.042C641.128 158.268 642.053 156.66 643.443 155.522C644.446 154.717 645.648 154.198 646.921 154.018C648.195 153.839 649.493 154.007 650.68 154.503C651.597 154.878 652.421 155.449 653.095 156.175C653.912 157.032 654.501 158.08 654.81 159.223C655.119 160.366 655.138 161.568 654.866 162.72L650.394 181.874C650.318 182.197 650.157 182.494 649.928 182.734C649.698 182.974 649.408 183.148 649.089 183.238Z" fill="#CCCCCC"/>
<path d="M652.977 145.651C652.38 145.043 651.94 144.3 651.694 143.484C651.447 142.669 651.402 141.807 651.561 140.97C651.988 138.736 652.239 137.275 652.286 136.743C652.449 134.924 650.61 133.452 648.79 133.217C648.72 133.208 648.661 133.202 648.612 133.198C648.658 133.244 648.708 133.29 648.751 133.331C649.097 133.656 649.527 134.06 649.425 134.477C649.363 134.728 649.134 134.906 648.724 135.021C645.878 135.817 643.686 135.086 641.827 132.719C641.304 132.046 640.944 131.261 640.777 130.426C640.111 127.157 641.886 124.371 643.492 122.609C644.817 121.157 646.965 119.393 649.673 119.242C651.779 119.124 654.284 120.336 655.033 122.52C655.387 121.996 655.857 121.562 656.408 121.252C656.959 120.941 657.574 120.763 658.205 120.732C659.643 120.701 661.058 121.095 662.274 121.864C668.212 125.266 670.765 133.369 667.847 139.56C666.012 143.455 662.036 146.354 657.47 147.126C657.184 147.175 656.895 147.199 656.605 147.199C655.927 147.198 655.256 147.061 654.633 146.795C654.01 146.529 653.446 146.14 652.977 145.651Z" fill="#2F2E41"/>
<path d="M595.543 314.162H692.783C692.916 314.162 693.042 314.11 693.136 314.016C693.229 313.923 693.282 313.796 693.282 313.664C693.282 313.531 693.229 313.405 693.136 313.311C693.042 313.217 692.916 313.165 692.783 313.165H595.543C595.41 313.165 595.284 313.217 595.19 313.311C595.096 313.405 595.044 313.531 595.044 313.664C595.044 313.796 595.096 313.923 595.19 314.016C595.284 314.11 595.41 314.162 595.543 314.162Z" fill="#3F3D56"/>
</g>
<g opacity="0.25" clip-path="url(#clip1_398_1618)">
<path d="M419.434 185.944H362.45C355.025 185.944 348.984 179.903 348.984 172.478V25.4658C348.984 18.0407 355.025 12 362.45 12H419.434C426.859 12 432.9 18.0407 432.9 25.4658V172.478C432.9 179.903 426.859 185.944 419.434 185.944Z" fill="#2F2E41"/>
<path d="M419.492 182.309H362.392C356.82 182.309 352.288 177.777 352.288 172.205V24.9122C352.288 19.3409 356.82 14.8082 362.392 14.8082H419.492C425.063 14.8082 429.596 19.3409 429.596 24.9122V172.205C429.596 177.777 425.063 182.309 419.492 182.309Z" fill="white"/>
<path d="M399.862 24.3891H381.691C379.596 24.3891 377.892 22.6848 377.892 20.5898C377.892 18.4948 379.596 16.7905 381.691 16.7905H399.862C401.957 16.7905 403.662 18.4948 403.662 20.5898C403.662 22.6848 401.957 24.3891 399.862 24.3891Z" fill="#2F2E41"/>
<path d="M455 185.856H305.138" stroke="#090814" stroke-width="1.5" stroke-miterlimit="10"/>
<path d="M413.003 137.51H394.248C393.515 137.51 392.921 138.104 392.921 138.836V144.522C392.921 145.255 393.515 145.849 394.248 145.849H413.003C413.735 145.849 414.329 145.255 414.329 144.522V138.836C414.329 138.104 413.735 137.51 413.003 137.51Z" fill="white"/>
<path d="M412.895 146.08H394.356C393.437 146.08 392.69 145.333 392.69 144.414V138.945C392.69 138.026 393.437 137.279 394.356 137.279H412.895C413.813 137.279 414.561 138.026 414.561 138.945V144.414C414.561 145.333 413.813 146.08 412.895 146.08Z" fill="#FFB6B6"/>
<path d="M384.949 137.51H366.194C365.461 137.51 364.867 138.104 364.867 138.836V144.522C364.867 145.255 365.461 145.849 366.194 145.849H384.949C385.681 145.849 386.275 145.255 386.275 144.522V138.836C386.275 138.104 385.681 137.51 384.949 137.51Z" fill="white" stroke="#090814" stroke-width="1.5" stroke-miterlimit="10"/>
<path d="M384.841 146.08H366.302C365.383 146.08 364.636 145.333 364.636 144.414V138.945C364.636 138.026 365.383 137.279 366.302 137.279H384.841C385.759 137.279 386.507 138.026 386.507 138.945V144.414C386.507 145.333 385.759 146.08 384.841 146.08Z" fill="#DCDCDC"/>
<path d="M410.923 55.7913H368.866C367.046 55.7913 365.571 57.2664 365.571 59.0861V101.143C365.571 102.963 367.046 104.438 368.866 104.438H410.923C412.743 104.438 414.218 102.963 414.218 101.143V59.0861C414.218 57.2664 412.743 55.7913 410.923 55.7913Z" fill="#DCDCDC"/>
<path d="M407.942 82.0614C407.942 87.8875 404.109 92.8186 398.826 94.477L398.239 98.3538L397.799 101.27L397.322 104.438H388.311L384.955 101.643L383.484 100.419C383.484 100.419 384.066 99.672 384.84 98.4801H384.846C385.312 97.7607 385.856 96.8767 386.372 95.8884C386.822 95.0481 387.262 94.1311 387.635 93.1868C387.668 93.0932 387.706 92.9999 387.739 92.9066C384.231 90.5784 381.913 86.5916 381.913 82.0614C381.913 74.8734 387.739 69.047 394.927 69.047C400.216 69.047 404.773 72.2045 406.805 76.7347C407.535 78.3604 407.942 80.1614 407.942 82.0614Z" fill="#F0A0A3"/>
<path d="M388.101 93.305C388.101 93.305 385.619 80.7499 389.206 82.2443C392.792 83.7387 391.833 86.265 391.833 86.265L395.27 81.184V75.3559L397.511 72.8154L407.075 76.8503C407.075 76.8503 412.156 61.9063 397.661 66.6883C397.661 66.6883 385.257 61.6074 381.671 70.4243C373.168 90.2862 388.101 93.305 388.101 93.305Z" fill="#2F2E43"/>
<path d="M403.044 104.438H378.91L384.126 99.1062C384.351 98.8756 384.587 98.6724 384.84 98.4801H384.846C386.74 97.058 389.31 96.8218 391.457 97.9476L397.799 101.27L402.983 103.988L403.044 104.438Z" fill="#2F2E43"/>
<path d="M404.378 104.438H395.883C394.274 103.428 392.473 102.308 390.633 101.182C389.974 100.781 389.255 100.6 388.503 100.6C387.383 100.6 386.174 100.995 384.955 101.643C383.637 102.346 382.303 103.34 381.04 104.438H370.881L371.117 103.988L370.447 102.725C369.119 100.21 371.408 97.4755 375.175 97.08L386.372 95.8884L388.558 95.6578C392.248 95.2677 395.938 96.3003 398.239 98.3539C398.272 98.3815 398.305 98.4145 398.338 98.4418L403.763 103.433C404.092 103.735 404.296 104.081 404.378 104.438Z" fill="#FFB6B6"/>
<path d="M357.182 106.77L353.266 99.0544L348.761 101.341L352.677 109.057C352.259 110.272 352.351 111.764 353.049 113.139C354.269 115.544 356.872 116.675 358.863 115.665C360.853 114.655 361.477 111.886 360.257 109.481C359.559 108.107 358.41 107.151 357.182 106.77Z" fill="#F0A0A3"/>
<path d="M330.608 71.8842L350.389 108.855L358.123 104.717L340.795 66.8352" fill="#FFB6B6"/>
<path d="M341.413 80.5485L346.805 105.588L323.308 106.408C323.308 106.408 326.387 89.0181 325.294 86.0128L341.413 80.5485Z" fill="#F0A0A3"/>
<path d="M345.903 180.965H351.393V173.728H345.903V180.965Z" fill="#F0A0A3"/>
<path d="M344.791 185.25C344.321 184.87 344.068 184.445 344.037 183.988C344.003 183.465 344.264 182.904 344.815 182.321C344.828 182.153 344.999 180.072 345.38 179.7C345.348 179.588 345.154 178.85 345.472 178.371C345.622 178.145 345.863 178.013 346.189 177.98L346.204 177.978L346.211 177.99C346.22 178.007 347.146 179.616 348.54 179.757C349.339 179.838 350.139 179.427 350.918 178.535C350.946 178.469 351.166 177.383 351.308 176.663L351.314 176.635L358.908 180.626L363.347 181.855C363.904 182.009 364.294 182.521 364.294 183.1C364.294 183.593 364.007 184.051 363.562 184.264L361.41 185.299C360.511 185.731 359.509 185.959 358.511 185.959H346.84C346.084 185.959 345.356 185.707 344.791 185.25Z" fill="#2F2E43"/>
<path d="M307.668 177.376L312.94 178.91L314.962 171.961L309.69 170.428L307.668 177.376Z" fill="#F0A0A3"/>
<path d="M305.404 181.18C305.059 180.684 304.934 180.206 305.033 179.758C305.145 179.246 305.553 178.781 306.245 178.374C306.305 178.217 307.05 176.267 307.519 176.016C307.52 175.9 307.54 175.137 307.979 174.765C308.186 174.59 308.455 174.531 308.777 174.59L308.791 174.592L308.795 174.606C308.799 174.625 309.239 176.429 310.538 176.954C311.282 177.255 312.165 177.083 313.162 176.444C313.208 176.389 313.723 175.407 314.06 174.756L314.073 174.73L320.25 180.684L324.169 183.103C324.662 183.407 324.893 184.008 324.731 184.564C324.593 185.038 324.19 185.396 323.703 185.477L321.348 185.869C320.364 186.033 319.337 185.973 318.38 185.694L307.173 182.434C306.447 182.223 305.818 181.777 305.404 181.18Z" fill="#2F2E43"/>
<path d="M320.77 93.6759L344.267 94.2223C344.267 94.2223 358.545 135.38 357.998 174.45H338.398L337.234 129.096L333.829 176.21L308 174.723L320.77 93.6759Z" fill="#2F2E43"/>
<path d="M343.243 47.7084C343.243 42.7785 339.247 38.7821 334.317 38.7821C329.387 38.7821 325.391 42.7785 325.391 47.7084C325.391 50.8156 326.979 53.5508 329.387 55.1495C328.368 57.8793 326.467 60.3005 326.467 60.3005L335.264 67.6313L336.99 56.2271C340.614 55.0912 343.243 51.707 343.243 47.7084Z" fill="#F0A0A3"/>
<path d="M336.969 60.5077L326.86 58.0488L320.38 66.3455C318.837 69.4943 318.593 73.1237 319.702 76.4505L325.075 92.5699C325.075 92.5699 341.468 92.2967 345.02 82.7342L346.038 80.6129C347.43 77.7133 347.114 74.2832 345.217 71.6864L336.969 60.5077Z" fill="#FFB6B6"/>
<path d="M326.209 113.8L326.396 105.15L321.346 105.04L321.158 113.691C320.216 114.566 319.594 115.925 319.56 117.466C319.502 120.162 321.263 122.388 323.495 122.436C325.726 122.484 327.583 120.338 327.641 117.641C327.675 116.1 327.112 114.715 326.209 113.8Z" fill="#F0A0A3"/>
<path d="M319.236 70.504V112.434H328.008L330.6 70.858" fill="#FFB6B6"/>
<path d="M329.609 49.0285C329.609 49.0285 336.64 46.6959 334.907 44.0481C334.907 44.0481 342.369 45.3479 342.561 44.0481C342.754 42.7483 342.561 34.4196 332.451 35.7676C322.342 37.1156 323.69 45.5887 323.69 45.5887C323.69 45.5887 324.428 53.7792 329.868 55.4642C329.868 55.4642 325.661 47.3435 329.609 49.0285Z" fill="#2F2E43"/>
<path d="M327.393 40.5526C327.393 40.5526 325.317 39.0533 322.895 39.5146C322.047 39.6761 321.15 40.2967 320.342 41.0354C318.715 42.5222 317.508 44.4067 316.722 46.4659C314.605 52.0156 310.162 65.897 317.935 67.5989C327.681 69.7326 328.287 49.1163 328.287 49.1163L327.393 40.5526Z" fill="#2F2E43"/>
</g>
<g opacity="0.25" clip-path="url(#clip2_398_1618)">
<path d="M851.541 290.146L857.252 291.646L865.754 270.331L857.325 268.119L851.541 290.146Z" fill="#A0616A"/>
<path d="M849.775 296.051L867.337 300.662L867.395 300.44C867.871 298.627 867.608 296.7 866.662 295.081C865.717 293.463 864.168 292.286 862.355 291.81L862.355 291.81L859.786 288.534L853.162 289.396L851.629 288.993L849.775 296.051Z" fill="#2F2E41"/>
<path d="M880.817 294.418L886.721 294.418L889.53 271.644L880.816 271.644L880.817 294.418Z" fill="#A0616A"/>
<path d="M880.609 300.578L898.766 300.577V300.348C898.766 298.473 898.021 296.676 896.696 295.351C895.37 294.025 893.573 293.281 891.699 293.281H891.698L888.382 290.765L882.194 293.281L880.609 293.281L880.609 300.578Z" fill="#2F2E41"/>
<path d="M866.049 185.434C864.623 187.217 865.336 193.278 865.336 193.278C865.336 193.278 862.84 212.89 863.91 214.673C864.979 216.456 863.196 217.882 862.127 220.378C861.057 222.874 859.987 228.936 859.987 228.936C853.926 233.928 854.282 256.749 854.282 256.749L852.143 277.074C852.856 279.213 862.84 279.57 864.266 279.213C865.693 278.856 879.599 228.579 879.599 228.579C879.599 228.579 878.886 277.074 878.886 279.213C878.886 281.352 888.513 280.283 890.653 280.283C892.792 280.283 906.342 192.922 906.342 192.922V187.93L904.559 185.434C904.559 185.434 867.475 183.651 866.049 185.434Z" fill="#2F2E41"/>
<path d="M881.738 120.18C887.843 120.18 892.792 115.231 892.792 109.127C892.792 103.022 887.843 98.0728 881.738 98.0728C875.634 98.0728 870.685 103.022 870.685 109.127C870.685 115.231 875.634 120.18 881.738 120.18Z" fill="#A0616A"/>
<path d="M866.887 193.32L866.827 193.235C863.607 188.727 868.45 177.894 869.18 176.324C868.313 176.042 867.57 175.469 867.078 174.701C866.586 173.933 866.375 173.019 866.482 172.113L866.797 169.437L867.125 166.811L864.774 164.46L864.767 164.401L863.414 152.561L861.446 144.697C860.705 141.724 860.768 138.608 861.629 135.667C862.491 132.727 864.119 130.069 866.347 127.966L870.894 127.243L876.421 121.918H885.334L888.39 124.838C894.398 129.763 895.825 127.623 902.599 136.894L897.749 149.675L900.46 168.524L900.462 171.935L901.874 173.505C902.383 174.07 902.752 174.747 902.953 175.48C903.154 176.213 903.182 176.984 903.032 177.729L902.847 178.658C903.564 178.966 904.198 179.441 904.694 180.044C905.19 180.647 905.535 181.36 905.698 182.124L906.194 184.438C906.619 184.998 909.42 188.733 909.42 189.754C909.42 189.907 909.306 190.055 909.064 190.22C907.155 191.512 896.605 194.147 891.935 192.279C886.961 190.29 867.189 193.273 866.99 193.304L866.887 193.32Z" fill="#3F3D56"/>
<path d="M861.272 148.48L870.463 146.681C873.862 151.757 875.687 165.637 875.687 165.637L885.848 186.711C886.473 187.09 886.986 187.628 887.335 188.271C887.683 188.913 887.856 189.636 887.835 190.366C887.813 191.097 887.598 191.809 887.212 192.429C886.826 193.05 886.283 193.557 885.637 193.899C884.991 194.241 884.266 194.406 883.536 194.376C882.806 194.347 882.096 194.125 881.48 193.732C880.863 193.34 880.362 192.791 880.027 192.141C879.692 191.492 879.535 190.765 879.572 190.035L866.318 165.066L861.272 148.48Z" fill="#A0616A"/>
<path d="M861.22 150.66L860.959 137L865.284 131.213C866.137 130.081 867.291 129.209 868.613 128.697C869.936 128.185 871.375 128.053 872.769 128.317C874.656 128.686 876.332 129.758 877.458 131.316C878.585 132.874 879.077 134.802 878.837 136.71C878.103 142.494 876.436 149.733 872.665 151.37L872.627 151.387L876.535 165.055L862.042 167.079L861.22 150.66Z" fill="#3F3D56"/>
<path d="M915.807 149.453C915.807 149.453 904.777 140.832 898.795 139.593L893.5 147.319L907.819 156.094L935.699 164.155C936.187 164.697 936.81 165.101 937.504 165.324C938.199 165.548 938.94 165.584 939.653 165.428C940.366 165.273 941.025 164.931 941.563 164.439C942.101 163.946 942.5 163.32 942.718 162.624C942.936 161.927 942.966 161.186 942.804 160.474C942.643 159.763 942.296 159.106 941.8 158.572C941.303 158.038 940.673 157.645 939.975 157.432C939.277 157.22 938.535 157.196 937.825 157.363L915.807 149.453Z" fill="#A0616A"/>
<path d="M896.401 151.186L884.907 143.8L882.506 136.986C882.04 135.647 881.958 134.204 882.268 132.82C882.579 131.436 883.271 130.167 884.265 129.156C885.622 127.794 887.446 126.998 889.367 126.929C891.289 126.861 893.164 127.524 894.615 128.786C899.012 132.615 904.679 133.898 903.941 137.942L906.058 138.252L916.884 146.473L910.5 159.641L896.401 151.186Z" fill="#3F3D56"/>
<path d="M869.2 101.863C870.442 99.9432 872.771 98.6634 875.029 99.023C875.239 97.582 875.84 96.2262 876.768 95.1034C877.695 93.9805 878.913 93.1336 880.288 92.6548C881.663 92.1761 883.144 92.0838 884.568 92.3881C885.992 92.6924 887.305 93.3816 888.365 94.3806C888.713 94.1353 889.119 93.984 889.543 93.9416C889.967 93.8992 890.395 93.9669 890.785 94.1384C891.562 94.4917 892.239 95.0344 892.752 95.7167C894.047 97.3325 894.881 99.2695 895.163 101.321C895.445 103.373 895.166 105.463 894.354 107.369C894.63 106.365 893.625 105.422 892.609 105.197C891.593 104.971 890.528 105.184 889.498 105.038C888.177 104.85 886.991 104.084 885.668 103.912C884.547 103.839 883.422 103.983 882.356 104.337C881.289 104.691 880.166 104.842 879.044 104.782C877.931 104.65 876.498 108.868 876.517 111.838C876.52 112.401 876.404 113.124 875.854 113.244C875.177 113.391 874.784 112.456 874.139 112.201C873.842 112.116 873.523 112.149 873.25 112.294C872.977 112.439 872.771 112.685 872.676 112.979C872.595 113.278 872.586 113.592 872.65 113.895C872.715 114.198 872.851 114.481 873.047 114.721C873.444 115.196 873.914 115.604 874.441 115.93L874.175 116.151C873.733 116.734 872.817 116.76 872.18 116.399C871.571 115.986 871.078 115.425 870.748 114.768C869.57 112.808 868.536 110.72 868.12 108.472C867.705 106.224 867.959 103.784 869.2 101.863Z" fill="#2F2E41"/>
<path d="M1126.57 38.9607H850.461C850.345 38.9582 850.235 38.9104 850.154 38.8275C850.073 38.7446 850.027 38.6333 850.027 38.5174C850.027 38.4015 850.073 38.2901 850.154 38.2073C850.235 38.1244 850.345 38.0766 850.461 38.074H1126.57C1126.68 38.0766 1126.79 38.1244 1126.87 38.2073C1126.95 38.2901 1127 38.4015 1127 38.5174C1127 38.6333 1126.95 38.7446 1126.87 38.8275C1126.79 38.9104 1126.68 38.9582 1126.57 38.9607Z" fill="#CACACA"/>
<path d="M860.222 32.7538C862.857 32.7538 864.993 30.5703 864.993 27.8769C864.993 25.1835 862.857 23 860.222 23C857.588 23 855.452 25.1835 855.452 27.8769C855.452 30.5703 857.588 32.7538 860.222 32.7538Z" fill="#3F3D56"/>
<path d="M876.703 32.7538C879.337 32.7538 881.473 30.5703 881.473 27.8769C881.473 25.1835 879.337 23 876.703 23C874.068 23 871.932 25.1835 871.932 27.8769C871.932 30.5703 874.068 32.7538 876.703 32.7538Z" fill="#3F3D56"/>
<path d="M893.183 32.7538C895.818 32.7538 897.953 30.5703 897.953 27.8769C897.953 25.1835 895.818 23 893.183 23C890.548 23 888.412 25.1835 888.412 27.8769C888.412 30.5703 890.548 32.7538 893.183 32.7538Z" fill="#3F3D56"/>
<path d="M1116.69 24.2088H1104.98C1104.75 24.2134 1104.53 24.3088 1104.37 24.4745C1104.21 24.6403 1104.11 24.8631 1104.11 25.0952C1104.11 25.3273 1104.21 25.5501 1104.37 25.7159C1104.53 25.8816 1104.75 25.977 1104.98 25.9816H1116.69C1116.92 25.977 1117.14 25.8816 1117.31 25.7159C1117.47 25.5501 1117.56 25.3273 1117.56 25.0952C1117.56 24.8631 1117.47 24.6403 1117.31 24.4745C1117.14 24.3088 1116.92 24.2134 1116.69 24.2088Z" fill="#3F3D56"/>
<path d="M1116.69 27.5361H1104.98C1104.75 27.5407 1104.53 27.6361 1104.37 27.8018C1104.21 27.9676 1104.11 28.1904 1104.11 28.4225C1104.11 28.6546 1104.21 28.8774 1104.37 29.0431C1104.53 29.2089 1104.75 29.3043 1104.98 29.3089H1116.69C1116.92 29.3043 1117.14 29.2089 1117.31 29.0431C1117.47 28.8774 1117.56 28.6546 1117.56 28.4225C1117.56 28.1904 1117.47 27.9676 1117.31 27.8018C1117.14 27.6361 1116.92 27.5407 1116.69 27.5361Z" fill="#3F3D56"/>
<path d="M1116.69 30.859H1104.98C1104.75 30.8636 1104.53 30.959 1104.37 31.1248C1104.21 31.2905 1104.11 31.5133 1104.11 31.7454C1104.11 31.9775 1104.21 32.2003 1104.37 32.3661C1104.53 32.5318 1104.75 32.6272 1104.98 32.6318H1116.69C1116.92 32.6272 1117.14 32.5318 1117.31 32.3661C1117.47 32.2003 1117.56 31.9775 1117.56 31.7454C1117.56 31.5133 1117.47 31.2905 1117.31 31.1248C1117.14 30.959 1116.92 30.8636 1116.69 30.859Z" fill="#3F3D56"/>
<path d="M1101.82 56.5739H875.209C873.954 56.5758 872.751 57.0751 871.864 57.9623C870.977 58.8496 870.477 60.0524 870.476 61.3072V62.0705C870.477 63.3253 870.977 64.5282 871.864 65.4154C872.751 66.3027 873.954 66.802 875.209 66.8039H1101.82C1103.07 66.802 1104.28 66.3027 1105.16 65.4154C1106.05 64.5282 1106.55 63.3253 1106.55 62.0705V61.3072C1106.55 60.0524 1106.05 58.8496 1105.16 57.9623C1104.28 57.0751 1103.07 56.5758 1101.82 56.5739Z" fill="#F0F0F0"/>
<path d="M902.557 63.5776H880.986C880.503 63.5776 880.039 63.3857 879.698 63.0441C879.356 62.7025 879.164 62.2392 879.164 61.7561C879.164 61.273 879.356 60.8097 879.698 60.4681C880.039 60.1265 880.503 59.9346 880.986 59.9346H902.557C904.906 59.9018 904.929 63.6107 902.557 63.5776Z" fill="white"/>
<path d="M967.084 63.5776H945.513C945.03 63.5776 944.567 63.3857 944.225 63.0441C943.884 62.7025 943.692 62.2392 943.692 61.7561C943.692 61.273 943.884 60.8097 944.225 60.4681C944.567 60.1265 945.03 59.9346 945.513 59.9346H967.084C969.433 59.9018 969.457 63.6107 967.084 63.5776Z" fill="white"/>
<path d="M1031.61 63.5776H1010.04C1009.56 63.5776 1009.09 63.3857 1008.75 63.0441C1008.41 62.7025 1008.22 62.2392 1008.22 61.7561C1008.22 61.273 1008.41 60.8097 1008.75 60.4681C1009.09 60.1265 1009.56 59.9346 1010.04 59.9346H1031.61C1033.96 59.9018 1033.98 63.6107 1031.61 63.5776Z" fill="white"/>
<path d="M1092.79 63.7743H1071.22C1070.74 63.7743 1070.28 63.5824 1069.94 63.2408C1069.59 62.8992 1069.4 62.4359 1069.4 61.9528C1069.4 61.4697 1069.59 61.0064 1069.94 60.6648C1070.28 60.3232 1070.74 60.1313 1071.22 60.1313H1092.79C1095.14 60.0985 1095.17 63.8074 1092.79 63.7743Z" fill="#FFB6B6"/>
<path d="M1059.14 56.5739H1058.35V66.8039H1059.14V56.5739Z" fill="white"/>
<path d="M945.213 156.143C945.181 156.143 945.149 156.143 945.117 156.141C944.738 156.128 944.368 156.022 944.038 155.835C943.709 155.648 943.429 155.383 943.224 155.065C941.685 152.765 939.796 150.719 937.626 149.001C936.312 147.951 934.939 146.975 933.612 146.03C930.187 143.595 926.962 141.302 925.171 138.132C921.268 131.222 925.865 121.597 932.432 117.28C939.798 112.439 949.487 111.679 958.861 111.58C959.835 111.57 960.809 111.565 961.785 111.565C978.673 111.571 995.526 113.112 1012.14 116.168C1017.66 117.187 1023.44 118.436 1028.09 121.465C1032.7 124.476 1035.51 129.219 1035.24 133.547C1034.84 139.865 1028.14 144.586 1022.04 145.821C1016.23 146.996 1010.19 146.202 1003.79 145.361C1002.38 145.175 1000.92 144.983 999.48 144.816C983.795 143.003 954.331 148.591 953.084 148.83L951.847 149.067L947.049 155.242C946.833 155.523 946.555 155.751 946.237 155.907C945.918 156.064 945.568 156.144 945.213 156.143Z" fill="#FFB6B6"/>
<path d="M1015.06 125.32H948.765C948.383 125.32 948.016 125.168 947.745 124.897C947.475 124.627 947.323 124.26 947.323 123.877C947.323 123.495 947.475 123.128 947.745 122.858C948.016 122.587 948.383 122.435 948.765 122.435H1015.06C1015.44 122.435 1015.81 122.587 1016.08 122.858C1016.35 123.128 1016.5 123.495 1016.5 123.877C1016.5 124.26 1016.35 124.627 1016.08 124.897C1015.81 125.168 1015.44 125.32 1015.06 125.32Z" fill="white"/>
<path d="M1015.06 134.173H948.765C948.576 134.174 948.388 134.136 948.213 134.064C948.038 133.992 947.879 133.886 947.745 133.752C947.611 133.618 947.504 133.459 947.432 133.284C947.359 133.109 947.322 132.922 947.321 132.732C947.321 132.543 947.358 132.355 947.431 132.18C947.503 132.005 947.609 131.846 947.743 131.712C947.877 131.578 948.035 131.472 948.21 131.399C948.385 131.326 948.573 131.289 948.762 131.289H1015.06C1015.44 131.289 1015.81 131.441 1016.08 131.711C1016.35 131.982 1016.5 132.348 1016.5 132.731C1016.5 133.114 1016.35 133.48 1016.08 133.751C1015.81 134.021 1015.44 134.173 1015.06 134.173Z" fill="white"/>
<path d="M956.491 143.027H948.765C948.383 143.027 948.016 142.875 947.745 142.604C947.475 142.334 947.323 141.967 947.323 141.584C947.323 141.202 947.475 140.835 947.745 140.564C948.016 140.294 948.383 140.142 948.765 140.142H956.491C956.873 140.142 957.24 140.294 957.511 140.564C957.781 140.835 957.933 141.202 957.933 141.584C957.933 141.967 957.781 142.334 957.511 142.604C957.24 142.875 956.873 143.027 956.491 143.027Z" fill="white"/>
<path d="M1063.6 202.247L1059.78 197.328L1058.79 197.14C1057.8 196.949 1034.33 192.498 1021.83 193.943C1020.69 194.075 1019.52 194.228 1018.4 194.376C1013.31 195.046 1008.5 195.679 1003.86 194.743C999.007 193.76 993.671 189.999 993.353 184.966C993.135 181.519 995.371 177.741 999.049 175.342C1002.75 172.929 1007.35 171.935 1011.75 171.123C1024.98 168.689 1038.41 167.461 1051.86 167.456C1052.64 167.456 1053.41 167.46 1054.19 167.469C1061.66 167.548 1069.37 168.153 1075.24 172.009C1080.47 175.447 1084.13 183.114 1081.02 188.619C1079.6 191.143 1077.03 192.97 1074.3 194.91C1073.24 195.662 1072.15 196.44 1071.1 197.276C1069.38 198.644 1067.87 200.274 1066.64 202.106C1066.48 202.36 1066.26 202.57 1066 202.72C1065.73 202.869 1065.44 202.952 1065.14 202.963C1065.11 202.964 1065.09 202.965 1065.06 202.965C1064.78 202.966 1064.5 202.902 1064.25 202.777C1063.99 202.653 1063.77 202.471 1063.6 202.247Z" fill="#F2F2F2"/>
<path d="M1009.43 178.413H1062.23C1062.54 178.412 1062.83 178.291 1063.04 178.076C1063.26 177.86 1063.38 177.568 1063.38 177.264C1063.38 176.96 1063.26 176.668 1063.04 176.452C1062.83 176.237 1062.54 176.116 1062.23 176.115H1009.43C1009.12 176.116 1008.83 176.237 1008.61 176.452C1008.4 176.668 1008.28 176.96 1008.28 177.264C1008.28 177.568 1008.4 177.86 1008.61 178.076C1008.83 178.291 1009.12 178.412 1009.43 178.413Z" fill="white"/>
<path d="M1009.43 185.465H1062.23C1062.38 185.466 1062.53 185.436 1062.67 185.379C1062.81 185.321 1062.94 185.237 1063.04 185.13C1063.15 185.023 1063.24 184.897 1063.29 184.757C1063.35 184.618 1063.38 184.468 1063.38 184.317C1063.38 184.166 1063.35 184.017 1063.3 183.877C1063.24 183.738 1063.15 183.611 1063.05 183.504C1062.94 183.397 1062.81 183.312 1062.67 183.255C1062.53 183.197 1062.38 183.167 1062.23 183.167H1009.43C1009.12 183.168 1008.83 183.289 1008.61 183.505C1008.4 183.72 1008.28 184.012 1008.28 184.316C1008.28 184.62 1008.4 184.912 1008.61 185.128C1008.83 185.343 1009.12 185.465 1009.43 185.465Z" fill="white"/>
<path d="M1056.08 192.517H1062.23C1062.54 192.517 1062.83 192.396 1063.04 192.181C1063.26 191.965 1063.38 191.673 1063.38 191.368C1063.38 191.064 1063.26 190.771 1063.04 190.556C1062.83 190.34 1062.54 190.219 1062.23 190.219H1056.08C1055.77 190.219 1055.48 190.34 1055.26 190.556C1055.05 190.771 1054.93 191.064 1054.93 191.368C1054.93 191.673 1055.05 191.965 1055.26 192.181C1055.48 192.396 1055.77 192.517 1056.08 192.517Z" fill="white"/>
<path d="M946.032 166.199C949.904 166.199 953.043 163.06 953.043 159.188C953.043 155.316 949.904 152.177 946.032 152.177C942.16 152.177 939.021 155.316 939.021 159.188C939.021 163.06 942.16 166.199 946.032 166.199Z" fill="white"/>
<path d="M946.032 166.285C944.629 166.285 943.256 165.869 942.089 165.089C940.922 164.309 940.013 163.201 939.476 161.904C938.938 160.607 938.798 159.18 939.072 157.803C939.346 156.427 940.021 155.162 941.014 154.17C942.006 153.177 943.271 152.501 944.648 152.227C946.024 151.954 947.451 152.094 948.748 152.631C950.045 153.168 951.153 154.078 951.933 155.245C952.713 156.412 953.129 157.784 953.129 159.188C953.127 161.069 952.379 162.873 951.048 164.204C949.718 165.534 947.914 166.283 946.032 166.285Z" fill="#3F3D56"/>
<path d="M945.507 161.99C945.492 161.99 945.477 161.989 945.462 161.989C945.33 161.982 945.201 161.947 945.084 161.887C944.967 161.826 944.864 161.74 944.783 161.636L943.611 160.129C943.537 160.034 943.483 159.925 943.451 159.809C943.419 159.693 943.41 159.572 943.425 159.452C943.44 159.333 943.478 159.217 943.538 159.112C943.597 159.008 943.677 158.916 943.772 158.842L943.814 158.809C943.909 158.735 944.018 158.68 944.134 158.648C944.25 158.616 944.372 158.608 944.491 158.623C944.611 158.638 944.726 158.676 944.831 158.736C944.936 158.795 945.028 158.875 945.102 158.97C945.161 159.046 945.236 159.108 945.321 159.153C945.407 159.197 945.501 159.222 945.597 159.227C945.693 159.232 945.789 159.216 945.879 159.18C945.968 159.144 946.049 159.089 946.115 159.019L948.494 156.508C948.661 156.331 948.892 156.229 949.135 156.222C949.378 156.215 949.614 156.305 949.791 156.472L949.83 156.51C949.917 156.592 949.988 156.692 950.037 156.802C950.086 156.912 950.113 157.03 950.116 157.151C950.119 157.271 950.099 157.391 950.056 157.504C950.013 157.616 949.948 157.719 949.865 157.806L946.173 161.703C946.087 161.794 945.984 161.866 945.87 161.915C945.755 161.965 945.632 161.99 945.507 161.99Z" fill="white"/>
<path d="M1065.49 212.696C1069.36 212.696 1072.5 209.557 1072.5 205.685C1072.5 201.813 1069.36 198.674 1065.49 198.674C1061.61 198.674 1058.47 201.813 1058.47 205.685C1058.47 209.557 1061.61 212.696 1065.49 212.696Z" fill="white"/>
<path d="M1065.49 212.782C1064.08 212.782 1062.71 212.366 1061.54 211.586C1060.38 210.806 1059.47 209.698 1058.93 208.401C1058.39 207.104 1058.25 205.678 1058.52 204.301C1058.8 202.924 1059.47 201.66 1060.47 200.667C1061.46 199.675 1062.72 198.999 1064.1 198.725C1065.48 198.451 1066.9 198.592 1068.2 199.129C1069.5 199.666 1070.61 200.575 1071.39 201.743C1072.17 202.91 1072.58 204.282 1072.58 205.685C1072.58 207.567 1071.83 209.371 1070.5 210.701C1069.17 212.032 1067.37 212.78 1065.49 212.782Z" fill="#E6E6E6"/>
<path d="M1064.96 208.487C1064.95 208.487 1064.93 208.487 1064.92 208.486C1064.78 208.48 1064.65 208.445 1064.54 208.384C1064.42 208.323 1064.32 208.237 1064.24 208.133L1063.06 206.627C1062.99 206.532 1062.94 206.423 1062.9 206.307C1062.87 206.191 1062.86 206.069 1062.88 205.95C1062.89 205.83 1062.93 205.715 1062.99 205.61C1063.05 205.505 1063.13 205.413 1063.22 205.339L1063.27 205.306C1063.36 205.232 1063.47 205.178 1063.59 205.146C1063.7 205.114 1063.82 205.105 1063.94 205.12C1064.06 205.135 1064.18 205.173 1064.28 205.233C1064.39 205.293 1064.48 205.372 1064.55 205.467C1064.61 205.543 1064.69 205.606 1064.77 205.65C1064.86 205.694 1064.95 205.72 1065.05 205.724C1065.15 205.729 1065.24 205.713 1065.33 205.677C1065.42 205.641 1065.5 205.587 1065.57 205.517L1067.95 203.005C1068.11 202.829 1068.34 202.726 1068.59 202.719C1068.83 202.713 1069.07 202.803 1069.24 202.97L1069.28 203.007C1069.37 203.09 1069.44 203.189 1069.49 203.299C1069.54 203.409 1069.57 203.528 1069.57 203.648C1069.57 203.769 1069.55 203.889 1069.51 204.001C1069.47 204.114 1069.4 204.216 1069.32 204.304L1065.63 208.201C1065.54 208.291 1065.44 208.363 1065.32 208.413C1065.21 208.462 1065.08 208.487 1064.96 208.487Z" fill="white"/>
<path d="M935.901 293.693L932.534 288.283L931.862 291.375C931.744 291.916 931.626 292.466 931.517 293.012C930.56 292.196 929.543 291.44 928.548 290.715C925.491 288.497 922.436 286.276 919.382 284.052L920.338 289.598C920.928 293.012 921.544 296.497 923.002 299.619C923.164 299.972 923.338 300.322 923.526 300.662H937.735C937.849 300.346 937.928 300.018 937.971 299.684C937.974 299.663 937.976 299.641 937.975 299.619C938.198 297.501 937.027 295.505 935.901 293.693Z" fill="#F0F0F0"/>
<path d="M947.927 301.194L827.52 301.328C827.382 301.328 827.25 301.273 827.153 301.175C827.056 301.078 827.001 300.946 827.001 300.808C827.001 300.671 827.056 300.539 827.153 300.441C827.25 300.344 827.382 300.289 827.52 300.288L947.927 300.154C947.995 300.154 948.063 300.167 948.126 300.193C948.189 300.219 948.247 300.258 948.295 300.306C948.344 300.354 948.382 300.412 948.408 300.475C948.435 300.538 948.448 300.606 948.448 300.674C948.448 300.742 948.435 300.81 948.408 300.873C948.382 300.937 948.344 300.994 948.295 301.042C948.247 301.091 948.189 301.129 948.126 301.155C948.063 301.181 947.995 301.194 947.927 301.194Z" fill="#CACACA"/>
</g>
<g opacity="0.25" clip-path="url(#clip3_398_1618)">
<path d="M1406 198.461C1406 206.212 1403.08 213.677 1397.81 219.364C1392.54 225.051 1385.33 228.542 1377.6 229.138C1377.34 229.157 1377.07 229.177 1376.81 229.189V199.988C1376.81 199.696 1376.75 199.408 1376.62 199.144C1376.49 198.881 1376.31 198.649 1376.08 198.465C1376.06 198.438 1376.03 198.414 1376 198.394C1375.97 198.371 1375.94 198.35 1375.91 198.331C1375.63 198.153 1375.31 198.047 1374.98 198.022C1374.66 197.998 1374.33 198.057 1374.03 198.193L1373.7 197.475C1374.06 197.312 1374.45 197.227 1374.84 197.227L1352.37 177.871C1352.54 177.674 1352.73 177.48 1352.91 177.287C1357.14 172.822 1362.62 169.73 1368.63 168.41C1374.64 167.09 1380.91 167.603 1386.63 169.883C1392.35 172.163 1397.25 176.105 1400.7 181.199C1404.15 186.294 1406 192.307 1406 198.461Z" fill="#F2F2F2"/>
<path d="M1113.8 219.44C1113.69 218.869 1113.7 218.281 1113.84 217.716C1113.98 217.152 1114.25 216.625 1114.61 216.173C1114.98 215.721 1115.44 215.354 1115.96 215.099C1116.49 214.844 1117.06 214.707 1117.64 214.698L1135.37 193.585L1139.8 199.246L1121.73 218.895C1121.68 219.873 1121.27 220.799 1120.59 221.499C1119.9 222.198 1118.98 222.621 1118.01 222.688C1117.03 222.755 1116.06 222.462 1115.29 221.863C1114.51 221.265 1113.98 220.403 1113.8 219.44Z" fill="#FFB8B8"/>
<path d="M1198.02 193.455C1197.9 193.634 1197.79 193.823 1197.69 194.02L1178.33 196.788L1175.39 193.055L1169.17 196.757L1175.01 205.864L1198.63 198.902C1199.25 199.466 1200.03 199.827 1200.87 199.937C1201.7 200.047 1202.55 199.901 1203.3 199.517C1204.04 199.134 1204.66 198.532 1205.06 197.791C1205.45 197.051 1205.62 196.207 1205.52 195.371C1205.43 194.536 1205.08 193.749 1204.53 193.114C1203.98 192.48 1203.25 192.029 1202.43 191.821C1201.62 191.613 1200.76 191.658 1199.97 191.95C1199.18 192.242 1198.5 192.767 1198.02 193.455Z" fill="#FFB8B8"/>
<path d="M1164.94 263.994L1168.37 267.406L1183.16 255.813L1178.1 250.777L1164.94 263.994Z" fill="#FFB8B8"/>
<path d="M1171.81 277.169L1161.04 266.445L1165.18 262.284L1171.79 268.865C1172.34 269.409 1172.77 270.055 1173.07 270.767C1173.36 271.479 1173.52 272.242 1173.52 273.013C1173.52 273.784 1173.37 274.548 1173.08 275.261C1172.78 275.974 1172.35 276.623 1171.81 277.169Z" fill="#2F2E41"/>
<path d="M1146.73 296.722H1151.56L1153.86 278.07H1146.72L1146.73 296.722Z" fill="#FFB8B8"/>
<path d="M1160.89 301.212L1145.69 301.213L1145.69 295.341L1155.02 295.34C1155.79 295.34 1156.55 295.492 1157.26 295.787C1157.97 296.082 1158.62 296.515 1159.17 297.06C1159.71 297.605 1160.15 298.253 1160.44 298.965C1160.74 299.677 1160.89 300.441 1160.89 301.212Z" fill="#2F2E41"/>
<path d="M1145.67 282.316L1140.17 241.693C1139.3 235.554 1139.57 229.309 1140.96 223.266C1142.09 218.409 1143.61 215.045 1145.49 213.268C1145.79 212.989 1146.17 212.815 1146.58 212.773L1164.76 210.879C1165.11 210.843 1165.47 210.908 1165.78 211.065C1166.1 211.222 1166.36 211.466 1166.54 211.768L1167.14 212.764C1167.21 212.885 1167.27 213.014 1167.31 213.148L1171.16 225.068C1171.22 225.249 1171.31 225.415 1171.43 225.559C1171.55 225.703 1171.7 225.822 1171.87 225.907C1177.93 228.998 1197.59 239.432 1196.47 243.934C1195.41 248.163 1185.51 255.021 1182.5 257.022C1182.19 257.227 1181.83 257.335 1181.46 257.333C1181.1 257.33 1180.74 257.216 1180.43 257.007L1175.44 253.589C1175.19 253.422 1174.99 253.2 1174.85 252.939C1174.71 252.679 1174.64 252.389 1174.63 252.094C1174.63 251.798 1174.69 251.506 1174.82 251.241C1174.95 250.976 1175.15 250.747 1175.39 250.571L1178.83 248.033C1179.04 247.878 1179.21 247.668 1179.31 247.426C1179.41 247.184 1179.44 246.919 1179.4 246.66C1179.36 246.401 1179.25 246.158 1179.09 245.956C1178.92 245.754 1178.7 245.602 1178.45 245.515L1159.95 239.024C1159.75 238.951 1159.52 238.927 1159.31 238.953C1159.09 238.979 1158.88 239.055 1158.69 239.175C1158.51 239.295 1158.35 239.456 1158.24 239.645C1158.13 239.834 1158.06 240.046 1158.04 240.265L1154.63 281.954C1154.59 282.401 1154.39 282.819 1154.07 283.131C1153.75 283.443 1153.33 283.628 1152.88 283.652L1147.6 283.916C1147.57 283.917 1147.54 283.918 1147.5 283.918C1147.06 283.92 1146.62 283.758 1146.29 283.463C1145.95 283.168 1145.73 282.76 1145.67 282.316Z" fill="#2F2E41"/>
<path d="M1154.01 177.245C1159.37 177.245 1163.7 172.908 1163.7 167.557C1163.7 162.207 1159.37 157.869 1154.01 157.869C1148.66 157.869 1144.33 162.207 1144.33 167.557C1144.33 172.908 1148.66 177.245 1154.01 177.245Z" fill="#FFB8B8"/>
<path d="M1144.95 211.608L1137.82 185.588L1137.94 185.506C1138.1 185.403 1153.47 175.253 1171.46 183.432L1171.79 183.619L1167.57 210.626C1167.47 211.243 1167.17 211.807 1166.7 212.223C1166.24 212.639 1165.65 212.88 1165.02 212.905L1147.63 213.574C1147.6 213.575 1147.56 213.576 1147.53 213.576C1146.94 213.577 1146.37 213.385 1145.91 213.029C1145.44 212.673 1145.11 212.174 1144.95 211.608Z" fill="#CCCCCC"/>
<path d="M1137.55 202.528L1131.61 195.697C1131.33 195.369 1131.16 194.951 1131.16 194.515C1131.15 194.08 1131.3 193.656 1131.57 193.318L1137.78 185.648L1142.54 186.948L1145.07 195.792L1140.46 202.374C1140.3 202.605 1140.09 202.796 1139.85 202.933C1139.6 203.069 1139.33 203.148 1139.04 203.161C1139.01 203.163 1138.98 203.164 1138.95 203.164C1138.68 203.164 1138.42 203.108 1138.18 202.998C1137.94 202.888 1137.72 202.728 1137.55 202.528Z" fill="#CCCCCC"/>
<path d="M1170.39 201.105C1170.11 201.091 1169.84 201.013 1169.59 200.876C1169.35 200.74 1169.14 200.549 1168.97 200.318L1164.37 193.736L1166.58 184.426L1170.97 183.229L1171.79 183.619L1177.87 191.261C1178.14 191.599 1178.29 192.023 1178.28 192.459C1178.27 192.894 1178.11 193.313 1177.83 193.641L1171.89 200.471C1171.72 200.671 1171.5 200.831 1171.26 200.941C1171.02 201.051 1170.76 201.108 1170.49 201.107C1170.46 201.107 1170.43 201.106 1170.39 201.105Z" fill="#CCCCCC"/>
<path d="M1376.81 198.055C1376.81 198.153 1376.78 198.249 1376.72 198.323C1376.65 198.403 1376.55 198.452 1376.45 198.46C1376.34 198.468 1376.24 198.434 1376.16 198.366L1374.84 197.227L1352.37 177.871L1289.35 123.575C1288.99 123.267 1288.54 123.098 1288.06 123.099C1287.59 123.1 1287.13 123.27 1286.77 123.579L1201.91 197.305L1201.15 197.968C1201.12 197.994 1201.08 198.015 1201.05 198.031C1200.98 198.059 1200.92 198.07 1200.85 198.063C1200.75 198.052 1200.66 198.006 1200.59 197.933C1200.56 197.894 1200.53 197.849 1200.51 197.8C1200.5 197.751 1200.49 197.699 1200.49 197.647C1200.5 197.595 1200.51 197.545 1200.53 197.498C1200.56 197.452 1200.59 197.411 1200.63 197.376L1200.73 197.282L1286.26 122.983C1286.76 122.552 1287.4 122.314 1288.06 122.312C1288.72 122.311 1289.37 122.546 1289.87 122.975L1352.91 177.287L1376.67 197.767C1376.71 197.803 1376.75 197.847 1376.77 197.897C1376.8 197.946 1376.81 198 1376.81 198.055Z" fill="#3F3D56"/>
<path d="M1328.9 209.703L1327.86 206.847L1324.29 196.986L1316.59 175.753L1307.98 152.019L1292.46 109.209C1292.15 108.374 1291.53 107.694 1290.72 107.318C1289.92 106.942 1289 106.9 1288.16 107.201L1198.42 139.739C1197.59 140.044 1196.91 140.667 1196.53 141.472C1196.15 142.277 1196.11 143.199 1196.41 144.035L1218.42 204.725L1218.79 205.762L1241.89 216.231L1248.39 219.174L1249.44 219.651L1276.93 232.112L1277.99 231.725L1296.02 225.189L1323.22 215.328L1326.89 213.998C1327.72 213.694 1328.4 213.071 1328.78 212.266C1329.16 211.461 1329.2 210.539 1328.9 209.703Z" fill="#E6E6E6"/>
<path d="M1291.27 159.15C1290.82 157.922 1289.9 156.921 1288.72 156.367C1287.53 155.813 1286.18 155.752 1284.95 156.196L1249.44 169.075L1232.29 175.291C1231.68 175.511 1231.12 175.85 1230.64 176.286C1230.17 176.723 1229.78 177.25 1229.5 177.836C1229.23 178.423 1229.07 179.058 1229.04 179.705C1229.01 180.352 1229.11 180.999 1229.33 181.608C1229.55 182.217 1229.89 182.777 1230.33 183.255C1230.77 183.733 1231.29 184.12 1231.88 184.394C1232.47 184.668 1233.1 184.824 1233.75 184.853C1234.4 184.881 1235.04 184.782 1235.65 184.561L1249.44 179.563L1288.31 165.469C1289.54 165.022 1290.54 164.105 1291.1 162.921C1291.65 161.736 1291.71 160.38 1291.27 159.15Z" fill="white"/>
<path d="M1297.52 176.396C1297.07 175.167 1296.15 174.166 1294.97 173.612C1293.79 173.058 1292.43 172.997 1291.2 173.441L1285.18 175.623L1249.44 188.584L1238.54 192.533C1237.32 192.979 1236.31 193.895 1235.76 195.079C1235.21 196.264 1235.15 197.619 1235.59 198.848C1236.04 200.077 1236.95 201.079 1238.14 201.634C1239.32 202.188 1240.68 202.25 1241.91 201.806L1249.44 199.073L1294.56 182.711C1294.67 182.675 1294.77 182.632 1294.86 182.589C1296.01 182.086 1296.92 181.166 1297.41 180.016C1297.91 178.866 1297.94 177.572 1297.52 176.396Z" fill="white"/>
<path d="M1303.84 193.822C1303.39 192.594 1302.48 191.593 1301.29 191.039C1300.11 190.485 1298.75 190.424 1297.52 190.868L1280.65 196.986L1267.59 201.723L1249.44 208.303L1244.86 209.963C1243.81 210.348 1242.91 211.083 1242.33 212.046C1241.75 213.008 1241.51 214.141 1241.66 215.257C1241.7 215.589 1241.78 215.915 1241.89 216.231L1248.39 219.174L1249.44 218.791H1249.45L1282.39 206.847L1300.88 200.141C1302.11 199.695 1303.11 198.778 1303.67 197.593C1304.22 196.408 1304.28 195.052 1303.84 193.822Z" fill="white"/>
<path d="M1266.87 142.197C1266.42 140.968 1265.5 139.967 1264.32 139.413C1263.13 138.86 1261.78 138.798 1260.55 139.242L1240.15 146.634C1238.93 147.081 1237.92 147.997 1237.37 149.181C1236.82 150.365 1236.76 151.721 1237.2 152.95C1237.65 154.179 1238.56 155.181 1239.75 155.735C1240.93 156.29 1242.28 156.352 1243.51 155.908L1249.97 153.569L1254.24 152.019L1263.91 148.512C1265.14 148.065 1266.14 147.149 1266.69 145.965C1267.25 144.781 1267.31 143.426 1266.87 142.197Z" fill="white"/>
<path d="M1348.25 152.019H1252.79C1252.23 152.019 1251.67 152.162 1251.18 152.432C1250.69 152.703 1250.27 153.094 1249.97 153.569C1249.62 154.106 1249.44 154.732 1249.44 155.371V219.651L1276.93 232.112L1280.8 233.867L1286.92 236.64C1287.28 236.802 1287.67 236.885 1288.06 236.885C1288.45 236.885 1288.84 236.802 1289.2 236.64L1295.32 233.867L1314.46 225.189L1332.31 217.099L1351.6 208.358V155.371C1351.6 154.482 1351.25 153.63 1350.62 153.001C1349.99 152.373 1349.14 152.019 1348.25 152.019Z" fill="#FFB6B6"/>
<path d="M1328.53 196.986H1272.51C1271.24 196.987 1270.02 197.48 1269.1 198.363C1268.18 199.246 1267.64 200.451 1267.59 201.723C1267.58 201.787 1267.58 201.852 1267.58 201.916C1267.59 203.224 1268.11 204.477 1269.03 205.401C1269.95 206.325 1271.21 206.845 1272.51 206.847H1328.53C1329.83 206.847 1331.09 206.328 1332.01 205.403C1332.94 204.478 1333.46 203.224 1333.46 201.916C1333.46 200.609 1332.94 199.355 1332.01 198.43C1331.09 197.505 1329.83 196.986 1328.53 196.986Z" fill="white"/>
<path d="M1331.72 216.503C1330.83 215.743 1329.7 215.326 1328.53 215.328H1272.51C1271.21 215.328 1269.95 215.847 1269.03 216.772C1268.1 217.697 1267.58 218.951 1267.58 220.258C1267.58 221.566 1268.1 222.82 1269.03 223.745C1269.95 224.67 1271.21 225.189 1272.51 225.189H1314.46L1332.31 217.099C1332.13 216.884 1331.93 216.685 1331.72 216.503Z" fill="white"/>
<path d="M1280.8 233.867L1286.92 236.64C1287.28 236.802 1287.67 236.885 1288.06 236.885C1288.45 236.885 1288.84 236.802 1289.2 236.64L1295.32 233.867H1280.8Z" fill="white"/>
<path d="M1316 175.966C1315.65 175.016 1315.02 174.197 1314.19 173.618C1313.36 173.038 1312.38 172.728 1311.37 172.727H1289.67C1288.73 172.728 1287.8 173.001 1287 173.515C1286.21 174.028 1285.58 174.76 1285.18 175.622C1284.89 176.261 1284.74 176.955 1284.74 177.658C1284.74 178.965 1285.26 180.218 1286.19 181.142C1287.11 182.067 1288.37 182.587 1289.67 182.588H1311.37C1312.16 182.588 1312.94 182.397 1313.65 182.031C1314.35 181.664 1314.95 181.134 1315.41 180.483C1315.86 179.833 1316.15 179.083 1316.26 178.297C1316.36 177.51 1316.27 176.711 1316 175.966Z" fill="white"/>
<path d="M1312.55 225.189L1293.4 233.867L1288.87 235.922C1288.62 236.037 1288.34 236.097 1288.06 236.097C1287.78 236.097 1287.5 236.037 1287.25 235.922L1282.71 233.867H1280.8L1286.92 236.64C1287.28 236.802 1287.67 236.885 1288.06 236.885C1288.45 236.885 1288.84 236.802 1289.2 236.64L1295.32 233.867L1314.46 225.189H1312.55ZM1312.55 225.189L1293.4 233.867L1288.87 235.922C1288.62 236.037 1288.34 236.097 1288.06 236.097C1287.78 236.097 1287.5 236.037 1287.25 235.922L1282.71 233.867H1280.8L1286.92 236.64C1287.28 236.802 1287.67 236.885 1288.06 236.885C1288.45 236.885 1288.84 236.802 1289.2 236.64L1295.32 233.867L1314.46 225.189H1312.55ZM1312.55 225.189L1293.4 233.867L1288.87 235.922C1288.62 236.037 1288.34 236.097 1288.06 236.097C1287.78 236.097 1287.5 236.037 1287.25 235.922L1282.71 233.867H1280.8L1286.92 236.64C1287.28 236.802 1287.67 236.885 1288.06 236.885C1288.45 236.885 1288.84 236.802 1289.2 236.64L1295.32 233.867L1314.46 225.189H1312.55ZM1376.81 198.055C1376.67 197.91 1376.51 197.781 1376.33 197.668C1375.95 197.417 1375.5 197.268 1375.04 197.234C1374.58 197.2 1374.12 197.283 1373.7 197.475L1331.72 216.503L1312.55 225.189L1293.4 233.867L1288.87 235.922C1288.62 236.037 1288.34 236.097 1288.06 236.097C1287.78 236.097 1287.5 236.037 1287.25 235.922L1282.71 233.867L1277.99 231.725L1249.45 218.791L1249.44 218.787L1241.66 215.257L1218.42 204.725L1202.42 197.475C1202.26 197.4 1202.09 197.343 1201.91 197.305C1201.53 197.209 1201.12 197.201 1200.73 197.282C1200.11 197.409 1199.55 197.748 1199.14 198.241C1198.74 198.734 1198.52 199.351 1198.52 199.988V299.046C1198.52 299.778 1198.81 300.48 1199.33 300.997C1199.85 301.515 1200.55 301.806 1201.28 301.807H1374.84C1375.57 301.806 1376.27 301.515 1376.79 300.997C1377.31 300.48 1377.6 299.778 1377.6 299.046V199.988C1377.6 199.265 1377.32 198.57 1376.81 198.055ZM1376.81 299.046C1376.81 299.569 1376.6 300.07 1376.23 300.44C1375.86 300.81 1375.36 301.018 1374.84 301.018H1201.28C1200.76 301.018 1200.26 300.81 1199.89 300.44C1199.52 300.07 1199.31 299.569 1199.31 299.046V199.988C1199.31 199.658 1199.39 199.334 1199.55 199.044C1199.71 198.755 1199.93 198.51 1200.21 198.331C1200.41 198.206 1200.62 198.115 1200.85 198.063C1200.91 198.048 1200.98 198.038 1201.05 198.031C1201.13 198.02 1201.2 198.015 1201.28 198.015C1201.56 198.016 1201.84 198.076 1202.09 198.193L1218.79 205.762L1241.89 216.231L1248.39 219.174L1249.44 219.651L1276.93 232.112L1280.8 233.867L1286.92 236.64C1287.28 236.802 1287.67 236.885 1288.06 236.885C1288.45 236.885 1288.84 236.802 1289.2 236.64L1295.32 233.867L1314.46 225.189L1332.31 217.099L1374.03 198.193C1374.33 198.057 1374.66 197.998 1374.98 198.022C1375.31 198.046 1375.63 198.153 1375.91 198.331C1375.94 198.35 1375.97 198.371 1376 198.394C1376.03 198.414 1376.06 198.438 1376.08 198.465C1376.31 198.649 1376.49 198.881 1376.62 199.144C1376.75 199.408 1376.81 199.696 1376.81 199.988L1376.81 299.046ZM1312.55 225.189L1293.4 233.867L1288.87 235.922C1288.62 236.037 1288.34 236.097 1288.06 236.097C1287.78 236.097 1287.5 236.037 1287.25 235.922L1282.71 233.867H1280.8L1286.92 236.64C1287.28 236.802 1287.67 236.885 1288.06 236.885C1288.45 236.885 1288.84 236.802 1289.2 236.64L1295.32 233.867L1314.46 225.189H1312.55ZM1312.55 225.189L1293.4 233.867L1288.87 235.922C1288.62 236.037 1288.34 236.097 1288.06 236.097C1287.78 236.097 1287.5 236.037 1287.25 235.922L1282.71 233.867H1280.8L1286.92 236.64C1287.28 236.802 1287.67 236.885 1288.06 236.885C1288.45 236.885 1288.84 236.802 1289.2 236.64L1295.32 233.867L1314.46 225.189H1312.55ZM1248.39 219.174L1249.44 219.651V218.791L1248.39 219.174ZM1312.55 225.189L1293.4 233.867L1288.87 235.922C1288.62 236.037 1288.34 236.097 1288.06 236.097C1287.78 236.097 1287.5 236.037 1287.25 235.922L1282.71 233.867H1280.8L1286.92 236.64C1287.28 236.802 1287.67 236.885 1288.06 236.885C1288.45 236.885 1288.84 236.802 1289.2 236.64L1295.32 233.867L1314.46 225.189H1312.55Z" fill="#3F3D56"/>
<path d="M1175.24 301.807H1130.66C1130.56 301.807 1130.46 301.765 1130.38 301.691C1130.31 301.617 1130.27 301.517 1130.27 301.413C1130.27 301.308 1130.31 301.208 1130.38 301.134C1130.46 301.06 1130.56 301.018 1130.66 301.018H1175.24C1175.34 301.018 1175.44 301.06 1175.52 301.134C1175.59 301.208 1175.63 301.308 1175.63 301.413C1175.63 301.517 1175.59 301.617 1175.52 301.691C1175.44 301.765 1175.34 301.807 1175.24 301.807Z" fill="#3F3D56"/>
<path d="M1150.33 174.642C1149.6 174.273 1149 173.701 1148.59 172.995C1148.18 172.289 1147.98 171.479 1148.03 170.664C1148.07 169.849 1148.34 169.064 1148.82 168.403C1149.3 167.742 1149.96 167.234 1150.72 166.94C1153.65 165.812 1156.92 168.114 1159.99 167.459C1163.04 166.807 1164.81 163.155 1164.08 160.118C1163.35 157.081 1160.7 154.794 1157.77 153.702C1155.86 152.99 1153.81 152.717 1151.78 152.903C1149.75 153.089 1147.79 153.73 1146.04 154.777C1144.31 155.855 1142.87 157.339 1141.84 159.102C1140.81 160.864 1140.23 162.85 1140.14 164.888C1140.1 166.928 1140.6 168.942 1141.59 170.728C1142.58 172.514 1144.02 174.009 1145.76 175.061C1146.54 175.51 1147.45 175.871 1148.32 175.668C1149.04 175.435 1149.72 175.089 1150.33 174.642Z" fill="#2F2E41"/>
<path d="M1147.19 154.541C1144.61 151.122 1141.13 148.313 1137.08 146.92C1133.04 145.527 1128.41 145.639 1124.6 147.607C1120.8 149.575 1117.97 153.484 1117.67 157.756C1117.18 164.866 1123.25 170.909 1123.88 178.009C1124.07 180.259 1123.71 182.523 1122.81 184.597C1121.92 186.671 1120.52 188.49 1118.75 189.89C1116.97 191.29 1114.88 192.226 1112.66 192.615C1110.43 193.005 1108.14 192.834 1106 192.12C1107.53 193.376 1109.3 194.303 1111.2 194.843C1113.1 195.383 1115.09 195.523 1117.05 195.256C1119.01 194.962 1120.87 194.237 1122.51 193.133C1124.15 192.029 1125.53 190.574 1126.54 188.873C1127.9 186.498 1128.47 183.738 1128.68 181.006C1129.03 176.686 1128.56 172.34 1127.32 168.189C1126.63 165.924 1125.71 163.594 1126.14 161.269C1126.39 160.06 1126.98 158.949 1127.86 158.076C1128.73 157.203 1129.84 156.605 1131.05 156.357C1133 155.99 1135 156.587 1136.86 157.273C1138.73 157.959 1140.61 158.754 1142.6 158.799C1144.59 158.844 1146.75 157.935 1147.52 156.101L1147.19 154.541Z" fill="#2F2E41"/>
</g>
<g opacity="0.25" clip-path="url(#clip4_398_1618)">
<path d="M5.47568 147.472L-8.98957 139.325C-9.18469 130.608 -7.24902 121.975 -3.35064 114.176C-0.0156136 129.313 17.5355 136.515 25.6334 149.731C28.1275 153.872 29.6576 158.522 30.1104 163.335C30.5633 168.148 29.9272 173.002 28.2493 177.536L29.2007 189.272C21.7245 187.033 14.8227 183.199 8.97073 178.036C3.11875 172.872 -1.54427 166.502 -4.69705 159.362C-6.42607 155.34 -7.64165 151.116 -8.3151 146.789C-1.57078 147.507 5.47568 147.472 5.47568 147.472Z" fill="#F2F2F2"/>
<path d="M265.513 295.695L265.956 285.722C270.58 283.25 275.737 281.945 280.98 281.918C273.765 287.818 274.666 299.19 269.774 307.124C268.229 309.587 266.15 311.67 263.691 313.22C261.231 314.77 258.454 315.746 255.566 316.077L249.528 319.775C248.699 315.155 248.882 310.411 250.063 305.869C251.244 301.328 253.396 297.096 256.371 293.466C258.059 291.446 259.996 289.647 262.134 288.11C263.58 291.924 265.513 295.695 265.513 295.695Z" fill="#F2F2F2"/>
<path d="M249.954 314.642L244.486 314.642L241.884 293.552L249.955 293.552L249.954 314.642Z" fill="#FFB6B6"/>
<path d="M251.348 319.942L233.718 319.941V319.718C233.718 317.899 234.441 316.153 235.728 314.866C237.014 313.579 238.76 312.856 240.58 312.856L243.801 310.413L249.809 312.857L251.348 312.857L251.348 319.942Z" fill="#2F2E41"/>
<path d="M224.551 314.642L219.083 314.642L216.482 293.552L224.552 293.552L224.551 314.642Z" fill="#FFB6B6"/>
<path d="M225.945 319.942L208.315 319.941V319.718C208.315 317.899 209.038 316.153 210.325 314.866C211.612 313.579 213.357 312.856 215.177 312.856L218.398 310.413L224.407 312.857L225.946 312.857L225.945 319.942Z" fill="#2F2E41"/>
<path d="M222.184 199.34L257.749 200.229C264.504 203.898 264.607 211.839 262.393 221.266C262.393 221.266 263.141 226.87 261.646 228.364C260.152 229.858 259.405 229.858 260.152 232.473C260.899 235.088 256.952 239.359 257.431 239.839C257.911 240.318 259.031 242.933 259.031 242.933L255.296 264.226C255.296 264.226 252.681 301.21 251.934 301.957C251.186 302.704 250.439 301.957 251.186 303.825C251.934 305.692 252.681 304.945 251.934 305.692C251.272 306.406 250.648 307.154 250.066 307.934H241.034C241.034 307.934 240.353 304.198 240.353 303.825C240.353 303.451 239.606 301.21 239.606 300.836C239.606 300.462 240.266 299.802 240.266 299.802C240.494 299.043 240.649 298.263 240.727 297.474C240.727 296.727 242.968 267.962 242.968 267.962L238.485 230.606L227.652 267.215C227.652 267.215 227.652 299.342 226.905 300.089C226.157 300.836 226.157 300.462 226.531 301.957C226.905 303.451 228.399 303.077 227.278 304.198C226.157 305.319 225.784 303.451 226.157 305.319L226.531 307.187L215.324 307.347C215.324 307.347 213.83 304.198 214.577 303.077C215.324 301.957 215.279 302.263 214.368 300.429C213.456 298.595 213.083 298.221 213.456 297.847C213.83 297.474 213.83 295.487 213.83 295.487L215.698 259.744C215.698 259.744 216.071 222.013 216.071 220.893C216.099 220.316 215.993 219.741 215.761 219.212V217.691L217.192 212.301L222.184 199.34Z" fill="#2F2E41"/>
<path d="M243.549 125.388C249.652 125.388 254.599 120.441 254.599 114.338C254.599 108.235 249.652 103.288 243.549 103.288C237.446 103.288 232.498 108.235 232.498 114.338C232.498 120.441 237.446 125.388 243.549 125.388Z" fill="#FFB6B6"/>
<path d="M238.024 132.692C235.643 134.107 234.219 136.707 233.401 139.354C231.888 144.253 230.977 149.318 230.689 154.437L229.825 169.764L219.131 202.398C228.399 210.24 263.236 204.18 263.236 204.18C263.236 204.18 264.306 203.824 263.236 202.755C262.167 201.685 261.126 202.633 262.195 201.563C263.264 200.494 262.527 201.685 262.171 200.616C261.814 199.546 262.171 200.259 262.527 199.903C262.884 199.546 259.768 196.338 259.768 196.338L262.619 177.606L266.184 139.821C261.906 134.474 253.304 131.322 253.304 131.322L251.081 127.321L239.967 128.21L238.024 132.692Z" fill="#E6E6E6"/>
<path d="M236.508 107.853C236.936 107.856 237.361 107.912 237.775 108.019C238.591 108.215 239.42 108.354 240.255 108.435C242.814 108.676 245.217 109.767 247.083 111.534C248.948 113.301 250.167 115.642 250.546 118.183C251.188 117.623 252.649 116.594 253.847 117.551C253.865 117.566 253.876 117.574 253.918 117.554C254.713 117.177 256.125 112.532 256.168 108.443C256.19 106.273 255.849 103.502 254.094 102.624L254.001 102.578L253.977 102.477C253.86 101.989 252.549 101.156 250.272 100.507C246.134 99.3286 239.965 97.0325 236.492 100.412C236.229 101.551 235.374 103.989 234.51 104.265C233.553 104.571 232.727 104.835 232.597 106.008C232.488 107.678 232.496 109.354 232.62 111.023C232.944 110.002 233.581 109.108 234.44 108.467C235.05 108.056 235.772 107.842 236.508 107.853Z" fill="#2F2E41"/>
<path d="M215.94 168.911L233.991 157.35L224.899 145.265L215.922 156.308L187.951 158.023C187.215 157.296 186.283 156.799 185.27 156.592C184.256 156.384 183.204 156.477 182.242 156.857C181.28 157.238 180.45 157.89 179.852 158.734C179.254 159.578 178.915 160.578 178.876 161.612C178.837 162.646 179.099 163.669 179.631 164.556C180.163 165.443 180.942 166.156 181.872 166.609C182.802 167.061 183.844 167.233 184.871 167.103C185.897 166.974 186.863 166.548 187.652 165.879L215.94 168.911Z" fill="#FFB6B6"/>
<path d="M250.744 141.215C251.792 147.555 232.008 159.662 232.008 159.662C232.008 158.174 220.2 169.408 219.667 168.174C218.152 164.666 217.087 156.358 214.97 155.028C213.759 154.268 222.261 147.124 222.261 147.124C222.261 147.124 226.71 142.641 232.55 136.986C234.171 135.357 236.178 134.164 238.384 133.52C240.591 132.875 242.924 132.799 245.168 133.298C245.168 133.298 249.697 134.874 250.744 141.215Z" fill="#E6E6E6"/>
<path d="M287.95 171.945L276.01 154.143L264.12 163.488L275.35 172.23L277.658 200.159C276.946 200.91 276.469 201.852 276.283 202.869C276.097 203.887 276.212 204.937 276.613 205.89C277.013 206.844 277.683 207.661 278.54 208.24C279.397 208.82 280.404 209.138 281.438 209.155C282.472 209.173 283.489 208.889 284.365 208.338C285.241 207.787 285.937 206.994 286.37 206.054C286.802 205.114 286.952 204.069 286.801 203.046C286.65 202.022 286.204 201.065 285.518 200.291L287.95 171.945Z" fill="#FFB6B6"/>
<path d="M259.523 137.735C265.84 136.553 278.363 156.077 278.363 156.077C276.875 156.108 288.357 167.676 287.135 168.235C283.66 169.824 275.376 171.064 274.091 173.209C273.357 174.435 266.034 166.087 266.034 166.087C266.034 166.087 261.458 161.733 255.681 156.015C254.018 154.428 252.783 152.447 252.092 150.255C251.4 148.063 251.275 145.732 251.727 143.478C251.727 143.478 253.207 138.917 259.523 137.735Z" fill="#E6E6E6"/>
<path d="M291 320.03C291 320.1 290.987 320.168 290.96 320.233C290.934 320.297 290.895 320.355 290.845 320.405C290.796 320.454 290.738 320.493 290.674 320.519C290.609 320.546 290.54 320.559 290.471 320.559H165.864C165.724 320.559 165.589 320.503 165.49 320.404C165.391 320.305 165.335 320.17 165.335 320.03C165.335 319.89 165.391 319.755 165.49 319.656C165.589 319.557 165.724 319.501 165.864 319.501H290.471C290.54 319.501 290.609 319.514 290.674 319.541C290.738 319.567 290.796 319.606 290.845 319.655C290.895 319.705 290.934 319.763 290.96 319.827C290.987 319.892 291 319.96 291 320.03Z" fill="#CCCCCC"/>
<path d="M175.566 159.713H24.3386C21.9759 159.715 19.7108 160.655 18.0401 162.326C16.3694 163.997 15.4297 166.262 15.427 168.624V262.778C15.4297 265.141 16.3694 267.406 18.0401 269.076C19.7108 270.747 21.9759 271.687 24.3386 271.689H175.566C177.929 271.687 180.194 270.747 181.865 269.076C183.535 267.406 184.475 265.141 184.478 262.778V168.624C184.475 166.262 183.535 163.997 181.865 162.326C180.194 160.655 177.929 159.715 175.566 159.713Z" fill="#FFBDB6"/>
<path d="M175.566 159.713H24.3386C21.9759 159.715 19.7108 160.655 18.0401 162.326C16.3694 163.997 15.4297 166.262 15.427 168.624V262.778C15.4297 265.141 16.3694 267.406 18.0401 269.076C19.7108 270.747 21.9759 271.687 24.3386 271.689H175.566C177.929 271.687 180.194 270.747 181.865 269.076C183.535 267.406 184.475 265.141 184.478 262.778V168.624C184.475 166.262 183.535 163.997 181.865 162.326C180.194 160.655 177.929 159.715 175.566 159.713ZM178.491 227.344C178.454 236.93 174.663 246.119 167.929 252.941C161.196 259.763 152.057 263.674 142.473 263.836C127.128 264.036 150.963 264.113 132.456 264.113C90.1367 264.113 46.0094 263.709 29.545 263.447C27.3788 263.402 25.3159 262.512 23.7967 260.968C22.2775 259.423 21.4225 257.345 21.4141 255.179V168.631C21.415 167.856 21.7231 167.112 22.271 166.562C22.819 166.013 23.5622 165.703 24.338 165.7H175.56C176.336 165.701 177.079 166.009 177.629 166.557C178.178 167.105 178.488 167.848 178.491 168.624V227.344Z" fill="#3F3D56"/>
<path d="M156.95 105.496H41.7308C40.7114 105.498 39.7173 105.814 38.8841 106.401C38.051 106.989 37.4195 107.819 37.0758 108.779L19.281 158.703C19.0154 159.448 18.9326 160.246 19.0395 161.03C19.1464 161.814 19.4399 162.561 19.8954 163.208C20.3508 163.855 20.9549 164.383 21.6568 164.747C22.3587 165.112 23.138 165.303 23.9291 165.304L178.457 165.579H178.464C179.282 165.579 180.087 165.376 180.807 164.988C181.527 164.6 182.139 164.04 182.59 163.357C183.04 162.674 183.314 161.891 183.386 161.076C183.459 160.262 183.328 159.442 183.006 158.69L161.493 108.491C161.112 107.602 160.479 106.844 159.671 106.311C158.864 105.779 157.918 105.495 156.95 105.496Z" fill="#3F3D56"/>
<path d="M183.406 159.774C183.406 160.444 183.27 161.106 183.006 161.722L161.494 200.363C161.111 201.251 160.477 202.007 159.669 202.538C158.862 203.07 157.917 203.354 156.95 203.355H41.7326C40.7128 203.354 39.7182 203.038 38.8844 202.451C38.0505 201.864 37.4182 201.034 37.0736 200.074L19.2821 161.708C19.0641 161.097 18.9686 160.449 19.0012 159.801C19.0337 159.152 19.1937 158.517 19.472 157.931C19.7503 157.345 20.1414 156.819 20.6229 156.384C21.1045 155.949 21.6671 155.613 22.2785 155.395C22.8074 155.204 23.3655 155.107 23.9278 155.106L42.804 155.071L50.5083 155.058L151.887 154.88L159.595 154.866L178.458 154.831H178.463C179.774 154.831 181.031 155.352 181.958 156.279C182.885 157.206 183.406 158.463 183.406 159.774Z" fill="#3F3D56"/>
<path d="M35.6759 230.339C37.9606 230.339 69.3356 232.256 69.3356 234.541C69.3356 236.826 37.9606 238.613 35.6759 238.613C34.5787 238.613 33.5264 238.177 32.7506 237.401C31.9748 236.625 31.5389 235.573 31.5389 234.476C31.5389 233.378 31.9748 232.326 32.7506 231.55C33.5264 230.775 34.5787 230.339 35.6759 230.339Z" fill="#3F3D56"/>
<path d="M149.775 75.1249H52.6244C50.0208 75.1279 47.5247 76.1635 45.6837 78.0045C43.8426 79.8456 42.807 82.3417 42.804 84.9453V203.355H156.95C157.888 203.358 158.806 203.091 159.595 202.586V84.9453C159.592 82.3417 158.557 79.8456 156.716 78.0045C154.875 76.1635 152.379 75.1279 149.775 75.1249Z" fill="#E6E6E6"/>
<path d="M112.694 83.087H59.4529C57.0822 83.0893 54.8091 84.0319 53.1322 85.7078C51.4554 87.3838 50.5118 89.6565 50.5083 92.0272V203.355H151.887V122.28C151.875 111.889 147.742 101.927 140.394 94.5796C133.047 87.2321 123.085 83.099 112.694 83.087Z" fill="white"/>
<path d="M134.615 193.468H67.7796C67.2019 193.468 66.6478 193.697 66.2393 194.106C65.8308 194.514 65.6013 195.068 65.6013 195.646C65.6013 196.224 65.8308 196.778 66.2393 197.186C66.6478 197.595 67.2019 197.824 67.7796 197.824H134.615C135.193 197.824 135.747 197.595 136.156 197.186C136.564 196.778 136.794 196.224 136.794 195.646C136.794 195.068 136.564 194.514 136.156 194.106C135.747 193.697 135.193 193.468 134.615 193.468Z" fill="#E4E4E4"/>
<path d="M134.615 184.852H67.7796C67.2013 184.852 66.6467 185.082 66.2377 185.491C65.8288 185.9 65.5991 186.454 65.5991 187.033C65.5991 187.611 65.8288 188.166 66.2377 188.575C66.6467 188.984 67.2013 189.213 67.7796 189.213H134.615C135.194 189.213 135.748 188.984 136.157 188.575C136.566 188.166 136.796 187.611 136.796 187.033C136.796 186.454 136.566 185.9 136.157 185.491C135.748 185.082 135.194 184.852 134.615 184.852Z" fill="#E4E4E4"/>
<path d="M96.7519 176.241H67.7796C67.2019 176.241 66.6478 176.47 66.2393 176.879C65.8308 177.288 65.6013 177.842 65.6013 178.419C65.6013 178.997 65.8308 179.551 66.2393 179.96C66.6478 180.368 67.2019 180.598 67.7796 180.598H96.7519C97.3296 180.598 97.8837 180.368 98.2922 179.96C98.7007 179.551 98.9302 178.997 98.9302 178.419C98.9302 177.842 98.7007 177.288 98.2922 176.879C97.8837 176.47 97.3296 176.241 96.7519 176.241Z" fill="#E4E4E4"/>
<path d="M134.615 158.201H67.7796C67.2013 158.201 66.6467 158.43 66.2377 158.839C65.8288 159.248 65.5991 159.803 65.5991 160.381C65.5991 160.959 65.8288 161.514 66.2377 161.923C66.6467 162.332 67.2013 162.562 67.7796 162.562H134.615C135.194 162.562 135.748 162.332 136.157 161.923C136.566 161.514 136.796 160.959 136.796 160.381C136.796 159.803 136.566 159.248 136.157 158.839C135.748 158.43 135.194 158.201 134.615 158.201Z" fill="#E4E4E4"/>
<path d="M134.615 149.589H67.7796C67.2019 149.589 66.6478 149.819 66.2393 150.227C65.8308 150.636 65.6013 151.19 65.6013 151.768C65.6013 152.345 65.8308 152.9 66.2393 153.308C66.6478 153.717 67.2019 153.946 67.7796 153.946H134.615C135.193 153.946 135.747 153.717 136.156 153.308C136.564 152.9 136.794 152.345 136.794 151.768C136.794 151.19 136.564 150.636 136.156 150.227C135.747 149.819 135.193 149.589 134.615 149.589Z" fill="#E4E4E4"/>
<path d="M96.7518 140.974H67.7796C67.2013 140.974 66.6466 141.203 66.2377 141.612C65.8287 142.021 65.599 142.576 65.599 143.154C65.599 143.733 65.8287 144.287 66.2377 144.696C66.6466 145.105 67.2013 145.335 67.7796 145.335H96.7518C97.3302 145.335 97.8848 145.105 98.2937 144.696C98.7027 144.287 98.9324 143.733 98.9324 143.154C98.9324 142.576 98.7027 142.021 98.2937 141.612C97.8848 141.203 97.3302 140.974 96.7518 140.974Z" fill="#E4E4E4"/>
<path d="M134.615 122.933H67.7796C67.2013 122.933 66.6467 123.163 66.2377 123.572C65.8288 123.981 65.5991 124.535 65.5991 125.114C65.5991 125.692 65.8288 126.247 66.2377 126.656C66.6467 127.065 67.2013 127.294 67.7796 127.294H134.615C135.194 127.294 135.748 127.065 136.157 126.656C136.566 126.247 136.796 125.692 136.796 125.114C136.796 124.535 136.566 123.981 136.157 123.572C135.748 123.163 135.194 122.933 134.615 122.933Z" fill="#FFBDB6"/>
<path d="M134.615 114.322H67.7796C67.2013 114.322 66.6467 114.552 66.2377 114.961C65.8288 115.37 65.5991 115.924 65.5991 116.503C65.5991 117.081 65.8288 117.636 66.2377 118.045C66.6467 118.453 67.2013 118.683 67.7796 118.683H134.615C135.194 118.683 135.748 118.453 136.157 118.045C136.566 117.636 136.796 117.081 136.796 116.503C136.796 115.924 136.566 115.37 136.157 114.961C135.748 114.552 135.194 114.322 134.615 114.322Z" fill="#FFBDB6"/>
<path d="M96.7518 105.706H67.7796C67.2013 105.706 66.6466 105.936 66.2377 106.345C65.8287 106.754 65.599 107.309 65.599 107.887C65.599 108.465 65.8287 109.02 66.2377 109.429C66.6466 109.838 67.2013 110.068 67.7796 110.068H96.7518C97.3302 110.068 97.8848 109.838 98.2937 109.429C98.7027 109.02 98.9324 108.465 98.9324 107.887C98.9324 107.309 98.7027 106.754 98.2937 106.345C97.8848 105.936 97.3302 105.706 96.7518 105.706Z" fill="#FFBDB6"/>
<path d="M155.953 91.9316C165.323 91.9316 172.919 84.3358 172.919 74.9658C172.919 65.5959 165.323 58 155.953 58C146.583 58 138.987 65.5959 138.987 74.9658C138.987 84.3358 146.583 91.9316 155.953 91.9316Z" fill="#FFBDB6"/>
<path d="M153.639 83.7957C153.346 83.7957 153.057 83.7275 152.795 83.5964C152.533 83.4654 152.305 83.2751 152.129 83.0407L147.501 76.8692C147.351 76.671 147.242 76.4452 147.18 76.2049C147.118 75.9645 147.104 75.7142 147.139 75.4684C147.173 75.2226 147.256 74.9861 147.383 74.7724C147.509 74.5586 147.676 74.372 147.875 74.223C148.074 74.0741 148.3 73.9658 148.54 73.9043C148.781 73.8429 149.031 73.8295 149.277 73.865C149.522 73.9004 149.759 73.984 149.972 74.1109C150.186 74.2379 150.372 74.4057 150.52 74.6047L153.548 78.6419L161.326 66.976C161.603 66.5595 162.035 66.2704 162.526 66.1722C163.017 66.0741 163.526 66.1749 163.943 66.4525C164.359 66.7302 164.648 67.1619 164.747 67.6527C164.845 68.1435 164.744 68.6532 164.466 69.0697L155.209 82.9553C155.042 83.2064 154.816 83.4137 154.552 83.5599C154.288 83.706 153.993 83.7867 153.691 83.7951C153.674 83.7954 153.656 83.7957 153.639 83.7957Z" fill="white"/>
</g>
</g>
<defs>
<clipPath id="clip0_398_1618">
<rect width="300" height="314.162" fill="white" transform="translate(503)"/>
</clipPath>
<clipPath id="clip1_398_1618">
<rect width="150" height="174.07" fill="white" transform="translate(305 12)"/>
</clipPath>
<clipPath id="clip2_398_1618">
<rect width="300" height="278.328" fill="white" transform="translate(827 23)"/>
</clipPath>
<clipPath id="clip3_398_1618">
<rect width="300" height="194.807" fill="white" transform="translate(1106 107)"/>
</clipPath>
<clipPath id="clip4_398_1618">
<rect width="300" height="262.559" fill="white" transform="translate(-9 58)"/>
</clipPath>
</defs>
</svg>
