<svg width="100" height="100" viewBox="0 0 100 100" fill="none" xmlns="http://www.w3.org/2000/svg">
<path d="M24.2188 49.6594L12.1792 37.6604L24.2188 25.7531L36.1261 37.6604L24.2188 49.6594ZM41.1855 86.8594V68.2625C37.1611 67.925 33.1587 67.484 29.1782 66.9396C25.1969 66.3944 21.2188 65.6358 17.2438 64.6635L18.1407 60.8177C23.408 62.0969 28.6785 63.0201 33.9521 63.5875C39.225 64.1556 44.5716 64.4396 49.9917 64.4396C55.4111 64.4396 60.7605 64.1556 66.0396 63.5875C71.3188 63.0201 76.592 62.0969 81.8594 60.8177L82.7563 64.6635C78.7806 65.6399 74.8021 66.4021 70.8209 66.95C66.8396 67.4979 62.8375 67.9441 58.8146 68.2885V86.8594H41.1855ZM50.0042 30.7688C47.373 30.7688 45.142 29.8476 43.3115 28.0052C41.4802 26.1622 40.5646 23.924 40.5646 21.2906C40.5646 18.6913 41.4827 16.4694 43.3188 14.625C45.1549 12.7813 47.3844 11.8594 50.0073 11.8594C52.6309 11.8594 54.8646 12.7823 56.7084 14.6281C58.5528 16.4747 59.475 18.7042 59.475 21.3167C59.475 23.9299 58.5542 26.1587 56.7125 28.0031C54.8709 29.8469 52.6348 30.7688 50.0042 30.7688ZM49.9948 57.5802C48.0671 57.5802 46.4323 56.9073 45.0907 55.5615C43.7483 54.2163 43.0771 52.5799 43.0771 50.6521C43.0771 48.7243 43.7497 47.0892 45.0948 45.7469C46.4407 44.4052 48.0775 43.7344 50.0052 43.7344C51.933 43.7344 53.5677 44.4069 54.9094 45.7521C56.2518 47.0979 56.923 48.7347 56.923 50.6625C56.923 52.5903 56.2504 54.225 54.9052 55.5667C53.5594 56.909 51.9226 57.5802 49.9948 57.5802ZM70.725 49.1792L65.3209 39.7437L70.7427 30.2688H81.2657L86.6709 39.7437L81.249 49.1792H70.725Z" fill="#5F6368"/>
</svg>
