<svg width="111" height="107" viewBox="0 0 111 107" fill="none" xmlns="http://www.w3.org/2000/svg">
<path d="M78.0884 68.2561C75.1878 68.2561 72.7138 67.2761 70.6665 65.3161C68.6199 63.3568 67.5966 60.9769 67.5966 58.1764C67.5966 55.4121 68.6191 53.0492 70.6642 51.0877C72.71 49.1269 75.1944 48.1465 78.1174 48.1465C81.0026 48.1465 83.4689 49.128 85.5162 51.091C87.5628 53.0547 88.586 55.4258 88.586 58.2041C88.586 60.9832 87.5616 63.3535 85.5127 65.315C83.4631 67.2757 80.9883 68.2561 78.0884 68.2561ZM53.7216 94.4176V84.8164C53.7216 83.8238 53.9722 82.89 54.4732 82.0148C54.9742 81.1404 55.6657 80.4366 56.5475 79.9034C58.6488 78.7195 60.873 77.7321 63.2202 76.9412C65.5682 76.1502 67.9713 75.5461 70.4294 75.1288L78.1139 84.699L85.7093 75.1288C88.1667 75.5461 90.5667 76.1491 92.9093 76.9378C95.2526 77.7258 97.5104 78.7192 99.6826 79.9178C100.542 80.4325 101.205 81.1101 101.672 81.9506C102.139 82.791 102.402 83.6957 102.461 84.6646V94.4176H53.7216ZM41.2688 84.7843V87.9415H26.2977C24.2982 87.9415 22.6054 87.2738 21.2194 85.9386C19.8335 84.6033 19.1405 82.9985 19.1405 81.1242V25.1556C19.1405 23.2805 19.8373 21.6756 21.231 20.3411C22.6239 19.0059 24.2989 18.3383 26.2561 18.3383H84.7438C86.701 18.3383 88.376 19.0059 89.7689 20.3411C91.1626 21.6756 91.8594 23.2805 91.8594 25.1556V41.1198C90.0271 39.5948 87.937 38.4076 85.589 37.5583C83.2411 36.709 80.801 36.2615 78.2688 36.2157C77.8541 36.2157 77.4687 36.2301 77.1126 36.2589C76.7572 36.287 76.3718 36.3294 75.9563 36.3863V34.5972H35.0436V38.6871H68.2939C65.4957 39.9057 63.0761 41.5774 61.0349 43.7021C58.993 45.8268 57.4475 48.2909 56.3983 51.0943H35.0436V55.1843H55.6468C55.3677 57.0934 55.3431 58.9847 55.5728 60.8583C55.8033 62.7312 56.2742 64.5499 56.9857 66.3142C56.4515 66.5409 55.9324 66.7536 55.4283 66.9523C54.9249 67.1517 54.4358 67.3647 53.961 67.5915H35.0436V71.6825H47.3796C45.414 73.3272 43.9043 75.3042 42.8506 77.6136C41.7961 79.9237 41.2688 82.3139 41.2688 84.7843Z" fill="#5F6368"/>
</svg>
