<?xml version="1.0" encoding="UTF-8"?>
<svg version="1.1" xmlns="http://www.w3.org/2000/svg" width="778" height="784">
<path d="M0 0 C256.74 0 513.48 0 778 0 C778 258.72 778 517.44 778 784 C521.26 784 264.52 784 0 784 C0 525.28 0 266.56 0 0 Z " fill="#FEFEFE" transform="translate(0,0)"/>
<path d="M0 0 C10.56 0 21.12 0 32 0 C32 0.66 32 1.32 32 2 C35.3 2 38.6 2 42 2 C42 2.66 42 3.32 42 4 C43.32 4 44.64 4 46 4 C46 4.66 46 5.32 46 6 C47.98 6 49.96 6 52 6 C52 6.66 52 7.32 52 8 C53.98 8 55.96 8 58 8 C58 8.66 58 9.32 58 10 C59.32 10 60.64 10 62 10 C62 10.66 62 11.32 62 12 C62.66 12 63.32 12 64 12 C64 12.66 64 13.32 64 14 C65.32 14 66.64 14 68 14 C68 14.66 68 15.32 68 16 C68.66 16 69.32 16 70 16 C70 16.66 70 17.32 70 18 C71.32 18 72.64 18 74 18 C74 18.66 74 19.32 74 20 C74.66 20 75.32 20 76 20 C76 20.66 76 21.32 76 22 C76.66 22 77.32 22 78 22 C78 22.66 78 23.32 78 24 C78.66 24 79.32 24 80 24 C80 24.66 80 25.32 80 26 C81.32 26 82.64 26 84 26 C84 26.66 84 27.32 84 28 C84.66 28 85.32 28 86 28 C86 29.32 86 30.64 86 32 C86.66 32 87.32 32 88 32 C88 32.66 88 33.32 88 34 C88.66 34 89.32 34 90 34 C90 34.66 90 35.32 90 36 C90.66 36 91.32 36 92 36 C92 36.66 92 37.32 92 38 C92.66 38 93.32 38 94 38 C94 38.66 94 39.32 94 40 C94.66 40 95.32 40 96 40 C96 41.32 96 42.64 96 44 C96.66 44 97.32 44 98 44 C98 45.32 98 46.64 98 48 C98.66 48 99.32 48 100 48 C100 48.66 100 49.32 100 50 C100.66 50 101.32 50 102 50 C102 51.32 102 52.64 102 54 C102.66 54 103.32 54 104 54 C104 55.98 104 57.96 104 60 C104.66 60 105.32 60 106 60 C106 60.66 106 61.32 106 62 C119.86 62 133.72 62 148 62 C148 62.66 148 63.32 148 64 C150.64 64 153.28 64 156 64 C156 64.66 156 65.32 156 66 C159.3 66 162.6 66 166 66 C166 66.66 166 67.32 166 68 C168.64 68 171.28 68 174 68 C174 68.66 174 69.32 174 70 C175.32 70 176.64 70 178 70 C178 70.66 178 71.32 178 72 C180.64 72 183.28 72 186 72 C186 72.66 186 73.32 186 74 C187.98 74 189.96 74 192 74 C192 74.66 192 75.32 192 76 C192.66 76 193.32 76 194 76 C194 76.66 194 77.32 194 78 C195.98 78 197.96 78 200 78 C200 78.66 200 79.32 200 80 C201.32 80 202.64 80 204 80 C204 80.66 204 81.32 204 82 C205.32 82 206.64 82 208 82 C208 82.66 208 83.32 208 84 C209.32 84 210.64 84 212 84 C212 84.66 212 85.32 212 86 C212.66 86 213.32 86 214 86 C214 86.66 214 87.32 214 88 C216.64 88 219.28 88 222 88 C222 86.68 222 85.36 222 84 C223.32 84 224.64 84 226 84 C226 82.68 226 81.36 226 80 C227.32 80 228.64 80 230 80 C230 79.34 230 78.68 230 78 C231.98 78 233.96 78 236 78 C236 76.68 236 75.36 236 74 C237.32 74 238.64 74 240 74 C240 73.34 240 72.68 240 72 C241.32 72 242.64 72 244 72 C244 71.34 244 70.68 244 70 C244.66 70 245.32 70 246 70 C246 69.34 246 68.68 246 68 C247.32 68 248.64 68 250 68 C250 67.34 250 66.68 250 66 C251.98 66 253.96 66 256 66 C256 65.34 256 64.68 256 64 C257.32 64 258.64 64 260 64 C260 62.68 260 61.36 260 60 C261.98 60 263.96 60 266 60 C266 59.34 266 58.68 266 58 C267.32 58 268.64 58 270 58 C270 56.68 270 55.36 270 54 C271.32 54 272.64 54 274 54 C274 52.68 274 51.36 274 50 C275.32 50 276.64 50 278 50 C278 49.34 278 48.68 278 48 C279.32 48 280.64 48 282 48 C282 49.32 282 50.64 282 52 C281.34 52 280.68 52 280 52 C280 55.96 280 59.92 280 64 C279.34 64 278.68 64 278 64 C278 64.66 278 65.32 278 66 C277.34 66 276.68 66 276 66 C276 69.3 276 72.6 276 76 C275.34 76 274.68 76 274 76 C274 79.96 274 83.92 274 88 C273.34 88 272.68 88 272 88 C272 88.66 272 89.32 272 90 C271.34 90 270.68 90 270 90 C270 93.3 270 96.6 270 100 C269.34 100 268.68 100 268 100 C268 103.96 268 107.92 268 112 C267.34 112 266.68 112 266 112 C266 112.66 266 113.32 266 114 C265.34 114 264.68 114 264 114 C264 117.3 264 120.6 264 124 C263.34 124 262.68 124 262 124 C262 125.98 262 127.96 262 130 C262.66 130 263.32 130 264 130 C264 131.32 264 132.64 264 134 C264.66 134 265.32 134 266 134 C266 134.66 266 135.32 266 136 C266.66 136 267.32 136 268 136 C268 137.32 268 138.64 268 140 C268.66 140 269.32 140 270 140 C270 140.66 270 141.32 270 142 C270.66 142 271.32 142 272 142 C272 143.32 272 144.64 272 146 C272.66 146 273.32 146 274 146 C274 146.66 274 147.32 274 148 C274.66 148 275.32 148 276 148 C276 149.32 276 150.64 276 152 C276.66 152 277.32 152 278 152 C278 153.32 278 154.64 278 156 C278.66 156 279.32 156 280 156 C280 157.32 280 158.64 280 160 C280.66 160 281.32 160 282 160 C282 161.32 282 162.64 282 164 C282.66 164 283.32 164 284 164 C284 165.32 284 166.64 284 168 C284.66 168 285.32 168 286 168 C286 169.32 286 170.64 286 172 C286.66 172 287.32 172 288 172 C288 173.32 288 174.64 288 176 C288.66 176 289.32 176 290 176 C290 177.98 290 179.96 290 182 C290.66 182 291.32 182 292 182 C292 183.98 292 185.96 292 188 C292.66 188 293.32 188 294 188 C294 190.64 294 193.28 294 196 C294.66 196 295.32 196 296 196 C296 199.96 296 203.92 296 208 C296.66 208 297.32 208 298 208 C298 210.64 298 213.28 298 216 C298.66 216 299.32 216 300 216 C300 230.52 300 245.04 300 260 C299.34 260 298.68 260 298 260 C298 264.62 298 269.24 298 274 C297.34 274 296.68 274 296 274 C296 276.64 296 279.28 296 282 C295.34 282 294.68 282 294 282 C294 283.98 294 285.96 294 288 C293.34 288 292.68 288 292 288 C292 291.3 292 294.6 292 298 C291.34 298 290.68 298 290 298 C290 299.32 290 300.64 290 302 C289.34 302 288.68 302 288 302 C288 303.32 288 304.64 288 306 C287.34 306 286.68 306 286 306 C286 307.98 286 309.96 286 312 C285.34 312 284.68 312 284 312 C284 313.32 284 314.64 284 316 C283.34 316 282.68 316 282 316 C282 317.32 282 318.64 282 320 C281.34 320 280.68 320 280 320 C280 321.32 280 322.64 280 324 C279.34 324 278.68 324 278 324 C278 325.32 278 326.64 278 328 C277.34 328 276.68 328 276 328 C276 329.32 276 330.64 276 332 C275.34 332 274.68 332 274 332 C274 332.66 274 333.32 274 334 C273.34 334 272.68 334 272 334 C272 335.32 272 336.64 272 338 C271.34 338 270.68 338 270 338 C270 338.66 270 339.32 270 340 C269.34 340 268.68 340 268 340 C268 341.32 268 342.64 268 344 C267.34 344 266.68 344 266 344 C266 344.66 266 345.32 266 346 C265.34 346 264.68 346 264 346 C264 347.32 264 348.64 264 350 C263.34 350 262.68 350 262 350 C262 350.66 262 351.32 262 352 C261.34 352 260.68 352 260 352 C260 352.66 260 353.32 260 354 C259.34 354 258.68 354 258 354 C258 354.66 258 355.32 258 356 C257.34 356 256.68 356 256 356 C256 357.32 256 358.64 256 360 C255.34 360 254.68 360 254 360 C254 360.66 254 361.32 254 362 C253.34 362 252.68 362 252 362 C252 362.66 252 363.32 252 364 C251.34 364 250.68 364 250 364 C250 364.66 250 365.32 250 366 C249.34 366 248.68 366 248 366 C248 366.66 248 367.32 248 368 C247.34 368 246.68 368 246 368 C246 368.66 246 369.32 246 370 C245.34 370 244.68 370 244 370 C244 370.66 244 371.32 244 372 C243.34 372 242.68 372 242 372 C242 372.66 242 373.32 242 374 C240.68 374 239.36 374 238 374 C238 374.66 238 375.32 238 376 C237.34 376 236.68 376 236 376 C236 376.66 236 377.32 236 378 C235.34 378 234.68 378 234 378 C234 378.66 234 379.32 234 380 C233.34 380 232.68 380 232 380 C232 380.66 232 381.32 232 382 C230.68 382 229.36 382 228 382 C228 382.66 228 383.32 228 384 C227.34 384 226.68 384 226 384 C226 384.66 226 385.32 226 386 C225.34 386 224.68 386 224 386 C224 386.66 224 387.32 224 388 C222.68 388 221.36 388 220 388 C220 388.66 220 389.32 220 390 C219.34 390 218.68 390 218 390 C218 390.66 218 391.32 218 392 C216.68 392 215.36 392 214 392 C214 392.66 214 393.32 214 394 C212.68 394 211.36 394 210 394 C210 394.66 210 395.32 210 396 C208.68 396 207.36 396 206 396 C206 396.66 206 397.32 206 398 C204.68 398 203.36 398 202 398 C202 398.66 202 399.32 202 400 C200.68 400 199.36 400 198 400 C198 400.66 198 401.32 198 402 C196.68 402 195.36 402 194 402 C194 402.66 194 403.32 194 404 C192.68 404 191.36 404 190 404 C190 404.66 190 405.32 190 406 C188.02 406 186.04 406 184 406 C184 406.66 184 407.32 184 408 C182.02 408 180.04 408 178 408 C178 408.66 178 409.32 178 410 C176.02 410 174.04 410 172 410 C172 410.66 172 411.32 172 412 C169.36 412 166.72 412 164 412 C164 412.66 164 413.32 164 414 C162.02 414 160.04 414 158 414 C158 414.66 158 415.32 158 416 C154.04 416 150.08 416 146 416 C146 416.66 146 417.32 146 418 C138.08 418 130.16 418 122 418 C122 419.98 122 421.96 122 424 C122.66 424 123.32 424 124 424 C124 438.52 124 453.04 124 468 C123.34 468 122.68 468 122 468 C122 473.94 122 479.88 122 486 C121.34 486 120.68 486 120 486 C120 489.96 120 493.92 120 498 C119.34 498 118.68 498 118 498 C118 500.64 118 503.28 118 506 C117.34 506 116.68 506 116 506 C116 508.64 116 511.28 116 514 C115.34 514 114.68 514 114 514 C114 516.64 114 519.28 114 522 C113.34 522 112.68 522 112 522 C112 523.32 112 524.64 112 526 C111.34 526 110.68 526 110 526 C110 527.98 110 529.96 110 532 C109.34 532 108.68 532 108 532 C108 533.98 108 535.96 108 538 C107.34 538 106.68 538 106 538 C106 539.32 106 540.64 106 542 C105.34 542 104.68 542 104 542 C104 543.98 104 545.96 104 548 C103.34 548 102.68 548 102 548 C102 549.32 102 550.64 102 552 C101.34 552 100.68 552 100 552 C100 553.32 100 554.64 100 556 C99.34 556 98.68 556 98 556 C98 557.32 98 558.64 98 560 C97.34 560 96.68 560 96 560 C96 561.32 96 562.64 96 564 C95.34 564 94.68 564 94 564 C94 564.66 94 565.32 94 566 C93.34 566 92.68 566 92 566 C92 567.32 92 568.64 92 570 C91.34 570 90.68 570 90 570 C90 571.32 90 572.64 90 574 C89.34 574 88.68 574 88 574 C88 574.66 88 575.32 88 576 C87.34 576 86.68 576 86 576 C86 577.32 86 578.64 86 580 C85.34 580 84.68 580 84 580 C84 580.66 84 581.32 84 582 C83.34 582 82.68 582 82 582 C82 583.32 82 584.64 82 586 C81.34 586 80.68 586 80 586 C80 586.66 80 587.32 80 588 C79.34 588 78.68 588 78 588 C78 589.32 78 590.64 78 592 C77.34 592 76.68 592 76 592 C76 592.66 76 593.32 76 594 C75.34 594 74.68 594 74 594 C74 594.66 74 595.32 74 596 C73.34 596 72.68 596 72 596 C72 596.66 72 597.32 72 598 C71.34 598 70.68 598 70 598 C70 598.66 70 599.32 70 600 C69.34 600 68.68 600 68 600 C68 601.32 68 602.64 68 604 C67.34 604 66.68 604 66 604 C66 604.66 66 605.32 66 606 C65.34 606 64.68 606 64 606 C64 606.66 64 607.32 64 608 C63.34 608 62.68 608 62 608 C62 608.66 62 609.32 62 610 C61.34 610 60.68 610 60 610 C60 610.66 60 611.32 60 612 C59.34 612 58.68 612 58 612 C58 612.66 58 613.32 58 614 C57.34 614 56.68 614 56 614 C56 614.66 56 615.32 56 616 C55.34 616 54.68 616 54 616 C54 616.66 54 617.32 54 618 C53.34 618 52.68 618 52 618 C52 618.66 52 619.32 52 620 C51.34 620 50.68 620 50 620 C50 620.66 50 621.32 50 622 C49.34 622 48.68 622 48 622 C48 622.66 48 623.32 48 624 C47.34 624 46.68 624 46 624 C46 624.66 46 625.32 46 626 C45.34 626 44.68 626 44 626 C44 626.66 44 627.32 44 628 C42.68 628 41.36 628 40 628 C40 628.66 40 629.32 40 630 C39.34 630 38.68 630 38 630 C38 630.66 38 631.32 38 632 C37.34 632 36.68 632 36 632 C36 632.66 36 633.32 36 634 C35.34 634 34.68 634 34 634 C34 634.66 34 635.32 34 636 C32.68 636 31.36 636 30 636 C30 636.66 30 637.32 30 638 C29.34 638 28.68 638 28 638 C28 638.66 28 639.32 28 640 C26.68 640 25.36 640 24 640 C24 640.66 24 641.32 24 642 C23.34 642 22.68 642 22 642 C22 642.66 22 643.32 22 644 C21.34 644 20.68 644 20 644 C20 644.66 20 645.32 20 646 C18.68 646 17.36 646 16 646 C16 646.66 16 647.32 16 648 C14.68 648 13.36 648 12 648 C12 648.66 12 649.32 12 650 C11.34 650 10.68 650 10 650 C10 650.66 10 651.32 10 652 C8.68 652 7.36 652 6 652 C6 652.66 6 653.32 6 654 C4.68 654 3.36 654 2 654 C2 654.66 2 655.32 2 656 C0.68 656 -0.64 656 -2 656 C-2 656.66 -2 657.32 -2 658 C-2.66 658 -3.32 658 -4 658 C-4 658.66 -4 659.32 -4 660 C-5.32 660 -6.64 660 -8 660 C-8 660.66 -8 661.32 -8 662 C-9.98 662 -11.96 662 -14 662 C-14 662.66 -14 663.32 -14 664 C-14.66 664 -15.32 664 -16 664 C-16 664.66 -16 665.32 -16 666 C-17.98 666 -19.96 666 -22 666 C-22 666.66 -22 667.32 -22 668 C-23.98 668 -25.96 668 -28 668 C-28 668.66 -28 669.32 -28 670 C-29.32 670 -30.64 670 -32 670 C-32 670.66 -32 671.32 -32 672 C-34.64 672 -37.28 672 -40 672 C-40 672.66 -40 673.32 -40 674 C-41.32 674 -42.64 674 -44 674 C-44 674.66 -44 675.32 -44 676 C-46.64 676 -49.28 676 -52 676 C-52 676.66 -52 677.32 -52 678 C-53.98 678 -55.96 678 -58 678 C-58 678.66 -58 679.32 -58 680 C-62.62 680 -67.24 680 -72 680 C-72 680.66 -72 681.32 -72 682 C-75.3 682 -78.6 682 -82 682 C-82 682.66 -82 683.32 -82 684 C-106.42 684 -130.84 684 -156 684 C-156 683.34 -156 682.68 -156 682 C-156.66 682 -157.32 682 -158 682 C-158 681.34 -158 680.68 -158 680 C-161.96 680 -165.92 680 -170 680 C-170 679.34 -170 678.68 -170 678 C-171.32 678 -172.64 678 -174 678 C-174 677.34 -174 676.68 -174 676 C-175.32 676 -176.64 676 -178 676 C-178 675.34 -178 674.68 -178 674 C-181.3 674 -184.6 674 -188 674 C-188 673.34 -188 672.68 -188 672 C-189.98 672 -191.96 672 -194 672 C-194 671.34 -194 670.68 -194 670 C-194.66 670 -195.32 670 -196 670 C-196 669.34 -196 668.68 -196 668 C-199.3 668 -202.6 668 -206 668 C-206 667.34 -206 666.68 -206 666 C-207.98 666 -209.96 666 -212 666 C-212 664.68 -212 663.36 -212 662 C-213.98 662 -215.96 662 -218 662 C-218 661.34 -218 660.68 -218 660 C-219.98 660 -221.96 660 -224 660 C-224 658.68 -224 657.36 -224 656 C-225.98 656 -227.96 656 -230 656 C-230 654.68 -230 653.36 -230 652 C-231.32 652 -232.64 652 -234 652 C-234 651.34 -234 650.68 -234 650 C-235.98 650 -237.96 650 -240 650 C-240 649.34 -240 648.68 -240 648 C-241.32 648 -242.64 648 -244 648 C-244 647.34 -244 646.68 -244 646 C-244.66 646 -245.32 646 -246 646 C-246 645.34 -246 644.68 -246 644 C-246.66 644 -247.32 644 -248 644 C-248 643.34 -248 642.68 -248 642 C-249.98 642 -251.96 642 -254 642 C-254 641.34 -254 640.68 -254 640 C-254.66 640 -255.32 640 -256 640 C-256 639.34 -256 638.68 -256 638 C-256.66 638 -257.32 638 -258 638 C-258 637.34 -258 636.68 -258 636 C-259.98 636 -261.96 636 -264 636 C-264 636.66 -264 637.32 -264 638 C-267.96 638 -271.92 638 -276 638 C-276 638.66 -276 639.32 -276 640 C-276.66 640 -277.32 640 -278 640 C-278 640.66 -278 641.32 -278 642 C-280.64 642 -283.28 642 -286 642 C-286 642.66 -286 643.32 -286 644 C-289.96 644 -293.92 644 -298 644 C-298 645.32 -298 646.64 -298 648 C-301.96 648 -305.92 648 -310 648 C-310 648.66 -310 649.32 -310 650 C-313.3 650 -316.6 650 -320 650 C-320 650.66 -320 651.32 -320 652 C-320.66 652 -321.32 652 -322 652 C-322 652.66 -322 653.32 -322 654 C-324.64 654 -327.28 654 -330 654 C-330 654.66 -330 655.32 -330 656 C-332.64 656 -335.28 656 -338 656 C-338 657.32 -338 658.64 -338 660 C-341.96 660 -345.92 660 -350 660 C-350 658.68 -350 657.36 -350 656 C-349.34 656 -348.68 656 -348 656 C-348 654.02 -348 652.04 -348 650 C-346.68 650 -345.36 650 -344 650 C-344 647.36 -344 644.72 -344 642 C-343.34 642 -342.68 642 -342 642 C-342 639.36 -342 636.72 -342 634 C-340.68 634 -339.36 634 -338 634 C-338 632.02 -338 630.04 -338 628 C-336.68 628 -335.36 628 -334 628 C-334 625.36 -334 622.72 -334 620 C-333.34 620 -332.68 620 -332 620 C-332 616.7 -332 613.4 -332 610 C-331.34 610 -330.68 610 -330 610 C-330 608.02 -330 606.04 -330 604 C-328.68 604 -327.36 604 -326 604 C-326 601.36 -326 598.72 -326 596 C-325.34 596 -324.68 596 -324 596 C-324 594.02 -324 592.04 -324 590 C-323.34 590 -322.68 590 -322 590 C-322 589.34 -322 588.68 -322 588 C-321.34 588 -320.68 588 -320 588 C-320 585.36 -320 582.72 -320 580 C-319.34 580 -318.68 580 -318 580 C-318 575.38 -318 570.76 -318 566 C-318.66 566 -319.32 566 -320 566 C-320 564.68 -320 563.36 -320 562 C-320.66 562 -321.32 562 -322 562 C-322 561.34 -322 560.68 -322 560 C-322.66 560 -323.32 560 -324 560 C-324 558.68 -324 557.36 -324 556 C-324.66 556 -325.32 556 -326 556 C-326 552.7 -326 549.4 -326 546 C-326.66 546 -327.32 546 -328 546 C-328 544.02 -328 542.04 -328 540 C-329.32 540 -330.64 540 -332 540 C-332 537.36 -332 534.72 -332 532 C-332.66 532 -333.32 532 -334 532 C-334 529.36 -334 526.72 -334 524 C-335.32 524 -336.64 524 -338 524 C-338 521.36 -338 518.72 -338 516 C-338.66 516 -339.32 516 -340 516 C-340 515.34 -340 514.68 -340 514 C-340.66 514 -341.32 514 -342 514 C-342 510.7 -342 507.4 -342 504 C-342.66 504 -343.32 504 -344 504 C-344 501.36 -344 498.72 -344 496 C-343.34 496 -342.68 496 -342 496 C-342 493.36 -342 490.72 -342 488 C-342.66 488 -343.32 488 -344 488 C-344 480.74 -344 473.48 -344 466 C-344.66 466 -345.32 466 -346 466 C-346 452.8 -346 439.6 -346 426 C-345.34 426 -344.68 426 -344 426 C-344 421.38 -344 416.76 -344 412 C-343.34 412 -342.68 412 -342 412 C-342 408.7 -342 405.4 -342 402 C-341.34 402 -340.68 402 -340 402 C-340 398.7 -340 395.4 -340 392 C-339.34 392 -338.68 392 -338 392 C-338 390.02 -338 388.04 -338 386 C-337.34 386 -336.68 386 -336 386 C-336 384.02 -336 382.04 -336 380 C-335.34 380 -334.68 380 -334 380 C-334 378.02 -334 376.04 -334 374 C-333.34 374 -332.68 374 -332 374 C-332 372.02 -332 370.04 -332 368 C-331.34 368 -330.68 368 -330 368 C-330 366.68 -330 365.36 -330 364 C-329.34 364 -328.68 364 -328 364 C-328 362.02 -328 360.04 -328 358 C-327.34 358 -326.68 358 -326 358 C-326 356.68 -326 355.36 -326 354 C-325.34 354 -324.68 354 -324 354 C-324 352.68 -324 351.36 -324 350 C-323.34 350 -322.68 350 -322 350 C-322 348.68 -322 347.36 -322 346 C-321.34 346 -320.68 346 -320 346 C-320 344.68 -320 343.36 -320 342 C-319.34 342 -318.68 342 -318 342 C-318 340.68 -318 339.36 -318 338 C-317.34 338 -316.68 338 -316 338 C-316 337.34 -316 336.68 -316 336 C-315.34 336 -314.68 336 -314 336 C-314 334.68 -314 333.36 -314 332 C-313.34 332 -312.68 332 -312 332 C-312 330.68 -312 329.36 -312 328 C-311.34 328 -310.68 328 -310 328 C-310 327.34 -310 326.68 -310 326 C-309.34 326 -308.68 326 -308 326 C-308 324.68 -308 323.36 -308 322 C-307.34 322 -306.68 322 -306 322 C-306 321.34 -306 320.68 -306 320 C-305.34 320 -304.68 320 -304 320 C-304 318.68 -304 317.36 -304 316 C-303.34 316 -302.68 316 -302 316 C-302 315.34 -302 314.68 -302 314 C-301.34 314 -300.68 314 -300 314 C-300 313.34 -300 312.68 -300 312 C-299.34 312 -298.68 312 -298 312 C-298 310.68 -298 309.36 -298 308 C-297.34 308 -296.68 308 -296 308 C-296 307.34 -296 306.68 -296 306 C-295.34 306 -294.68 306 -294 306 C-294 305.34 -294 304.68 -294 304 C-293.34 304 -292.68 304 -292 304 C-292 303.34 -292 302.68 -292 302 C-291.34 302 -290.68 302 -290 302 C-290 301.34 -290 300.68 -290 300 C-289.34 300 -288.68 300 -288 300 C-288 298.68 -288 297.36 -288 296 C-287.34 296 -286.68 296 -286 296 C-286 295.34 -286 294.68 -286 294 C-285.34 294 -284.68 294 -284 294 C-284 293.34 -284 292.68 -284 292 C-283.34 292 -282.68 292 -282 292 C-282 291.34 -282 290.68 -282 290 C-281.34 290 -280.68 290 -280 290 C-280 289.34 -280 288.68 -280 288 C-279.34 288 -278.68 288 -278 288 C-278 287.34 -278 286.68 -278 286 C-277.34 286 -276.68 286 -276 286 C-276 285.34 -276 284.68 -276 284 C-275.34 284 -274.68 284 -274 284 C-274 283.34 -274 282.68 -274 282 C-273.34 282 -272.68 282 -272 282 C-272 281.34 -272 280.68 -272 280 C-271.34 280 -270.68 280 -270 280 C-270 279.34 -270 278.68 -270 278 C-269.34 278 -268.68 278 -268 278 C-268 277.34 -268 276.68 -268 276 C-266.68 276 -265.36 276 -264 276 C-264 275.34 -264 274.68 -264 274 C-263.34 274 -262.68 274 -262 274 C-262 273.34 -262 272.68 -262 272 C-261.34 272 -260.68 272 -260 272 C-260 271.34 -260 270.68 -260 270 C-259.34 270 -258.68 270 -258 270 C-258 269.34 -258 268.68 -258 268 C-257.34 268 -256.68 268 -256 268 C-256 267.34 -256 266.68 -256 266 C-254.68 266 -253.36 266 -252 266 C-252 265.34 -252 264.68 -252 264 C-251.34 264 -250.68 264 -250 264 C-250 263.34 -250 262.68 -250 262 C-248.68 262 -247.36 262 -246 262 C-246 261.34 -246 260.68 -246 260 C-245.34 260 -244.68 260 -244 260 C-244 259.34 -244 258.68 -244 258 C-243.34 258 -242.68 258 -242 258 C-242 257.34 -242 256.68 -242 256 C-240.68 256 -239.36 256 -238 256 C-238 255.34 -238 254.68 -238 254 C-236.68 254 -235.36 254 -234 254 C-234 253.34 -234 252.68 -234 252 C-233.34 252 -232.68 252 -232 252 C-232 251.34 -232 250.68 -232 250 C-230.68 250 -229.36 250 -228 250 C-228 249.34 -228 248.68 -228 248 C-226.68 248 -225.36 248 -224 248 C-224 247.34 -224 246.68 -224 246 C-223.34 246 -222.68 246 -222 246 C-222 245.34 -222 244.68 -222 244 C-220.68 244 -219.36 244 -218 244 C-218 243.34 -218 242.68 -218 242 C-216.68 242 -215.36 242 -214 242 C-214 241.34 -214 240.68 -214 240 C-212.02 240 -210.04 240 -208 240 C-208 239.34 -208 238.68 -208 238 C-206.68 238 -205.36 238 -204 238 C-204 237.34 -204 236.68 -204 236 C-202.68 236 -201.36 236 -200 236 C-200 235.34 -200 234.68 -200 234 C-198.02 234 -196.04 234 -194 234 C-194 233.34 -194 232.68 -194 232 C-192.02 232 -190.04 232 -188 232 C-188 231.34 -188 230.68 -188 230 C-186.02 230 -184.04 230 -182 230 C-182 229.34 -182 228.68 -182 228 C-179.36 228 -176.72 228 -174 228 C-174 227.34 -174 226.68 -174 226 C-171.36 226 -168.72 226 -166 226 C-166 225.34 -166 224.68 -166 224 C-163.36 224 -160.72 224 -158 224 C-158 223.34 -158 222.68 -158 222 C-156.02 222 -154.04 222 -152 222 C-152 221.34 -152 220.68 -152 220 C-147.38 220 -142.76 220 -138 220 C-138 219.34 -138 218.68 -138 218 C-120.84 218 -103.68 218 -86 218 C-86 218.66 -86 219.32 -86 220 C-81.38 220 -76.76 220 -72 220 C-72 220.66 -72 221.32 -72 222 C-68.7 222 -65.4 222 -62 222 C-62 222.66 -62 223.32 -62 224 C-58.7 224 -55.4 224 -52 224 C-52 222.02 -52 220.04 -52 218 C-51.34 218 -50.68 218 -50 218 C-50 213.38 -50 208.76 -50 204 C-49.34 204 -48.68 204 -48 204 C-48 201.36 -48 198.72 -48 196 C-47.34 196 -46.68 196 -46 196 C-46 194.68 -46 193.36 -46 192 C-45.34 192 -44.68 192 -44 192 C-44 189.36 -44 186.72 -44 184 C-43.34 184 -42.68 184 -42 184 C-42 182.02 -42 180.04 -42 178 C-41.34 178 -40.68 178 -40 178 C-40 176.02 -40 174.04 -40 172 C-41.32 172 -42.64 172 -44 172 C-44 171.34 -44 170.68 -44 170 C-44.66 170 -45.32 170 -46 170 C-46 169.34 -46 168.68 -46 168 C-46.66 168 -47.32 168 -48 168 C-48 167.34 -48 166.68 -48 166 C-48.66 166 -49.32 166 -50 166 C-50 165.34 -50 164.68 -50 164 C-50.66 164 -51.32 164 -52 164 C-52 163.34 -52 162.68 -52 162 C-52.66 162 -53.32 162 -54 162 C-54 161.34 -54 160.68 -54 160 C-54.66 160 -55.32 160 -56 160 C-56 159.34 -56 158.68 -56 158 C-56.66 158 -57.32 158 -58 158 C-58 157.34 -58 156.68 -58 156 C-58.66 156 -59.32 156 -60 156 C-60 155.34 -60 154.68 -60 154 C-60.66 154 -61.32 154 -62 154 C-62 152.68 -62 151.36 -62 150 C-62.66 150 -63.32 150 -64 150 C-64 149.34 -64 148.68 -64 148 C-64.66 148 -65.32 148 -66 148 C-66 146.68 -66 145.36 -66 144 C-66.66 144 -67.32 144 -68 144 C-68 143.34 -68 142.68 -68 142 C-68.66 142 -69.32 142 -70 142 C-70 140.02 -70 138.04 -70 136 C-70.66 136 -71.32 136 -72 136 C-72 134.68 -72 133.36 -72 132 C-72.66 132 -73.32 132 -74 132 C-74 130.68 -74 129.36 -74 128 C-74.66 128 -75.32 128 -76 128 C-76 126.02 -76 124.04 -76 122 C-76.66 122 -77.32 122 -78 122 C-78 118.04 -78 114.08 -78 110 C-78.66 110 -79.32 110 -80 110 C-80 99.44 -80 88.88 -80 78 C-79.34 78 -78.68 78 -78 78 C-78 76.68 -78 75.36 -78 74 C-77.34 74 -76.68 74 -76 74 C-76 70.7 -76 67.4 -76 64 C-75.34 64 -74.68 64 -74 64 C-74 62.02 -74 60.04 -74 58 C-73.34 58 -72.68 58 -72 58 C-72 57.34 -72 56.68 -72 56 C-71.34 56 -70.68 56 -70 56 C-70 54.02 -70 52.04 -70 50 C-69.34 50 -68.68 50 -68 50 C-68 49.34 -68 48.68 -68 48 C-67.34 48 -66.68 48 -66 48 C-66 46.68 -66 45.36 -66 44 C-65.34 44 -64.68 44 -64 44 C-64 43.34 -64 42.68 -64 42 C-63.34 42 -62.68 42 -62 42 C-62 40.68 -62 39.36 -62 38 C-61.34 38 -60.68 38 -60 38 C-60 37.34 -60 36.68 -60 36 C-59.34 36 -58.68 36 -58 36 C-58 35.34 -58 34.68 -58 34 C-57.34 34 -56.68 34 -56 34 C-56 33.34 -56 32.68 -56 32 C-55.34 32 -54.68 32 -54 32 C-54 31.34 -54 30.68 -54 30 C-53.34 30 -52.68 30 -52 30 C-52 29.34 -52 28.68 -52 28 C-51.34 28 -50.68 28 -50 28 C-50 27.34 -50 26.68 -50 26 C-49.34 26 -48.68 26 -48 26 C-48 25.34 -48 24.68 -48 24 C-47.34 24 -46.68 24 -46 24 C-46 23.34 -46 22.68 -46 22 C-45.34 22 -44.68 22 -44 22 C-44 21.34 -44 20.68 -44 20 C-43.34 20 -42.68 20 -42 20 C-42 19.34 -42 18.68 -42 18 C-40.68 18 -39.36 18 -38 18 C-38 17.34 -38 16.68 -38 16 C-37.34 16 -36.68 16 -36 16 C-36 15.34 -36 14.68 -36 14 C-34.68 14 -33.36 14 -32 14 C-32 13.34 -32 12.68 -32 12 C-31.34 12 -30.68 12 -30 12 C-30 11.34 -30 10.68 -30 10 C-28.68 10 -27.36 10 -26 10 C-26 9.34 -26 8.68 -26 8 C-24.68 8 -23.36 8 -22 8 C-22 7.34 -22 6.68 -22 6 C-20.02 6 -18.04 6 -16 6 C-16 5.34 -16 4.68 -16 4 C-14.02 4 -12.04 4 -10 4 C-10 3.34 -10 2.68 -10 2 C-6.7 2 -3.4 2 0 2 C0 1.34 0 0.68 0 0 Z " fill="#F9DF70" transform="translate(401,54)"/>
<path d="M0 0 C10.56 0 21.12 0 32 0 C32 0.66 32 1.32 32 2 C35.3 2 38.6 2 42 2 C42 2.66 42 3.32 42 4 C43.32 4 44.64 4 46 4 C46 4.66 46 5.32 46 6 C47.98 6 49.96 6 52 6 C52 6.66 52 7.32 52 8 C53.98 8 55.96 8 58 8 C58 8.66 58 9.32 58 10 C59.32 10 60.64 10 62 10 C62 10.66 62 11.32 62 12 C62.66 12 63.32 12 64 12 C64 12.66 64 13.32 64 14 C65.32 14 66.64 14 68 14 C68 14.66 68 15.32 68 16 C68.66 16 69.32 16 70 16 C70 16.66 70 17.32 70 18 C71.32 18 72.64 18 74 18 C74 18.66 74 19.32 74 20 C74.66 20 75.32 20 76 20 C76 20.66 76 21.32 76 22 C76.66 22 77.32 22 78 22 C78 22.66 78 23.32 78 24 C78.66 24 79.32 24 80 24 C80 24.66 80 25.32 80 26 C81.32 26 82.64 26 84 26 C84 26.66 84 27.32 84 28 C84.66 28 85.32 28 86 28 C86 29.32 86 30.64 86 32 C86.66 32 87.32 32 88 32 C88 32.66 88 33.32 88 34 C88.66 34 89.32 34 90 34 C90 34.66 90 35.32 90 36 C90.66 36 91.32 36 92 36 C92 36.66 92 37.32 92 38 C92.66 38 93.32 38 94 38 C94 38.66 94 39.32 94 40 C94.66 40 95.32 40 96 40 C96 41.32 96 42.64 96 44 C96.66 44 97.32 44 98 44 C98 45.32 98 46.64 98 48 C98.66 48 99.32 48 100 48 C100 48.66 100 49.32 100 50 C100.66 50 101.32 50 102 50 C102 51.32 102 52.64 102 54 C102.66 54 103.32 54 104 54 C104 55.98 104 57.96 104 60 C104.66 60 105.32 60 106 60 C106 60.66 106 61.32 106 62 C119.86 62 133.72 62 148 62 C148 62.66 148 63.32 148 64 C150.64 64 153.28 64 156 64 C156 64.66 156 65.32 156 66 C159.3 66 162.6 66 166 66 C166 66.66 166 67.32 166 68 C168.64 68 171.28 68 174 68 C174 68.66 174 69.32 174 70 C175.32 70 176.64 70 178 70 C178 70.66 178 71.32 178 72 C180.64 72 183.28 72 186 72 C186 72.66 186 73.32 186 74 C187.98 74 189.96 74 192 74 C192 74.66 192 75.32 192 76 C192.66 76 193.32 76 194 76 C194 76.66 194 77.32 194 78 C195.98 78 197.96 78 200 78 C200 78.66 200 79.32 200 80 C201.32 80 202.64 80 204 80 C204 80.66 204 81.32 204 82 C205.32 82 206.64 82 208 82 C208 82.66 208 83.32 208 84 C209.32 84 210.64 84 212 84 C212 84.66 212 85.32 212 86 C212.66 86 213.32 86 214 86 C214 86.66 214 87.32 214 88 C216.64 88 219.28 88 222 88 C222 86.68 222 85.36 222 84 C223.32 84 224.64 84 226 84 C226 82.68 226 81.36 226 80 C227.32 80 228.64 80 230 80 C230 79.34 230 78.68 230 78 C231.98 78 233.96 78 236 78 C236 76.68 236 75.36 236 74 C237.32 74 238.64 74 240 74 C240 73.34 240 72.68 240 72 C241.32 72 242.64 72 244 72 C244 71.34 244 70.68 244 70 C244.66 70 245.32 70 246 70 C246 69.34 246 68.68 246 68 C247.32 68 248.64 68 250 68 C250 67.34 250 66.68 250 66 C251.98 66 253.96 66 256 66 C256 65.34 256 64.68 256 64 C257.32 64 258.64 64 260 64 C260 62.68 260 61.36 260 60 C261.98 60 263.96 60 266 60 C266 59.34 266 58.68 266 58 C267.32 58 268.64 58 270 58 C270 56.68 270 55.36 270 54 C271.32 54 272.64 54 274 54 C274 52.68 274 51.36 274 50 C275.32 50 276.64 50 278 50 C278 49.34 278 48.68 278 48 C279.32 48 280.64 48 282 48 C282 49.32 282 50.64 282 52 C281.34 52 280.68 52 280 52 C280 55.96 280 59.92 280 64 C279.34 64 278.68 64 278 64 C278 64.66 278 65.32 278 66 C277.34 66 276.68 66 276 66 C276 69.3 276 72.6 276 76 C275.34 76 274.68 76 274 76 C274 79.96 274 83.92 274 88 C273.34 88 272.68 88 272 88 C272 88.66 272 89.32 272 90 C271.34 90 270.68 90 270 90 C270 93.3 270 96.6 270 100 C269.34 100 268.68 100 268 100 C268 103.96 268 107.92 268 112 C267.34 112 266.68 112 266 112 C266 112.66 266 113.32 266 114 C265.34 114 264.68 114 264 114 C264 117.3 264 120.6 264 124 C263.34 124 262.68 124 262 124 C262 125.98 262 127.96 262 130 C262.66 130 263.32 130 264 130 C264 131.32 264 132.64 264 134 C264.66 134 265.32 134 266 134 C266 134.66 266 135.32 266 136 C266.66 136 267.32 136 268 136 C268 137.32 268 138.64 268 140 C268.66 140 269.32 140 270 140 C270 140.66 270 141.32 270 142 C270.66 142 271.32 142 272 142 C272 143.32 272 144.64 272 146 C272.66 146 273.32 146 274 146 C274 146.66 274 147.32 274 148 C274.66 148 275.32 148 276 148 C276 149.32 276 150.64 276 152 C276.66 152 277.32 152 278 152 C278 153.32 278 154.64 278 156 C278.66 156 279.32 156 280 156 C280 157.32 280 158.64 280 160 C280.66 160 281.32 160 282 160 C282 161.32 282 162.64 282 164 C282.66 164 283.32 164 284 164 C284 165.32 284 166.64 284 168 C284.66 168 285.32 168 286 168 C286 169.32 286 170.64 286 172 C286.66 172 287.32 172 288 172 C288 173.32 288 174.64 288 176 C288.66 176 289.32 176 290 176 C290 177.98 290 179.96 290 182 C290.66 182 291.32 182 292 182 C292 183.98 292 185.96 292 188 C292.66 188 293.32 188 294 188 C294 190.64 294 193.28 294 196 C294.66 196 295.32 196 296 196 C296 199.96 296 203.92 296 208 C296.66 208 297.32 208 298 208 C298 210.64 298 213.28 298 216 C298.66 216 299.32 216 300 216 C300 230.52 300 245.04 300 260 C299.34 260 298.68 260 298 260 C298 264.62 298 269.24 298 274 C297.34 274 296.68 274 296 274 C296 276.64 296 279.28 296 282 C295.34 282 294.68 282 294 282 C294 283.98 294 285.96 294 288 C293.34 288 292.68 288 292 288 C292 291.3 292 294.6 292 298 C291.34 298 290.68 298 290 298 C290 299.32 290 300.64 290 302 C289.34 302 288.68 302 288 302 C288 303.32 288 304.64 288 306 C287.34 306 286.68 306 286 306 C286 307.98 286 309.96 286 312 C285.34 312 284.68 312 284 312 C284 313.32 284 314.64 284 316 C283.34 316 282.68 316 282 316 C282 317.32 282 318.64 282 320 C281.34 320 280.68 320 280 320 C280 321.32 280 322.64 280 324 C279.34 324 278.68 324 278 324 C278 325.32 278 326.64 278 328 C277.34 328 276.68 328 276 328 C276 329.32 276 330.64 276 332 C275.34 332 274.68 332 274 332 C274 332.66 274 333.32 274 334 C273.34 334 272.68 334 272 334 C272 335.32 272 336.64 272 338 C271.34 338 270.68 338 270 338 C270 338.66 270 339.32 270 340 C269.34 340 268.68 340 268 340 C268 341.32 268 342.64 268 344 C267.34 344 266.68 344 266 344 C266 344.66 266 345.32 266 346 C265.34 346 264.68 346 264 346 C264 347.32 264 348.64 264 350 C263.34 350 262.68 350 262 350 C262 350.66 262 351.32 262 352 C261.34 352 260.68 352 260 352 C260 352.66 260 353.32 260 354 C259.34 354 258.68 354 258 354 C258 354.66 258 355.32 258 356 C257.34 356 256.68 356 256 356 C256 357.32 256 358.64 256 360 C255.34 360 254.68 360 254 360 C254 360.66 254 361.32 254 362 C253.34 362 252.68 362 252 362 C252 362.66 252 363.32 252 364 C251.34 364 250.68 364 250 364 C250 364.66 250 365.32 250 366 C249.34 366 248.68 366 248 366 C248 366.66 248 367.32 248 368 C247.34 368 246.68 368 246 368 C246 368.66 246 369.32 246 370 C245.34 370 244.68 370 244 370 C244 370.66 244 371.32 244 372 C243.34 372 242.68 372 242 372 C242 372.66 242 373.32 242 374 C240.68 374 239.36 374 238 374 C238 374.66 238 375.32 238 376 C237.34 376 236.68 376 236 376 C236 376.66 236 377.32 236 378 C235.34 378 234.68 378 234 378 C234 378.66 234 379.32 234 380 C233.34 380 232.68 380 232 380 C232 380.66 232 381.32 232 382 C230.68 382 229.36 382 228 382 C228 382.66 228 383.32 228 384 C227.34 384 226.68 384 226 384 C226 384.66 226 385.32 226 386 C225.34 386 224.68 386 224 386 C224 386.66 224 387.32 224 388 C222.68 388 221.36 388 220 388 C220 388.66 220 389.32 220 390 C219.34 390 218.68 390 218 390 C218 390.66 218 391.32 218 392 C216.68 392 215.36 392 214 392 C214 392.66 214 393.32 214 394 C212.68 394 211.36 394 210 394 C210 394.66 210 395.32 210 396 C208.68 396 207.36 396 206 396 C206 396.66 206 397.32 206 398 C204.68 398 203.36 398 202 398 C202 398.66 202 399.32 202 400 C200.68 400 199.36 400 198 400 C198 400.66 198 401.32 198 402 C196.68 402 195.36 402 194 402 C194 402.66 194 403.32 194 404 C192.68 404 191.36 404 190 404 C190 404.66 190 405.32 190 406 C188.02 406 186.04 406 184 406 C184 406.66 184 407.32 184 408 C182.02 408 180.04 408 178 408 C178 408.66 178 409.32 178 410 C176.02 410 174.04 410 172 410 C172 410.66 172 411.32 172 412 C169.36 412 166.72 412 164 412 C164 412.66 164 413.32 164 414 C162.02 414 160.04 414 158 414 C158 414.66 158 415.32 158 416 C154.04 416 150.08 416 146 416 C146 416.66 146 417.32 146 418 C130.82 418 115.64 418 100 418 C100 417.34 100 416.68 100 416 C96.04 416 92.08 416 88 416 C88 415.34 88 414.68 88 414 C86.68 414 85.36 414 84 414 C84 413.34 84 412.68 84 412 C80.7 412 77.4 412 74 412 C74 411.34 74 410.68 74 410 C72.02 410 70.04 410 68 410 C68 409.34 68 408.68 68 408 C66.02 408 64.04 408 62 408 C62 407.34 62 406.68 62 406 C60.68 406 59.36 406 58 406 C58 405.34 58 404.68 58 404 C56.68 404 55.36 404 54 404 C54 403.34 54 402.68 54 402 C52.02 402 50.04 402 48 402 C48 401.34 48 400.68 48 400 C47.34 400 46.68 400 46 400 C46 399.34 46 398.68 46 398 C44.68 398 43.36 398 42 398 C42 397.34 42 396.68 42 396 C40.68 396 39.36 396 38 396 C38 395.34 38 394.68 38 394 C36.68 394 35.36 394 34 394 C34 393.34 34 392.68 34 392 C32.68 392 31.36 392 30 392 C30 391.34 30 390.68 30 390 C29.34 390 28.68 390 28 390 C28 389.34 28 388.68 28 388 C26.68 388 25.36 388 24 388 C24 387.34 24 386.68 24 386 C23.34 386 22.68 386 22 386 C22 385.34 22 384.68 22 384 C21.34 384 20.68 384 20 384 C20 383.34 20 382.68 20 382 C18.68 382 17.36 382 16 382 C16 381.34 16 380.68 16 380 C15.34 380 14.68 380 14 380 C14 379.34 14 378.68 14 378 C13.34 378 12.68 378 12 378 C12 377.34 12 376.68 12 376 C11.34 376 10.68 376 10 376 C10 375.34 10 374.68 10 374 C8.68 374 7.36 374 6 374 C6 373.34 6 372.68 6 372 C5.34 372 4.68 372 4 372 C4 371.34 4 370.68 4 370 C3.34 370 2.68 370 2 370 C2 369.34 2 368.68 2 368 C1.34 368 0.68 368 0 368 C0 367.34 0 366.68 0 366 C-0.66 366 -1.32 366 -2 366 C-2 365.34 -2 364.68 -2 364 C-2.66 364 -3.32 364 -4 364 C-4 363.34 -4 362.68 -4 362 C-4.66 362 -5.32 362 -6 362 C-6 360.68 -6 359.36 -6 358 C-6.66 358 -7.32 358 -8 358 C-8 357.34 -8 356.68 -8 356 C-8.66 356 -9.32 356 -10 356 C-10 355.34 -10 354.68 -10 354 C-10.66 354 -11.32 354 -12 354 C-12 353.34 -12 352.68 -12 352 C-12.66 352 -13.32 352 -14 352 C-14 351.34 -14 350.68 -14 350 C-14.66 350 -15.32 350 -16 350 C-16 348.68 -16 347.36 -16 346 C-16.66 346 -17.32 346 -18 346 C-18 345.34 -18 344.68 -18 344 C-18.66 344 -19.32 344 -20 344 C-20 342.68 -20 341.36 -20 340 C-20.66 340 -21.32 340 -22 340 C-22 339.34 -22 338.68 -22 338 C-22.66 338 -23.32 338 -24 338 C-24 336.68 -24 335.36 -24 334 C-24.66 334 -25.32 334 -26 334 C-26 333.34 -26 332.68 -26 332 C-26.66 332 -27.32 332 -28 332 C-28 330.68 -28 329.36 -28 328 C-28.66 328 -29.32 328 -30 328 C-30 326.68 -30 325.36 -30 324 C-30.66 324 -31.32 324 -32 324 C-32 322.68 -32 321.36 -32 320 C-32.66 320 -33.32 320 -34 320 C-34 318.68 -34 317.36 -34 316 C-34.66 316 -35.32 316 -36 316 C-36 314.68 -36 313.36 -36 312 C-36.66 312 -37.32 312 -38 312 C-38 310.68 -38 309.36 -38 308 C-38.66 308 -39.32 308 -40 308 C-40 305.36 -40 302.72 -40 300 C-40.66 300 -41.32 300 -42 300 C-42 299.34 -42 298.68 -42 298 C-42.66 298 -43.32 298 -44 298 C-44 294.7 -44 291.4 -44 288 C-44.66 288 -45.32 288 -46 288 C-46 285.36 -46 282.72 -46 280 C-46.66 280 -47.32 280 -48 280 C-48 276.7 -48 273.4 -48 270 C-48.66 270 -49.32 270 -50 270 C-50 266.7 -50 263.4 -50 260 C-50.66 260 -51.32 260 -52 260 C-52 246.14 -52 232.28 -52 218 C-51.34 218 -50.68 218 -50 218 C-50 213.38 -50 208.76 -50 204 C-49.34 204 -48.68 204 -48 204 C-48 201.36 -48 198.72 -48 196 C-47.34 196 -46.68 196 -46 196 C-46 194.68 -46 193.36 -46 192 C-45.34 192 -44.68 192 -44 192 C-44 189.36 -44 186.72 -44 184 C-43.34 184 -42.68 184 -42 184 C-42 182.02 -42 180.04 -42 178 C-41.34 178 -40.68 178 -40 178 C-40 176.02 -40 174.04 -40 172 C-41.32 172 -42.64 172 -44 172 C-44 171.34 -44 170.68 -44 170 C-44.66 170 -45.32 170 -46 170 C-46 169.34 -46 168.68 -46 168 C-46.66 168 -47.32 168 -48 168 C-48 167.34 -48 166.68 -48 166 C-48.66 166 -49.32 166 -50 166 C-50 165.34 -50 164.68 -50 164 C-50.66 164 -51.32 164 -52 164 C-52 163.34 -52 162.68 -52 162 C-52.66 162 -53.32 162 -54 162 C-54 161.34 -54 160.68 -54 160 C-54.66 160 -55.32 160 -56 160 C-56 159.34 -56 158.68 -56 158 C-56.66 158 -57.32 158 -58 158 C-58 157.34 -58 156.68 -58 156 C-58.66 156 -59.32 156 -60 156 C-60 155.34 -60 154.68 -60 154 C-60.66 154 -61.32 154 -62 154 C-62 152.68 -62 151.36 -62 150 C-62.66 150 -63.32 150 -64 150 C-64 149.34 -64 148.68 -64 148 C-64.66 148 -65.32 148 -66 148 C-66 146.68 -66 145.36 -66 144 C-66.66 144 -67.32 144 -68 144 C-68 143.34 -68 142.68 -68 142 C-68.66 142 -69.32 142 -70 142 C-70 140.02 -70 138.04 -70 136 C-70.66 136 -71.32 136 -72 136 C-72 134.68 -72 133.36 -72 132 C-72.66 132 -73.32 132 -74 132 C-74 130.68 -74 129.36 -74 128 C-74.66 128 -75.32 128 -76 128 C-76 126.02 -76 124.04 -76 122 C-76.66 122 -77.32 122 -78 122 C-78 118.04 -78 114.08 -78 110 C-78.66 110 -79.32 110 -80 110 C-80 99.44 -80 88.88 -80 78 C-79.34 78 -78.68 78 -78 78 C-78 76.68 -78 75.36 -78 74 C-77.34 74 -76.68 74 -76 74 C-76 70.7 -76 67.4 -76 64 C-75.34 64 -74.68 64 -74 64 C-74 62.02 -74 60.04 -74 58 C-73.34 58 -72.68 58 -72 58 C-72 57.34 -72 56.68 -72 56 C-71.34 56 -70.68 56 -70 56 C-70 54.02 -70 52.04 -70 50 C-69.34 50 -68.68 50 -68 50 C-68 49.34 -68 48.68 -68 48 C-67.34 48 -66.68 48 -66 48 C-66 46.68 -66 45.36 -66 44 C-65.34 44 -64.68 44 -64 44 C-64 43.34 -64 42.68 -64 42 C-63.34 42 -62.68 42 -62 42 C-62 40.68 -62 39.36 -62 38 C-61.34 38 -60.68 38 -60 38 C-60 37.34 -60 36.68 -60 36 C-59.34 36 -58.68 36 -58 36 C-58 35.34 -58 34.68 -58 34 C-57.34 34 -56.68 34 -56 34 C-56 33.34 -56 32.68 -56 32 C-55.34 32 -54.68 32 -54 32 C-54 31.34 -54 30.68 -54 30 C-53.34 30 -52.68 30 -52 30 C-52 29.34 -52 28.68 -52 28 C-51.34 28 -50.68 28 -50 28 C-50 27.34 -50 26.68 -50 26 C-49.34 26 -48.68 26 -48 26 C-48 25.34 -48 24.68 -48 24 C-47.34 24 -46.68 24 -46 24 C-46 23.34 -46 22.68 -46 22 C-45.34 22 -44.68 22 -44 22 C-44 21.34 -44 20.68 -44 20 C-43.34 20 -42.68 20 -42 20 C-42 19.34 -42 18.68 -42 18 C-40.68 18 -39.36 18 -38 18 C-38 17.34 -38 16.68 -38 16 C-37.34 16 -36.68 16 -36 16 C-36 15.34 -36 14.68 -36 14 C-34.68 14 -33.36 14 -32 14 C-32 13.34 -32 12.68 -32 12 C-31.34 12 -30.68 12 -30 12 C-30 11.34 -30 10.68 -30 10 C-28.68 10 -27.36 10 -26 10 C-26 9.34 -26 8.68 -26 8 C-24.68 8 -23.36 8 -22 8 C-22 7.34 -22 6.68 -22 6 C-20.02 6 -18.04 6 -16 6 C-16 5.34 -16 4.68 -16 4 C-14.02 4 -12.04 4 -10 4 C-10 3.34 -10 2.68 -10 2 C-6.7 2 -3.4 2 0 2 C0 1.34 0 0.68 0 0 Z " fill="#1D49A7" transform="translate(401,54)"/>
<path d="M0 0 C9.24 0 18.48 0 28 0 C28 0.66 28 1.32 28 2 C31.3 2 34.6 2 38 2 C38 2.66 38 3.32 38 4 C39.32 4 40.64 4 42 4 C42 4.66 42 5.32 42 6 C43.98 6 45.96 6 48 6 C48 6.66 48 7.32 48 8 C49.98 8 51.96 8 54 8 C54 8.66 54 9.32 54 10 C55.32 10 56.64 10 58 10 C58 10.66 58 11.32 58 12 C58.66 12 59.32 12 60 12 C60 12.66 60 13.32 60 14 C61.32 14 62.64 14 64 14 C64 14.66 64 15.32 64 16 C64.66 16 65.32 16 66 16 C66 16.66 66 17.32 66 18 C67.32 18 68.64 18 70 18 C70 18.66 70 19.32 70 20 C70.66 20 71.32 20 72 20 C72 20.66 72 21.32 72 22 C72.66 22 73.32 22 74 22 C74 22.66 74 23.32 74 24 C74.66 24 75.32 24 76 24 C76 24.66 76 25.32 76 26 C76.66 26 77.32 26 78 26 C78 26.66 78 27.32 78 28 C78.66 28 79.32 28 80 28 C80 28.66 80 29.32 80 30 C80.66 30 81.32 30 82 30 C82 30.66 82 31.32 82 32 C82.66 32 83.32 32 84 32 C84 32.66 84 33.32 84 34 C84.66 34 85.32 34 86 34 C86 34.66 86 35.32 86 36 C86.66 36 87.32 36 88 36 C88 37.32 88 38.64 88 40 C88.66 40 89.32 40 90 40 C90 40.66 90 41.32 90 42 C90.66 42 91.32 42 92 42 C92 43.32 92 44.64 92 46 C92.66 46 93.32 46 94 46 C94 46.66 94 47.32 94 48 C94.66 48 95.32 48 96 48 C96 49.32 96 50.64 96 52 C96.66 52 97.32 52 98 52 C98 53.32 98 54.64 98 56 C98.66 56 99.32 56 100 56 C100 57.98 100 59.96 100 62 C100.66 62 101.32 62 102 62 C102 63.98 102 65.96 102 68 C102.66 68 103.32 68 104 68 C104 71.3 104 74.6 104 78 C104.66 78 105.32 78 106 78 C106 85.92 106 93.84 106 102 C105.34 102 104.68 102 104 102 C104 106.62 104 111.24 104 116 C103.34 116 102.68 116 102 116 C102 117.32 102 118.64 102 120 C101.34 120 100.68 120 100 120 C100 121.98 100 123.96 100 126 C99.34 126 98.68 126 98 126 C98 127.98 98 129.96 98 132 C97.34 132 96.68 132 96 132 C96 133.32 96 134.64 96 136 C95.34 136 94.68 136 94 136 C94 136.66 94 137.32 94 138 C93.34 138 92.68 138 92 138 C92 139.32 92 140.64 92 142 C91.34 142 90.68 142 90 142 C90 142.66 90 143.32 90 144 C89.34 144 88.68 144 88 144 C88 145.32 88 146.64 88 148 C87.34 148 86.68 148 86 148 C86 148.66 86 149.32 86 150 C85.34 150 84.68 150 84 150 C84 150.66 84 151.32 84 152 C83.34 152 82.68 152 82 152 C82 152.66 82 153.32 82 154 C81.34 154 80.68 154 80 154 C80 154.66 80 155.32 80 156 C79.34 156 78.68 156 78 156 C78 156.66 78 157.32 78 158 C77.34 158 76.68 158 76 158 C76 158.66 76 159.32 76 160 C75.34 160 74.68 160 74 160 C74 160.66 74 161.32 74 162 C73.34 162 72.68 162 72 162 C72 162.66 72 163.32 72 164 C71.34 164 70.68 164 70 164 C70 164.66 70 165.32 70 166 C68.68 166 67.36 166 66 166 C66 166.66 66 167.32 66 168 C65.34 168 64.68 168 64 168 C64 168.66 64 169.32 64 170 C62.68 170 61.36 170 60 170 C60 170.66 60 171.32 60 172 C59.34 172 58.68 172 58 172 C58 172.66 58 173.32 58 174 C56.68 174 55.36 174 54 174 C54 174.66 54 175.32 54 176 C52.02 176 50.04 176 48 176 C48 176.66 48 177.32 48 178 C46.02 178 44.04 178 42 178 C42 178.66 42 179.32 42 180 C40.68 180 39.36 180 38 180 C38 180.66 38 181.32 38 182 C33.38 182 28.76 182 24 182 C24 182.66 24 183.32 24 184 C16.08 184 8.16 184 0 184 C0 183.34 0 182.68 0 182 C-3.3 182 -6.6 182 -10 182 C-10 181.34 -10 180.68 -10 180 C-11.98 180 -13.96 180 -16 180 C-16 179.34 -16 178.68 -16 178 C-17.98 178 -19.96 178 -22 178 C-22 177.34 -22 176.68 -22 176 C-23.32 176 -24.64 176 -26 176 C-26 175.34 -26 174.68 -26 174 C-27.32 174 -28.64 174 -30 174 C-30 173.34 -30 172.68 -30 172 C-30.66 172 -31.32 172 -32 172 C-32 171.34 -32 170.68 -32 170 C-33.32 170 -34.64 170 -36 170 C-36 169.34 -36 168.68 -36 168 C-36.66 168 -37.32 168 -38 168 C-38 167.34 -38 166.68 -38 166 C-39.32 166 -40.64 166 -42 166 C-42 165.34 -42 164.68 -42 164 C-42.66 164 -43.32 164 -44 164 C-44 163.34 -44 162.68 -44 162 C-44.66 162 -45.32 162 -46 162 C-46 161.34 -46 160.68 -46 160 C-46.66 160 -47.32 160 -48 160 C-48 159.34 -48 158.68 -48 158 C-48.66 158 -49.32 158 -50 158 C-50 157.34 -50 156.68 -50 156 C-50.66 156 -51.32 156 -52 156 C-52 155.34 -52 154.68 -52 154 C-52.66 154 -53.32 154 -54 154 C-54 153.34 -54 152.68 -54 152 C-54.66 152 -55.32 152 -56 152 C-56 151.34 -56 150.68 -56 150 C-56.66 150 -57.32 150 -58 150 C-58 149.34 -58 148.68 -58 148 C-58.66 148 -59.32 148 -60 148 C-60 146.68 -60 145.36 -60 144 C-60.66 144 -61.32 144 -62 144 C-62 143.34 -62 142.68 -62 142 C-62.66 142 -63.32 142 -64 142 C-64 140.68 -64 139.36 -64 138 C-64.66 138 -65.32 138 -66 138 C-66 137.34 -66 136.68 -66 136 C-66.66 136 -67.32 136 -68 136 C-68 134.68 -68 133.36 -68 132 C-68.66 132 -69.32 132 -70 132 C-70 130.02 -70 128.04 -70 126 C-70.66 126 -71.32 126 -72 126 C-72 124.02 -72 122.04 -72 120 C-72.66 120 -73.32 120 -74 120 C-74 118.68 -74 117.36 -74 116 C-74.66 116 -75.32 116 -76 116 C-76 111.38 -76 106.76 -76 102 C-76.66 102 -77.32 102 -78 102 C-78 96.06 -78 90.12 -78 84 C-77.34 84 -76.68 84 -76 84 C-76 78.72 -76 73.44 -76 68 C-75.34 68 -74.68 68 -74 68 C-74 66.02 -74 64.04 -74 62 C-73.34 62 -72.68 62 -72 62 C-72 60.02 -72 58.04 -72 56 C-71.34 56 -70.68 56 -70 56 C-70 54.68 -70 53.36 -70 52 C-69.34 52 -68.68 52 -68 52 C-68 50.68 -68 49.36 -68 48 C-67.34 48 -66.68 48 -66 48 C-66 47.34 -66 46.68 -66 46 C-65.34 46 -64.68 46 -64 46 C-64 44.68 -64 43.36 -64 42 C-63.34 42 -62.68 42 -62 42 C-62 41.34 -62 40.68 -62 40 C-61.34 40 -60.68 40 -60 40 C-60 38.68 -60 37.36 -60 36 C-59.34 36 -58.68 36 -58 36 C-58 35.34 -58 34.68 -58 34 C-57.34 34 -56.68 34 -56 34 C-56 33.34 -56 32.68 -56 32 C-55.34 32 -54.68 32 -54 32 C-54 31.34 -54 30.68 -54 30 C-53.34 30 -52.68 30 -52 30 C-52 29.34 -52 28.68 -52 28 C-51.34 28 -50.68 28 -50 28 C-50 27.34 -50 26.68 -50 26 C-49.34 26 -48.68 26 -48 26 C-48 25.34 -48 24.68 -48 24 C-47.34 24 -46.68 24 -46 24 C-46 23.34 -46 22.68 -46 22 C-45.34 22 -44.68 22 -44 22 C-44 21.34 -44 20.68 -44 20 C-43.34 20 -42.68 20 -42 20 C-42 19.34 -42 18.68 -42 18 C-40.68 18 -39.36 18 -38 18 C-38 17.34 -38 16.68 -38 16 C-37.34 16 -36.68 16 -36 16 C-36 15.34 -36 14.68 -36 14 C-34.68 14 -33.36 14 -32 14 C-32 13.34 -32 12.68 -32 12 C-31.34 12 -30.68 12 -30 12 C-30 11.34 -30 10.68 -30 10 C-28.68 10 -27.36 10 -26 10 C-26 9.34 -26 8.68 -26 8 C-24.68 8 -23.36 8 -22 8 C-22 7.34 -22 6.68 -22 6 C-20.02 6 -18.04 6 -16 6 C-16 5.34 -16 4.68 -16 4 C-14.02 4 -12.04 4 -10 4 C-10 3.34 -10 2.68 -10 2 C-6.7 2 -3.4 2 0 2 C0 1.34 0 0.68 0 0 Z " fill="#FDFEFE" transform="translate(403,58)"/>
<path d="M0 0 C10.56 0 21.12 0 32 0 C32 0.66 32 1.32 32 2 C35.3 2 38.6 2 42 2 C42 2.66 42 3.32 42 4 C43.32 4 44.64 4 46 4 C46 4.66 46 5.32 46 6 C47.98 6 49.96 6 52 6 C52 6.66 52 7.32 52 8 C53.98 8 55.96 8 58 8 C58 8.66 58 9.32 58 10 C59.32 10 60.64 10 62 10 C62 10.66 62 11.32 62 12 C62.66 12 63.32 12 64 12 C64 12.66 64 13.32 64 14 C65.32 14 66.64 14 68 14 C68 14.66 68 15.32 68 16 C68.66 16 69.32 16 70 16 C70 16.66 70 17.32 70 18 C71.32 18 72.64 18 74 18 C74 18.66 74 19.32 74 20 C74.66 20 75.32 20 76 20 C76 20.66 76 21.32 76 22 C76.66 22 77.32 22 78 22 C78 22.66 78 23.32 78 24 C78.66 24 79.32 24 80 24 C80 24.66 80 25.32 80 26 C81.32 26 82.64 26 84 26 C84 26.66 84 27.32 84 28 C84.66 28 85.32 28 86 28 C86 29.32 86 30.64 86 32 C86.66 32 87.32 32 88 32 C88 32.66 88 33.32 88 34 C88.66 34 89.32 34 90 34 C90 34.66 90 35.32 90 36 C90.66 36 91.32 36 92 36 C92 36.66 92 37.32 92 38 C92.66 38 93.32 38 94 38 C94 38.66 94 39.32 94 40 C94.66 40 95.32 40 96 40 C96 41.32 96 42.64 96 44 C96.66 44 97.32 44 98 44 C98 45.32 98 46.64 98 48 C98.66 48 99.32 48 100 48 C100 48.66 100 49.32 100 50 C100.66 50 101.32 50 102 50 C102 51.32 102 52.64 102 54 C102.66 54 103.32 54 104 54 C104 55.32 104 56.64 104 58 C103.34 58 102.68 58 102 58 C102 58.66 102 59.32 102 60 C101.34 60 100.68 60 100 60 C100 58.68 100 57.36 100 56 C99.34 56 98.68 56 98 56 C98 54.68 98 53.36 98 52 C97.34 52 96.68 52 96 52 C96 51.34 96 50.68 96 50 C95.34 50 94.68 50 94 50 C94 48.68 94 47.36 94 46 C93.34 46 92.68 46 92 46 C92 45.34 92 44.68 92 44 C91.34 44 90.68 44 90 44 C90 42.68 90 41.36 90 40 C89.34 40 88.68 40 88 40 C88 39.34 88 38.68 88 38 C87.34 38 86.68 38 86 38 C86 37.34 86 36.68 86 36 C85.34 36 84.68 36 84 36 C84 35.34 84 34.68 84 34 C83.34 34 82.68 34 82 34 C82 33.34 82 32.68 82 32 C81.34 32 80.68 32 80 32 C80 31.34 80 30.68 80 30 C79.34 30 78.68 30 78 30 C78 29.34 78 28.68 78 28 C77.34 28 76.68 28 76 28 C76 27.34 76 26.68 76 26 C75.34 26 74.68 26 74 26 C74 25.34 74 24.68 74 24 C73.34 24 72.68 24 72 24 C72 23.34 72 22.68 72 22 C70.68 22 69.36 22 68 22 C68 21.34 68 20.68 68 20 C67.34 20 66.68 20 66 20 C66 19.34 66 18.68 66 18 C64.68 18 63.36 18 62 18 C62 17.34 62 16.68 62 16 C61.34 16 60.68 16 60 16 C60 15.34 60 14.68 60 14 C58.68 14 57.36 14 56 14 C56 13.34 56 12.68 56 12 C54.02 12 52.04 12 50 12 C50 11.34 50 10.68 50 10 C48.02 10 46.04 10 44 10 C44 9.34 44 8.68 44 8 C42.68 8 41.36 8 40 8 C40 7.34 40 6.68 40 6 C36.7 6 33.4 6 30 6 C30 5.34 30 4.68 30 4 C20.76 4 11.52 4 2 4 C2 4.66 2 5.32 2 6 C-1.3 6 -4.6 6 -8 6 C-8 6.66 -8 7.32 -8 8 C-9.98 8 -11.96 8 -14 8 C-14 8.66 -14 9.32 -14 10 C-15.98 10 -17.96 10 -20 10 C-20 10.66 -20 11.32 -20 12 C-21.32 12 -22.64 12 -24 12 C-24 12.66 -24 13.32 -24 14 C-25.32 14 -26.64 14 -28 14 C-28 14.66 -28 15.32 -28 16 C-28.66 16 -29.32 16 -30 16 C-30 16.66 -30 17.32 -30 18 C-31.32 18 -32.64 18 -34 18 C-34 18.66 -34 19.32 -34 20 C-34.66 20 -35.32 20 -36 20 C-36 20.66 -36 21.32 -36 22 C-37.32 22 -38.64 22 -40 22 C-40 22.66 -40 23.32 -40 24 C-40.66 24 -41.32 24 -42 24 C-42 24.66 -42 25.32 -42 26 C-42.66 26 -43.32 26 -44 26 C-44 26.66 -44 27.32 -44 28 C-44.66 28 -45.32 28 -46 28 C-46 28.66 -46 29.32 -46 30 C-46.66 30 -47.32 30 -48 30 C-48 30.66 -48 31.32 -48 32 C-48.66 32 -49.32 32 -50 32 C-50 32.66 -50 33.32 -50 34 C-50.66 34 -51.32 34 -52 34 C-52 34.66 -52 35.32 -52 36 C-52.66 36 -53.32 36 -54 36 C-54 36.66 -54 37.32 -54 38 C-54.66 38 -55.32 38 -56 38 C-56 38.66 -56 39.32 -56 40 C-56.66 40 -57.32 40 -58 40 C-58 41.32 -58 42.64 -58 44 C-58.66 44 -59.32 44 -60 44 C-60 44.66 -60 45.32 -60 46 C-60.66 46 -61.32 46 -62 46 C-62 47.32 -62 48.64 -62 50 C-62.66 50 -63.32 50 -64 50 C-64 50.66 -64 51.32 -64 52 C-64.66 52 -65.32 52 -66 52 C-66 53.32 -66 54.64 -66 56 C-66.66 56 -67.32 56 -68 56 C-68 57.32 -68 58.64 -68 60 C-68.66 60 -69.32 60 -70 60 C-70 61.98 -70 63.96 -70 66 C-70.66 66 -71.32 66 -72 66 C-72 67.98 -72 69.96 -72 72 C-72.66 72 -73.32 72 -74 72 C-74 77.28 -74 82.56 -74 88 C-74.66 88 -75.32 88 -76 88 C-76 93.94 -76 99.88 -76 106 C-75.34 106 -74.68 106 -74 106 C-74 110.62 -74 115.24 -74 120 C-73.34 120 -72.68 120 -72 120 C-72 121.32 -72 122.64 -72 124 C-71.34 124 -70.68 124 -70 124 C-70 125.98 -70 127.96 -70 130 C-69.34 130 -68.68 130 -68 130 C-68 131.98 -68 133.96 -68 136 C-67.34 136 -66.68 136 -66 136 C-66 137.32 -66 138.64 -66 140 C-65.34 140 -64.68 140 -64 140 C-64 140.66 -64 141.32 -64 142 C-63.34 142 -62.68 142 -62 142 C-62 143.32 -62 144.64 -62 146 C-61.34 146 -60.68 146 -60 146 C-60 146.66 -60 147.32 -60 148 C-59.34 148 -58.68 148 -58 148 C-58 149.32 -58 150.64 -58 152 C-57.34 152 -56.68 152 -56 152 C-56 152.66 -56 153.32 -56 154 C-55.34 154 -54.68 154 -54 154 C-54 154.66 -54 155.32 -54 156 C-53.34 156 -52.68 156 -52 156 C-52 156.66 -52 157.32 -52 158 C-51.34 158 -50.68 158 -50 158 C-50 158.66 -50 159.32 -50 160 C-49.34 160 -48.68 160 -48 160 C-48 160.66 -48 161.32 -48 162 C-47.34 162 -46.68 162 -46 162 C-46 162.66 -46 163.32 -46 164 C-45.34 164 -44.68 164 -44 164 C-44 164.66 -44 165.32 -44 166 C-43.34 166 -42.68 166 -42 166 C-42 166.66 -42 167.32 -42 168 C-42.66 168 -43.32 168 -44 168 C-44 168.66 -44 169.32 -44 170 C-44.66 170 -45.32 170 -46 170 C-46 169.34 -46 168.68 -46 168 C-46.66 168 -47.32 168 -48 168 C-48 167.34 -48 166.68 -48 166 C-48.66 166 -49.32 166 -50 166 C-50 165.34 -50 164.68 -50 164 C-50.66 164 -51.32 164 -52 164 C-52 163.34 -52 162.68 -52 162 C-52.66 162 -53.32 162 -54 162 C-54 161.34 -54 160.68 -54 160 C-54.66 160 -55.32 160 -56 160 C-56 159.34 -56 158.68 -56 158 C-56.66 158 -57.32 158 -58 158 C-58 157.34 -58 156.68 -58 156 C-58.66 156 -59.32 156 -60 156 C-60 155.34 -60 154.68 -60 154 C-60.66 154 -61.32 154 -62 154 C-62 152.68 -62 151.36 -62 150 C-62.66 150 -63.32 150 -64 150 C-64 149.34 -64 148.68 -64 148 C-64.66 148 -65.32 148 -66 148 C-66 146.68 -66 145.36 -66 144 C-66.66 144 -67.32 144 -68 144 C-68 143.34 -68 142.68 -68 142 C-68.66 142 -69.32 142 -70 142 C-70 140.02 -70 138.04 -70 136 C-70.66 136 -71.32 136 -72 136 C-72 134.68 -72 133.36 -72 132 C-72.66 132 -73.32 132 -74 132 C-74 130.68 -74 129.36 -74 128 C-74.66 128 -75.32 128 -76 128 C-76 126.02 -76 124.04 -76 122 C-76.66 122 -77.32 122 -78 122 C-78 118.04 -78 114.08 -78 110 C-78.66 110 -79.32 110 -80 110 C-80 99.44 -80 88.88 -80 78 C-79.34 78 -78.68 78 -78 78 C-78 76.68 -78 75.36 -78 74 C-77.34 74 -76.68 74 -76 74 C-76 70.7 -76 67.4 -76 64 C-75.34 64 -74.68 64 -74 64 C-74 62.02 -74 60.04 -74 58 C-73.34 58 -72.68 58 -72 58 C-72 57.34 -72 56.68 -72 56 C-71.34 56 -70.68 56 -70 56 C-70 54.02 -70 52.04 -70 50 C-69.34 50 -68.68 50 -68 50 C-68 49.34 -68 48.68 -68 48 C-67.34 48 -66.68 48 -66 48 C-66 46.68 -66 45.36 -66 44 C-65.34 44 -64.68 44 -64 44 C-64 43.34 -64 42.68 -64 42 C-63.34 42 -62.68 42 -62 42 C-62 40.68 -62 39.36 -62 38 C-61.34 38 -60.68 38 -60 38 C-60 37.34 -60 36.68 -60 36 C-59.34 36 -58.68 36 -58 36 C-58 35.34 -58 34.68 -58 34 C-57.34 34 -56.68 34 -56 34 C-56 33.34 -56 32.68 -56 32 C-55.34 32 -54.68 32 -54 32 C-54 31.34 -54 30.68 -54 30 C-53.34 30 -52.68 30 -52 30 C-52 29.34 -52 28.68 -52 28 C-51.34 28 -50.68 28 -50 28 C-50 27.34 -50 26.68 -50 26 C-49.34 26 -48.68 26 -48 26 C-48 25.34 -48 24.68 -48 24 C-47.34 24 -46.68 24 -46 24 C-46 23.34 -46 22.68 -46 22 C-45.34 22 -44.68 22 -44 22 C-44 21.34 -44 20.68 -44 20 C-43.34 20 -42.68 20 -42 20 C-42 19.34 -42 18.68 -42 18 C-40.68 18 -39.36 18 -38 18 C-38 17.34 -38 16.68 -38 16 C-37.34 16 -36.68 16 -36 16 C-36 15.34 -36 14.68 -36 14 C-34.68 14 -33.36 14 -32 14 C-32 13.34 -32 12.68 -32 12 C-31.34 12 -30.68 12 -30 12 C-30 11.34 -30 10.68 -30 10 C-28.68 10 -27.36 10 -26 10 C-26 9.34 -26 8.68 -26 8 C-24.68 8 -23.36 8 -22 8 C-22 7.34 -22 6.68 -22 6 C-20.02 6 -18.04 6 -16 6 C-16 5.34 -16 4.68 -16 4 C-14.02 4 -12.04 4 -10 4 C-10 3.34 -10 2.68 -10 2 C-6.7 2 -3.4 2 0 2 C0 1.34 0 0.68 0 0 Z " fill="#3861B2" transform="translate(401,54)"/>
<path d="M0 0 C1.32 0 2.64 0 4 0 C4 0.66 4 1.32 4 2 C15.22 2 26.44 2 38 2 C38 2.66 38 3.32 38 4 C26.12 4 14.24 4 2 4 C2 3.34 2 2.68 2 2 C1.34 2 0.68 2 0 2 C0 1.34 0 0.68 0 0 Z " fill="#AEC1E0" transform="translate(505,112)"/>
<path d="M0 0 C0.66 0 1.32 0 2 0 C2 1.98 2 3.96 2 6 C4.64 6 7.28 6 10 6 C10 7.32 10 8.64 10 10 C6.04 10 2.08 10 -2 10 C-2 8.68 -2 7.36 -2 6 C-1.34 6 -0.68 6 0 6 C0 4.02 0 2.04 0 0 Z " fill="#FCF4B0" transform="translate(53,704)"/>
<path d="M0 0 C1.32 0 2.64 0 4 0 C4 1.32 4 2.64 4 4 C4.66 4 5.32 4 6 4 C6 6.64 6 9.28 6 12 C5.34 12 4.68 12 4 12 C4 13.98 4 15.96 4 18 C2.68 18 1.36 18 0 18 C0 17.34 0 16.68 0 16 C0.66 16 1.32 16 2 16 C2 11.38 2 6.76 2 2 C1.34 2 0.68 2 0 2 C0 1.34 0 0.68 0 0 Z " fill="#FCF2A0" transform="translate(81,618)"/>
<path d="M0 0 C2.97 0 5.94 0 9 0 C9 0.33 9 0.66 9 1 C12.63 1.33 16.26 1.66 20 2 C20 2.66 20 3.32 20 4 C14.06 4 8.12 4 2 4 C2 3.34 2 2.68 2 2 C1.34 2 0.68 2 0 2 C0 1.34 0 0.68 0 0 Z " fill="#FCF1AC" transform="translate(243,734)"/>
<path d="M0 0 C1.98 0 3.96 0 6 0 C6 0.66 6 1.32 6 2 C6.66 2 7.32 2 8 2 C8 4.64 8 7.28 8 10 C7.34 10 6.68 10 6 10 C6 9.34 6 8.68 6 8 C5.34 8 4.68 8 4 8 C4 7.34 4 6.68 4 6 C3.34 6 2.68 6 2 6 C2 5.34 2 4.68 2 4 C1.34 4 0.68 4 0 4 C0 2.68 0 1.36 0 0 Z " fill="#4067B5" transform="translate(479,80)"/>
<path d="M0 0 C3.96 0 7.92 0 12 0 C12 0.66 12 1.32 12 2 C8.7 2 5.4 2 2 2 C2 2.66 2 3.32 2 4 C-1.96 4 -5.92 4 -10 4 C-10 3.34 -10 2.68 -10 2 C-6.7 2 -3.4 2 0 2 C0 1.34 0 0.68 0 0 Z " fill="#FDF5CD" transform="translate(329,734)"/>
<path d="M0 0 C1.32 0 2.64 0 4 0 C4 0.66 4 1.32 4 2 C7.3 2 10.6 2 14 2 C14 2.66 14 3.32 14 4 C15.32 4 16.64 4 18 4 C18 4.66 18 5.32 18 6 C15.36 6 12.72 6 10 6 C10 5.34 10 4.68 10 4 C7.36 4 4.72 4 2 4 C2 3.34 2 2.68 2 2 C1.34 2 0.68 2 0 2 C0 1.34 0 0.68 0 0 Z " fill="#FDF5BD" transform="translate(209,726)"/>
<path d="M0 0 C1.32 0 2.64 0 4 0 C4 1.32 4 2.64 4 4 C0.04 4 -3.92 4 -8 4 C-8 4.66 -8 5.32 -8 6 C-9.32 6 -10.64 6 -12 6 C-12 4.68 -12 3.36 -12 2 C-8.04 2 -4.08 2 0 2 C0 1.34 0 0.68 0 0 Z " fill="#FBEB8F" transform="translate(99,698)"/>
<path d="M0 0 C1.32 0 2.64 0 4 0 C4 0.66 4 1.32 4 2 C3.34 2 2.68 2 2 2 C2 2.66 2 3.32 2 4 C-0.64 4 -3.28 4 -6 4 C-6 4.66 -6 5.32 -6 6 C-7.98 6 -9.96 6 -12 6 C-12 4.68 -12 3.36 -12 2 C-8.04 2 -4.08 2 0 2 C0 1.34 0 0.68 0 0 Z " fill="#FBEB8B" transform="translate(121,692)"/>
<path d="M0 0 C1.32 0 2.64 0 4 0 C4 1.32 4 2.64 4 4 C0.04 4 -3.92 4 -8 4 C-8 4.66 -8 5.32 -8 6 C-9.32 6 -10.64 6 -12 6 C-12 5.34 -12 4.68 -12 4 C-11.34 4 -10.68 4 -10 4 C-10 3.34 -10 2.68 -10 2 C-6.7 2 -3.4 2 0 2 C0 1.34 0 0.68 0 0 Z " fill="#FDF7D5" transform="translate(91,702)"/>
<path d="M0 0 C1.32 0 2.64 0 4 0 C4 3.96 4 7.92 4 12 C4.66 12 5.32 12 6 12 C6 13.32 6 14.64 6 16 C5.34 16 4.68 16 4 16 C4 15.34 4 14.68 4 14 C3.34 14 2.68 14 2 14 C2 10.7 2 7.4 2 4 C1.34 4 0.68 4 0 4 C0 2.68 0 1.36 0 0 Z " fill="#FCF2A6" transform="translate(57,554)"/>
<path d="M0 0 C0.66 0 1.32 0 2 0 C2 1.32 2 2.64 2 4 C1.34 4 0.68 4 0 4 C0 7.96 0 11.92 0 16 C-1.32 16 -2.64 16 -4 16 C-4 14.68 -4 13.36 -4 12 C-3.34 12 -2.68 12 -2 12 C-2 8.7 -2 5.4 -2 2 C-1.34 2 -0.68 2 0 2 C0 1.34 0 0.68 0 0 Z " fill="#ADC2E4" transform="translate(673,142)"/>
<path d="M0 0 C0.66 0 1.32 0 2 0 C2 0.66 2 1.32 2 2 C5.96 2 9.92 2 14 2 C14 2.66 14 3.32 14 4 C14.66 4 15.32 4 16 4 C16 4.66 16 5.32 16 6 C14.68 6 13.36 6 12 6 C12 5.34 12 4.68 12 4 C8.04 4 4.08 4 0 4 C0 2.68 0 1.36 0 0 Z " fill="#FEFAE1" transform="translate(229,732)"/>
<path d="M0 0 C1.32 0 2.64 0 4 0 C4 0.66 4 1.32 4 2 C3.34 2 2.68 2 2 2 C2 2.66 2 3.32 2 4 C-0.64 4 -3.28 4 -6 4 C-6 4.66 -6 5.32 -6 6 C-7.32 6 -8.64 6 -10 6 C-10 4.68 -10 3.36 -10 2 C-6.7 2 -3.4 2 0 2 C0 1.34 0 0.68 0 0 Z " fill="#FBEC8E" transform="translate(77,704)"/>
<path d="M0 0 C1.32 0 2.64 0 4 0 C4 0.66 4 1.32 4 2 C3.34 2 2.68 2 2 2 C2 2.66 2 3.32 2 4 C-1.96 4 -5.92 4 -10 4 C-10 4.66 -10 5.32 -10 6 C-10.66 6 -11.32 6 -12 6 C-12 4.68 -12 3.36 -12 2 C-8.04 2 -4.08 2 0 2 C0 1.34 0 0.68 0 0 Z " fill="#FEFAD7" transform="translate(115,696)"/>
<path d="M0 0 C1.32 0 2.64 0 4 0 C4 0.66 4 1.32 4 2 C5.32 2 6.64 2 8 2 C8 2.66 8 3.32 8 4 C9.32 4 10.64 4 12 4 C12 5.32 12 6.64 12 8 C11.34 8 10.68 8 10 8 C10 7.34 10 6.68 10 6 C8.02 6 6.04 6 4 6 C4 5.34 4 4.68 4 4 C3.34 4 2.68 4 2 4 C2 3.34 2 2.68 2 2 C1.34 2 0.68 2 0 2 C0 1.34 0 0.68 0 0 Z " fill="#FBEA90" transform="translate(143,690)"/>
<path d="M0 0 C0.66 0 1.32 0 2 0 C2 1.32 2 2.64 2 4 C1.34 4 0.68 4 0 4 C0 7.3 0 10.6 0 14 C-0.66 14 -1.32 14 -2 14 C-2 14.66 -2 15.32 -2 16 C-2.66 16 -3.32 16 -4 16 C-4 14.68 -4 13.36 -4 12 C-3.34 12 -2.68 12 -2 12 C-2 8.7 -2 5.4 -2 2 C-1.34 2 -0.68 2 0 2 C0 1.34 0 0.68 0 0 Z " fill="#A1B9DF" transform="translate(667,166)"/>
<path d="M0 0 C1.32 0 2.64 0 4 0 C4 0.66 4 1.32 4 2 C3.34 2 2.68 2 2 2 C2 5.96 2 9.92 2 14 C1.34 14 0.68 14 0 14 C0 14.66 0 15.32 0 16 C-0.66 16 -1.32 16 -2 16 C-2 14.68 -2 13.36 -2 12 C-1.34 12 -0.68 12 0 12 C0 8.04 0 4.08 0 0 Z " fill="#406BBA" transform="translate(667,152)"/>
<path d="M0 0 C1.32 0 2.64 0 4 0 C4 0.66 4 1.32 4 2 C3.34 2 2.68 2 2 2 C2 5.96 2 9.92 2 14 C1.34 14 0.68 14 0 14 C0 14.66 0 15.32 0 16 C-0.66 16 -1.32 16 -2 16 C-2 14.68 -2 13.36 -2 12 C-1.34 12 -0.68 12 0 12 C0 8.04 0 4.08 0 0 Z " fill="#4570BC" transform="translate(673,128)"/>
<path d="M0 0 C0.66 0 1.32 0 2 0 C2 1.32 2 2.64 2 4 C1.34 4 0.68 4 0 4 C0 7.3 0 10.6 0 14 C-0.66 14 -1.32 14 -2 14 C-2 14.66 -2 15.32 -2 16 C-2.66 16 -3.32 16 -4 16 C-4 14.68 -4 13.36 -4 12 C-3.34 12 -2.68 12 -2 12 C-2 8.7 -2 5.4 -2 2 C-1.34 2 -0.68 2 0 2 C0 1.34 0 0.68 0 0 Z " fill="#ADC2E4" transform="translate(679,118)"/>
<path d="M0 0 C3.96 0 7.92 0 12 0 C12 0.66 12 1.32 12 2 C10.02 2 8.04 2 6 2 C6 2.66 6 3.32 6 4 C4.02 4 2.04 4 0 4 C0 2.68 0 1.36 0 0 Z " fill="#FBEA90" transform="translate(131,688)"/>
<path d="M0 0 C1.32 0 2.64 0 4 0 C4 1.98 4 3.96 4 6 C4.66 6 5.32 6 6 6 C6 7.98 6 9.96 6 12 C5.34 12 4.68 12 4 12 C4 11.34 4 10.68 4 10 C3.34 10 2.68 10 2 10 C2 7.36 2 4.72 2 2 C1.34 2 0.68 2 0 2 C0 1.34 0 0.68 0 0 Z " fill="#FDF4BC" transform="translate(69,594)"/>
<path d="M0 0 C4.62 0 9.24 0 14 0 C14 1.32 14 2.64 14 4 C12.68 4 11.36 4 10 4 C10 3.34 10 2.68 10 2 C6.7 2 3.4 2 0 2 C0 1.34 0 0.68 0 0 Z " fill="#C0CFE8" transform="translate(557,118)"/>
<path d="M0 0 C1.32 0 2.64 0 4 0 C4 1.98 4 3.96 4 6 C4.66 6 5.32 6 6 6 C6 7.32 6 8.64 6 10 C5.34 10 4.68 10 4 10 C4 9.34 4 8.68 4 8 C3.34 8 2.68 8 2 8 C2 6.68 2 5.36 2 4 C1.34 4 0.68 4 0 4 C0 2.68 0 1.36 0 0 Z " fill="#FCF2AE" transform="translate(75,606)"/>
<path d="M0 0 C1.32 0 2.64 0 4 0 C4 2.64 4 5.28 4 8 C4.66 8 5.32 8 6 8 C6 8.66 6 9.32 6 10 C4.68 10 3.36 10 2 10 C2 8.02 2 6.04 2 4 C1.34 4 0.68 4 0 4 C0 2.68 0 1.36 0 0 Z " fill="#FDF4B7" transform="translate(63,578)"/>
<path d="M0 0 C1.32 0 2.64 0 4 0 C4 0.66 4 1.32 4 2 C3.34 2 2.68 2 2 2 C2 2.66 2 3.32 2 4 C-1.3 4 -4.6 4 -8 4 C-8 3.34 -8 2.68 -8 2 C-5.36 2 -2.72 2 0 2 C0 1.34 0 0.68 0 0 Z " fill="#FEF9D9" transform="translate(71,708)"/>
<path d="M0 0 C1.32 0 2.64 0 4 0 C4 0.66 4 1.32 4 2 C3.34 2 2.68 2 2 2 C2 4.64 2 7.28 2 10 C0.68 10 -0.64 10 -2 10 C-2 9.34 -2 8.68 -2 8 C-1.34 8 -0.68 8 0 8 C0 5.36 0 2.72 0 0 Z " fill="#FDF3AD" transform="translate(59,688)"/>
<path d="M0 0 C1.32 0 2.64 0 4 0 C4 0.66 4 1.32 4 2 C3.34 2 2.68 2 2 2 C2 4.64 2 7.28 2 10 C0.68 10 -0.64 10 -2 10 C-2 9.34 -2 8.68 -2 8 C-1.34 8 -0.68 8 0 8 C0 5.36 0 2.72 0 0 Z " fill="#FDF4B5" transform="translate(65,672)"/>
<path d="M0 0 C0.66 0 1.32 0 2 0 C2 1.32 2 2.64 2 4 C1.34 4 0.68 4 0 4 C0 5.98 0 7.96 0 10 C-1.32 10 -2.64 10 -4 10 C-4 9.34 -4 8.68 -4 8 C-3.34 8 -2.68 8 -2 8 C-2 6.02 -2 4.04 -2 2 C-1.34 2 -0.68 2 0 2 C0 1.34 0 0.68 0 0 Z " fill="#FCF09D" transform="translate(79,642)"/>
<path d="M0 0 C0.66 0 1.32 0 2 0 C2 3.96 2 7.92 2 12 C0.68 12 -0.64 12 -2 12 C-2 11.34 -2 10.68 -2 10 C-1.34 10 -0.68 10 0 10 C0 6.7 0 3.4 0 0 Z " fill="#FCF2B6" transform="translate(83,624)"/>
<path d="M0 0 C0.66 0 1.32 0 2 0 C2 1.98 2 3.96 2 6 C2.66 6 3.32 6 4 6 C4 6.66 4 7.32 4 8 C3.34 8 2.68 8 2 8 C2 9.32 2 10.64 2 12 C1.34 12 0.68 12 0 12 C0 8.04 0 4.08 0 0 Z " fill="#466EB8" transform="translate(331,184)"/>
<path d="M0 0 C0.66 0 1.32 0 2 0 C2 3.3 2 6.6 2 10 C1.34 10 0.68 10 0 10 C0 10.66 0 11.32 0 12 C-0.66 12 -1.32 12 -2 12 C-2 10.68 -2 9.36 -2 8 C-1.34 8 -0.68 8 0 8 C0 5.36 0 2.72 0 0 Z " fill="#4F79C0" transform="translate(679,108)"/>
<path d="M0 0 C1.32 0 2.64 0 4 0 C4 1.32 4 2.64 4 4 C2.02 4 0.04 4 -2 4 C-2 4.66 -2 5.32 -2 6 C-2.66 6 -3.32 6 -4 6 C-4 4.68 -4 3.36 -4 2 C-2.68 2 -1.36 2 0 2 C0 1.34 0 0.68 0 0 Z " fill="#7597D0" transform="translate(679,102)"/>
<path d="M0 0 C3.96 0 7.92 0 12 0 C12 0.66 12 1.32 12 2 C10.68 2 9.36 2 8 2 C8 2.66 8 3.32 8 4 C7.34 4 6.68 4 6 4 C6 3.34 6 2.68 6 2 C4.02 2 2.04 2 0 2 C0 1.34 0 0.68 0 0 Z " fill="#466EB8" transform="translate(451,64)"/>
<path d="M0 0 C0.66 0 1.32 0 2 0 C2 0.66 2 1.32 2 2 C3.98 2 5.96 2 8 2 C8 3.32 8 4.64 8 6 C7.34 6 6.68 6 6 6 C6 5.34 6 4.68 6 4 C4.02 4 2.04 4 0 4 C0 2.68 0 1.36 0 0 Z " fill="#FEFADE" transform="translate(181,714)"/>
<path d="M0 0 C1.32 0 2.64 0 4 0 C4 0.66 4 1.32 4 2 C5.32 2 6.64 2 8 2 C8 3.32 8 4.64 8 6 C7.34 6 6.68 6 6 6 C6 5.34 6 4.68 6 4 C4.68 4 3.36 4 2 4 C2 3.34 2 2.68 2 2 C1.34 2 0.68 2 0 2 C0 1.34 0 0.68 0 0 Z " fill="#FCF3A8" transform="translate(155,698)"/>
<path d="M0 0 C1.32 0 2.64 0 4 0 C4 0.66 4 1.32 4 2 C3.34 2 2.68 2 2 2 C2 3.98 2 5.96 2 8 C0.68 8 -0.64 8 -2 8 C-2 7.34 -2 6.68 -2 6 C-1.34 6 -0.68 6 0 6 C0 4.02 0 2.04 0 0 Z " fill="#FAE77E" transform="translate(57,698)"/>
<path d="M0 0 C2.64 0 5.28 0 8 0 C8 0.66 8 1.32 8 2 C6.02 2 4.04 2 2 2 C2 2.66 2 3.32 2 4 C0.68 4 -0.64 4 -2 4 C-2 3.34 -2 2.68 -2 2 C-1.34 2 -0.68 2 0 2 C0 1.34 0 0.68 0 0 Z " fill="#FDF5C8" transform="translate(125,692)"/>
<path d="M0 0 C1.32 0 2.64 0 4 0 C4 0.66 4 1.32 4 2 C3.34 2 2.68 2 2 2 C2 3.98 2 5.96 2 8 C0.68 8 -0.64 8 -2 8 C-2 7.34 -2 6.68 -2 6 C-1.34 6 -0.68 6 0 6 C0 4.02 0 2.04 0 0 Z " fill="#FCF2B0" transform="translate(71,658)"/>
<path d="M0 0 C0.66 0 1.32 0 2 0 C2 1.32 2 2.64 2 4 C0.68 4 -0.64 4 -2 4 C-2 4.66 -2 5.32 -2 6 C-3.32 6 -4.64 6 -6 6 C-6 5.34 -6 4.68 -6 4 C-5.34 4 -4.68 4 -4 4 C-4 3.34 -4 2.68 -4 2 C-2.68 2 -1.36 2 0 2 C0 1.34 0 0.68 0 0 Z " fill="#668CCB" transform="translate(651,120)"/>
<path d="M0 0 C0.66 0 1.32 0 2 0 C2 1.32 2 2.64 2 4 C0.68 4 -0.64 4 -2 4 C-2 4.66 -2 5.32 -2 6 C-3.32 6 -4.64 6 -6 6 C-6 5.34 -6 4.68 -6 4 C-5.34 4 -4.68 4 -4 4 C-4 3.34 -4 2.68 -4 2 C-2.68 2 -1.36 2 0 2 C0 1.34 0 0.68 0 0 Z " fill="#9AB4DE" transform="translate(659,114)"/>
<path d="M0 0 C0.66 0 1.32 0 2 0 C2 1.32 2 2.64 2 4 C0.68 4 -0.64 4 -2 4 C-2 4.66 -2 5.32 -2 6 C-3.32 6 -4.64 6 -6 6 C-6 5.34 -6 4.68 -6 4 C-5.34 4 -4.68 4 -4 4 C-4 3.34 -4 2.68 -4 2 C-2.68 2 -1.36 2 0 2 C0 1.34 0 0.68 0 0 Z " fill="#8DA9D8" transform="translate(669,108)"/>
<path d="M0 0 C0.66 0 1.32 0 2 0 C2 2.64 2 5.28 2 8 C0.68 8 -0.64 8 -2 8 C-2 6.68 -2 5.36 -2 4 C-1.34 4 -0.68 4 0 4 C0 2.68 0 1.36 0 0 Z " fill="#C3D2EA" transform="translate(683,102)"/>
<path d="M0 0 C1.32 0 2.64 0 4 0 C4 0.66 4 1.32 4 2 C5.65 2 7.3 2 9 2 C8.67 2.66 8.34 3.32 8 4 C6.02 4 4.04 4 2 4 C2 3.34 2 2.68 2 2 C1.34 2 0.68 2 0 2 C0 1.34 0 0.68 0 0 Z " fill="#B5C8E4" transform="translate(505,112)"/>
<path d="M0 0 C1.98 0 3.96 0 6 0 C6 0.66 6 1.32 6 2 C6.66 2 7.32 2 8 2 C8 2.66 8 3.32 8 4 C6.68 4 5.36 4 4 4 C4 3.34 4 2.68 4 2 C2.68 2 1.36 2 0 2 C0 1.34 0 0.68 0 0 Z " fill="#FBEB97" transform="translate(227,730)"/>
<path d="M0 0 C1.32 0 2.64 0 4 0 C4 0.66 4 1.32 4 2 C5.32 2 6.64 2 8 2 C8 2.66 8 3.32 8 4 C6.02 4 4.04 4 2 4 C2 3.34 2 2.68 2 2 C1.34 2 0.68 2 0 2 C0 1.34 0 0.68 0 0 Z " fill="#FEF9DD" transform="translate(209,726)"/>
<path d="M0 0 C1.98 0 3.96 0 6 0 C6 0.66 6 1.32 6 2 C6.66 2 7.32 2 8 2 C8 2.66 8 3.32 8 4 C6.68 4 5.36 4 4 4 C4 3.34 4 2.68 4 2 C2.68 2 1.36 2 0 2 C0 1.34 0 0.68 0 0 Z " fill="#FDF8C3" transform="translate(199,722)"/>
<path d="M0 0 C1.32 0 2.64 0 4 0 C4 0.66 4 1.32 4 2 C5.32 2 6.64 2 8 2 C8 2.66 8 3.32 8 4 C6.02 4 4.04 4 2 4 C2 3.34 2 2.68 2 2 C1.34 2 0.68 2 0 2 C0 1.34 0 0.68 0 0 Z " fill="#FDF4B6" transform="translate(163,704)"/>
<path d="M0 0 C1.98 0 3.96 0 6 0 C6 0.66 6 1.32 6 2 C4.68 2 3.36 2 2 2 C2 2.66 2 3.32 2 4 C0.68 4 -0.64 4 -2 4 C-2 3.34 -2 2.68 -2 2 C-1.34 2 -0.68 2 0 2 C0 1.34 0 0.68 0 0 Z " fill="#FDF6BF" transform="translate(81,704)"/>
<path d="M0 0 C1.32 0 2.64 0 4 0 C4 0.66 4 1.32 4 2 C3.34 2 2.68 2 2 2 C2 2.66 2 3.32 2 4 C0.02 4 -1.96 4 -4 4 C-4 3.34 -4 2.68 -4 2 C-2.68 2 -1.36 2 0 2 C0 1.34 0 0.68 0 0 Z " fill="#FCF19C" transform="translate(121,692)"/>
<path d="M0 0 C1.32 0 2.64 0 4 0 C4 0.66 4 1.32 4 2 C4.66 2 5.32 2 6 2 C6 3.32 6 4.64 6 6 C5.34 6 4.68 6 4 6 C4 5.34 4 4.68 4 4 C3.34 4 2.68 4 2 4 C2 3.34 2 2.68 2 2 C1.34 2 0.68 2 0 2 C0 1.34 0 0.68 0 0 Z " fill="#FDF6C3" transform="translate(143,690)"/>
<path d="M0 0 C0.66 0 1.32 0 2 0 C2 1.98 2 3.96 2 6 C1.34 6 0.68 6 0 6 C0 6.66 0 7.32 0 8 C-0.66 8 -1.32 8 -2 8 C-2 6.68 -2 5.36 -2 4 C-1.34 4 -0.68 4 0 4 C0 2.68 0 1.36 0 0 Z " fill="#FEFAE0" transform="translate(79,636)"/>
<path d="M0 0 C0.66 0 1.32 0 2 0 C2 1.98 2 3.96 2 6 C2.66 6 3.32 6 4 6 C4 6.66 4 7.32 4 8 C2.68 8 1.36 8 0 8 C0 5.36 0 2.72 0 0 Z " fill="#FAE786" transform="translate(63,570)"/>
<path d="M0 0 C0.66 0 1.32 0 2 0 C2 1.32 2 2.64 2 4 C-0.64 4 -3.28 4 -6 4 C-6 3.34 -6 2.68 -6 2 C-4.02 2 -2.04 2 0 2 C0 1.34 0 0.68 0 0 Z " fill="#91ACDA" transform="translate(621,138)"/>
<path d="M0 0 C0.66 0 1.32 0 2 0 C2 1.32 2 2.64 2 4 C0.68 4 -0.64 4 -2 4 C-2 4.66 -2 5.32 -2 6 C-2.66 6 -3.32 6 -4 6 C-4 4.68 -4 3.36 -4 2 C-2.68 2 -1.36 2 0 2 C0 1.34 0 0.68 0 0 Z " fill="#7799D0" transform="translate(631,132)"/>
<path d="M0 0 C0.66 0 1.32 0 2 0 C2 1.32 2 2.64 2 4 C0.68 4 -0.64 4 -2 4 C-2 4.66 -2 5.32 -2 6 C-2.66 6 -3.32 6 -4 6 C-4 4.68 -4 3.36 -4 2 C-2.68 2 -1.36 2 0 2 C0 1.34 0 0.68 0 0 Z " fill="#698ECA" transform="translate(641,126)"/>
<path d="M0 0 C1.32 0 2.64 0 4 0 C4 0.66 4 1.32 4 2 C3.34 2 2.68 2 2 2 C1.67 3.65 1.34 5.3 1 7 C0.67 7 0.34 7 0 7 C0 4.69 0 2.38 0 0 Z " fill="#FAE782" transform="translate(69,666)"/>
</svg>
